<?xml version="1.0" encoding="UTF-8" standalone="no"?>
<!-- Created with Inkscape (http://www.inkscape.org/) -->

<svg
   width="153.45833mm"
   height="55.718109mm"
   viewBox="0 0 153.45833 55.718109"
   version="1.1"
   id="svg5"
   inkscape:version="1.1.2 (0a00cf5339, 2022-02-04)"
   sodipodi:docname="slurm-web_responsive.svg"
   xmlns:inkscape="http://www.inkscape.org/namespaces/inkscape"
   xmlns:sodipodi="http://sodipodi.sourceforge.net/DTD/sodipodi-0.dtd"
   xmlns:xlink="http://www.w3.org/1999/xlink"
   xmlns="http://www.w3.org/2000/svg"
   xmlns:svg="http://www.w3.org/2000/svg">
  <sodipodi:namedview
     id="namedview7"
     pagecolor="#ffffff"
     bordercolor="#666666"
     borderopacity="1.0"
     inkscape:pageshadow="2"
     inkscape:pageopacity="0.0"
     inkscape:pagecheckerboard="0"
     inkscape:document-units="mm"
     showgrid="true"
     inkscape:zoom="1.5554293"
     inkscape:cx="186.12225"
     inkscape:cy="55.611657"
     inkscape:window-width="2865"
     inkscape:window-height="1082"
     inkscape:window-x="26"
     inkscape:window-y="23"
     inkscape:window-maximized="0"
     inkscape:current-layer="layer1"
     fit-margin-top="0"
     fit-margin-left="0"
     fit-margin-right="0"
     fit-margin-bottom="0">
    <inkscape:grid
       type="xygrid"
       id="grid1095"
       originx="-58.208332"
       originy="-14.715947" />
  </sodipodi:namedview>
  <defs
     id="defs2">
    <linearGradient
       x1="-0.55967134"
       y1="8.3266727e-16"
       x2="1.6685077"
       y2="8.3266727e-16"
       gradientUnits="userSpaceOnUse"
       gradientTransform="matrix(836.767,0,0,-836.767,142.617,323.601)"
       spreadMethod="pad"
       id="linearGradient2432">
      <stop
         style="stop-opacity:1;stop-color:#aaaaae"
         offset="0"
         id="stop2426" />
      <stop
         style="stop-opacity:1;stop-color:#ffffff"
         offset="0.82432425"
         id="stop2428" />
      <stop
         style="stop-opacity:1;stop-color:#ffffff"
         offset="1"
         id="stop2430" />
    </linearGradient>
    <linearGradient
       x1="0"
       y1="0"
       x2="1"
       y2="0"
       gradientUnits="userSpaceOnUse"
       gradientTransform="matrix(8367.67,0,0,-8367.67,1426.17,3236.01)"
       spreadMethod="pad"
       id="linearGradient2462">
      <stop
         style="stop-opacity:1;stop-color:#aaaaae"
         offset="0"
         id="stop2456" />
      <stop
         style="stop-opacity:0.79728758;stop-color:#ffffff"
         offset="0.58723699"
         id="stop2458" />
      <stop
         style="stop-opacity:0;stop-color:#ffffff"
         offset="1"
         id="stop2460" />
    </linearGradient>
    <linearGradient
       x1="-0.55967134"
       y1="8.3266727e-16"
       x2="1.6685077"
       y2="8.3266727e-16"
       gradientUnits="userSpaceOnUse"
       gradientTransform="matrix(836.767,0,0,-836.767,142.617,323.601)"
       spreadMethod="pad"
       id="linearGradient588-1">
      <stop
         style="stop-opacity:1;stop-color:#aaaaae"
         offset="0"
         id="stop582" />
      <stop
         style="stop-opacity:1;stop-color:#ffffff"
         offset="0.69999999"
         id="stop584" />
      <stop
         style="stop-opacity:1;stop-color:#ffffff"
         offset="1"
         id="stop586" />
    </linearGradient>
    <linearGradient
       inkscape:collect="always"
       xlink:href="#linearGradient2462"
       id="linearGradient2368"
       x1="574.69733"
       y1="147.40999"
       x2="574.69733"
       y2="250.52858"
       gradientUnits="userSpaceOnUse" />
    <clipPath
       clipPathUnits="userSpaceOnUse"
       id="clipPath1116">
      <path
         d="m 6330.14,1317.73 h -2655 c -140.72,0 -267.77,58.58 -358.08,152.68 -0.85,0.88 -1.7,1.78 -2.54,2.66 90.3,-94.03 217.31,-152.57 357.98,-152.57 h 2654.99 c 274,0 496.21,222.1 496.21,496.1 v 6368.21 c 0,131.84 -51.46,251.68 -135.38,340.53 0.84,-0.87 1.66,-1.74 2.49,-2.62 84.01,-88.86 135.53,-208.76 135.53,-340.69 v -6368.2 c 0,-274 -222.21,-496.1 -496.2,-496.1 m 173.56,99.77 0.69,0.41 0.4,0.09 -1.09,-0.5"
         id="path1114" />
    </clipPath>
    <linearGradient
       x1="0"
       y1="0"
       x2="1"
       y2="0"
       gradientUnits="userSpaceOnUse"
       gradientTransform="matrix(10000,-10000,-10000,-10000,0,10000)"
       spreadMethod="pad"
       id="linearGradient1124">
      <stop
         style="stop-opacity:1;stop-color:#939494"
         offset="0"
         id="stop1118" />
      <stop
         style="stop-opacity:1;stop-color:#939494"
         offset="0.41952262"
         id="stop1120" />
      <stop
         style="stop-opacity:1;stop-color:#818282"
         offset="1"
         id="stop1122" />
    </linearGradient>
    <clipPath
       clipPathUnits="userSpaceOnUse"
       id="clipPath1134">
      <path
         d="M 6327.49,1320.5 H 3672.5 c -140.67,0 -267.68,58.54 -357.98,152.57 -85.61,89.15 -138.23,210.19 -138.23,343.53 v 6368.21 c 0,273.99 222.21,496.1 496.21,496.1 h 2654.99 c 142.15,0 270.36,-59.78 360.83,-155.57 83.92,-88.85 135.38,-208.69 135.38,-340.53 V 1816.6 c 0,-274 -222.21,-496.1 -496.21,-496.1 m 177.3,97.5 -0.4,-0.09 -0.69,-0.41 1.09,0.5"
         id="path1132" />
    </clipPath>
    <linearGradient
       x1="0"
       y1="0"
       x2="1"
       y2="0"
       gradientUnits="userSpaceOnUse"
       gradientTransform="matrix(10000,-10000,-10000,-10000,0,10000)"
       spreadMethod="pad"
       id="linearGradient1142">
      <stop
         style="stop-opacity:1;stop-color:#919292"
         offset="0"
         id="stop1136" />
      <stop
         style="stop-opacity:1;stop-color:#919292"
         offset="0.41952262"
         id="stop1138" />
      <stop
         style="stop-opacity:1;stop-color:#808080"
         offset="1"
         id="stop1140" />
    </linearGradient>
    <clipPath
       clipPathUnits="userSpaceOnUse"
       id="clipPath1154">
      <path
         d="m 3626.24,1381.62 c -3.87,0.37 -7.74,0.74 -11.61,1.2 h -0.27 c -7.65,0.92 -15.2,2.02 -22.66,3.31 -45.5,7.74 -88.88,21.83 -129.14,41.36 -2.85,1.38 -5.61,2.76 -8.47,4.15 -7.18,3.77 -14.28,7.55 -21.28,11.6 -3.22,1.84 -6.35,3.68 -9.48,5.62 -15.84,9.58 -31.13,20.08 -45.69,31.41 -2.67,2.02 -5.25,4.05 -7.83,6.17 -7.73,6.26 -15.28,12.71 -22.56,19.34 -2.4,2.21 -4.79,4.42 -7.09,6.72 -2.77,2.58 -5.44,5.16 -8.11,7.83 -2.58,2.67 -5.25,5.34 -7.83,8.01 -1.75,1.76 -3.4,3.51 -5.06,5.35 -2.12,2.3 -4.24,4.61 -6.27,6.91 -12.34,13.81 -23.85,28.27 -34.54,43.38 -1.93,2.67 -3.77,5.43 -5.62,8.1 -5.8,8.48 -11.23,17.14 -16.39,25.98 -1.94,3.13 -3.78,6.35 -5.53,9.58 -13.35,23.95 -24.68,49.09 -33.8,75.16 -1.29,3.59 -2.49,7.09 -3.59,10.68 -5.8,18.05 -10.59,36.48 -14.28,55.27 -0.74,3.77 -1.47,7.55 -2.12,11.32 -4.51,26.53 -6.9,53.79 -6.9,81.61 V 8137.7 c 0,258.35 204.29,469.92 459.79,481.8 -230.17,-11.88 -413.74,-202.82 -413.74,-435.75 V 1815.62 c 0,-225.01 171.13,-410.79 390.07,-434 z"
         id="path1152" />
    </clipPath>
    <linearGradient
       x1="0"
       y1="0"
       x2="1"
       y2="0"
       gradientUnits="userSpaceOnUse"
       gradientTransform="matrix(53.4511,0,0,-53.4511,3190.11,5000.56)"
       spreadMethod="pad"
       id="linearGradient1162">
      <stop
         style="stop-opacity:1;stop-color:#666666"
         offset="0"
         id="stop1156" />
      <stop
         style="stop-opacity:1;stop-color:#666666"
         offset="0.01680284"
         id="stop1158" />
      <stop
         style="stop-opacity:1;stop-color:#000000"
         offset="1"
         id="stop1160" />
    </linearGradient>
    <clipPath
       clipPathUnits="userSpaceOnUse"
       id="clipPath1172">
      <path
         d="M 6809.88,8137.7 V 1861.68 c 0,-51.67 -8.19,-101.5 -23.3,-148.2 -1.1,-3.59 -2.3,-7.19 -3.59,-10.68 -1.2,-3.6 -2.49,-7.1 -3.87,-10.6 -0.92,-2.67 -1.93,-5.34 -3.04,-7.92 -3.13,-7.82 -6.45,-15.56 -9.95,-23.21 -1.56,-3.4 -3.13,-6.81 -4.79,-10.13 -2.3,-4.69 -4.6,-9.3 -7.09,-13.91 -1.56,-3.13 -3.22,-6.17 -4.97,-9.21 -1.75,-3.22 -3.59,-6.45 -5.53,-9.67 -5.16,-8.84 -10.68,-17.59 -16.48,-26.16 -1.85,-2.67 -3.69,-5.43 -5.62,-8.1 -2.12,-3.04 -4.33,-5.99 -6.54,-8.94 -2.12,-3.04 -4.42,-5.99 -6.63,-8.84 -2.31,-2.95 -4.61,-5.8 -6.91,-8.66 -2.3,-2.85 -4.7,-5.71 -7.19,-8.56 -4.79,-5.62 -9.67,-11.15 -14.73,-16.49 -7.74,-8.29 -15.75,-16.3 -24.14,-24.13 -2.48,-2.21 -4.97,-4.52 -7.55,-6.82 -5.8,-5.16 -11.7,-10.13 -17.68,-15.1 -2.58,-2.03 -5.25,-4.06 -7.92,-6.17 -8.75,-6.82 -17.78,-13.27 -26.99,-19.44 -3.04,-2.02 -6.17,-4.05 -9.3,-6.08 -6.27,-4.05 -12.62,-7.83 -19.07,-11.51 -3.13,-1.84 -6.36,-3.69 -9.58,-5.34 -10.41,-5.72 -21,-11.06 -31.87,-15.85 -2.85,-1.38 -5.71,-2.58 -8.56,-3.77 -3.41,-1.57 -6.82,-2.95 -10.32,-4.33 -3.5,-1.38 -7,-2.77 -10.5,-4.06 -7.83,-2.94 -15.75,-5.7 -23.76,-8.19 -2.86,-0.92 -5.62,-1.75 -8.47,-2.58 -10.51,-3.13 -21.28,-5.9 -32.15,-8.29 -3.78,-0.83 -7.55,-1.66 -11.42,-2.4 -3.96,-0.83 -8.02,-1.56 -12.16,-2.21 -7.55,-1.29 -15.1,-2.39 -22.66,-3.31 h -0.28 c -3.86,-0.46 -7.73,-0.83 -11.6,-1.2 218.94,23.21 390.16,208.99 390.16,434 v 6368.13 c 0,228.97 -177.3,417.33 -401.86,435.02 249.98,-17.69 447.91,-226.68 447.91,-481.07 z"
         id="path1170" />
    </clipPath>
    <linearGradient
       x1="0"
       y1="0"
       x2="1"
       y2="0"
       gradientUnits="userSpaceOnUse"
       gradientTransform="matrix(52.9869,0,0,-52.9869,6764.94,5000.19)"
       spreadMethod="pad"
       id="linearGradient1180">
      <stop
         style="stop-opacity:1;stop-color:#000000"
         offset="0"
         id="stop1174" />
      <stop
         style="stop-opacity:1;stop-color:#666666"
         offset="0.98319716"
         id="stop1176" />
      <stop
         style="stop-opacity:1;stop-color:#666666"
         offset="1"
         id="stop1178" />
    </linearGradient>
    <clipPath
       clipPathUnits="userSpaceOnUse"
       id="clipPath1190">
      <path
         d="m 6809.88,1861.68 v -46.06 c 0,-266 -216.35,-482.35 -482.36,-482.35 H 3672.57 c -266.01,0 -482.45,216.35 -482.45,482.35 v 46.06 c 0,-27.82 2.39,-55.08 6.9,-81.61 0.65,-3.77 1.38,-7.55 2.12,-11.32 3.69,-18.79 8.48,-37.22 14.28,-55.27 1.1,-3.59 2.3,-7.09 3.59,-10.68 9.12,-26.07 20.45,-51.21 33.8,-75.16 1.75,-3.23 3.59,-6.45 5.53,-9.58 5.16,-8.84 10.59,-17.5 16.39,-25.98 1.85,-2.67 3.69,-5.43 5.62,-8.1 10.69,-15.11 22.2,-29.57 34.54,-43.38 2.03,-2.3 4.15,-4.61 6.27,-6.91 1.66,-1.84 3.31,-3.59 5.06,-5.35 2.58,-2.67 5.25,-5.34 7.83,-8.01 2.67,-2.67 5.34,-5.25 8.11,-7.83 2.3,-2.3 4.69,-4.51 7.09,-6.72 7.28,-6.63 14.83,-13.08 22.56,-19.34 2.58,-2.12 5.16,-4.15 7.83,-6.17 14.56,-11.33 29.85,-21.83 45.69,-31.41 3.13,-1.94 6.26,-3.78 9.48,-5.62 7,-4.05 14.1,-7.83 21.28,-11.6 2.86,-1.39 5.62,-2.77 8.47,-4.15 40.26,-19.53 83.64,-33.62 129.14,-41.36 7.46,-1.29 15.01,-2.39 22.66,-3.31 h 0.27 c 7.74,-0.92 15.48,-1.66 23.3,-2.21 3.96,-0.28 8.02,-0.55 11.98,-0.74 7.46,-0.37 15.01,-0.55 22.66,-0.55 h 2654.95 c 7.56,0 15.02,0.18 22.48,0.55 3.96,0.19 8.01,0.46 11.97,0.74 6.36,0.46 12.62,1.01 18.88,1.75 1.48,0.09 2.95,0.28 4.42,0.46 h 0.28 c 7.65,0.92 15.2,2.02 22.66,3.31 4.14,0.65 8.2,1.38 12.16,2.21 3.87,0.74 7.64,1.57 11.42,2.4 10.87,2.39 21.64,5.16 32.15,8.29 2.85,0.83 5.7,1.66 8.47,2.58 8.01,2.49 15.93,5.25 23.76,8.19 3.5,1.29 7,2.68 10.5,4.06 3.5,1.38 6.91,2.76 10.32,4.33 2.85,1.19 5.71,2.39 8.56,3.77 10.87,4.79 21.46,10.13 31.87,15.85 3.22,1.65 6.36,3.41 9.58,5.34 6.45,3.68 12.8,7.46 19.07,11.51 3.13,1.94 6.26,3.96 9.3,6.08 9.21,6.17 18.24,12.62 26.99,19.44 2.67,2.02 5.34,4.14 7.92,6.17 5.98,4.97 11.88,9.94 17.68,15.1 2.58,2.21 5.07,4.52 7.55,6.82 8.39,7.83 16.4,15.84 24.14,24.13 5.06,5.34 10.04,10.87 14.73,16.49 2.49,2.85 4.89,5.71 7.19,8.56 2.39,2.86 4.69,5.71 6.91,8.66 2.3,2.95 4.51,5.9 6.63,8.84 2.3,2.95 4.42,5.9 6.54,8.94 1.93,2.67 3.77,5.43 5.62,8.1 5.8,8.57 11.32,17.32 16.48,26.16 1.94,3.22 3.78,6.45 5.53,9.67 1.75,3.04 3.41,6.08 4.97,9.21 2.49,4.61 4.79,9.22 7.09,13.91 1.66,3.32 3.32,6.73 4.79,10.13 3.5,7.65 6.82,15.39 9.95,23.21 1.11,2.58 2.12,5.25 3.04,7.92 1.38,3.5 2.67,7 3.87,10.6 1.29,3.49 2.49,7.09 3.59,10.68 15.11,46.7 23.3,96.53 23.3,148.2 z"
         id="path1188" />
    </clipPath>
    <linearGradient
       x1="0"
       y1="0"
       x2="1"
       y2="0"
       gradientUnits="userSpaceOnUse"
       gradientTransform="matrix(0,423.213,423.213,0,5000,1333.27)"
       spreadMethod="pad"
       id="linearGradient1198">
      <stop
         style="stop-opacity:1;stop-color:#959595"
         offset="0"
         id="stop1192" />
      <stop
         style="stop-opacity:1;stop-color:#959595"
         offset="0.01680284"
         id="stop1194" />
      <stop
         style="stop-opacity:1;stop-color:#000000"
         offset="1"
         id="stop1196" />
    </linearGradient>
    <clipPath
       clipPathUnits="userSpaceOnUse"
       id="clipPath1208">
      <path
         d="m 6809.88,8183.75 v -46.05 c 0,250.43 -191.76,456.84 -436.21,480.05 -3.87,0.37 -7.83,0.74 -11.7,1.02 -3.96,0.27 -8.01,0.55 -11.97,0.73 h -0.09 c -7.46,0.37 -14.83,0.56 -22.39,0.56 H 3672.57 c -7.56,0 -15.02,-0.19 -22.38,-0.56 h -0.28 c -255.5,-11.88 -459.79,-223.45 -459.79,-481.8 v 46.05 c 0,4.79 0.09,9.49 0.27,14.18 0,3.6 0.19,7.09 0.37,10.6 0.37,7.73 0.92,15.38 1.75,23.02 0.37,3.96 0.83,7.92 1.29,11.79 0.28,2.12 0.55,4.15 0.83,6.26 0.28,2.49 0.64,4.98 1.1,7.56 0.56,3.96 1.2,7.92 1.94,11.88 1.2,6.91 2.58,13.72 4.14,20.45 0.74,3.41 1.57,6.72 2.4,10.04 2.39,10.04 5.16,19.8 8.29,29.56 1.01,3.04 2.02,6.17 3.04,9.21 1.29,3.78 2.58,7.56 3.96,11.24 1.1,3.13 2.3,6.17 3.5,9.21 1.01,2.58 1.93,5.07 3.04,7.55 1.2,3.04 2.49,6.08 3.77,9.03 1.02,2.3 1.94,4.51 3.04,6.72 1.48,3.32 2.95,6.54 4.61,9.86 2.67,5.71 5.52,11.42 8.57,17.04 1.47,2.85 3.03,5.71 4.69,8.56 1.75,3.32 3.68,6.64 5.62,9.86 13.36,22.75 28.55,44.3 45.41,64.57 2.39,2.85 4.79,5.71 7.27,8.56 2.77,3.13 5.53,6.36 8.48,9.49 4.79,5.16 9.58,10.22 14.55,15.11 5.34,5.34 10.78,10.5 16.3,15.56 5.62,4.97 11.24,9.95 17.05,14.74 2.85,2.39 5.8,4.7 8.75,7.09 5.89,4.6 11.88,9.12 18.05,13.54 6.08,4.33 12.25,8.56 18.6,12.71 6.36,4.05 12.71,8.01 19.25,11.79 3.23,1.93 6.54,3.78 9.86,5.62 3.31,1.84 6.63,3.59 9.94,5.34 3.41,1.75 6.73,3.5 10.14,5.16 3.4,1.66 6.81,3.31 10.31,4.97 6.82,3.13 13.82,6.17 20.91,9.03 3.32,1.38 6.72,2.76 10.13,4.05 l 0.92,0.37 c 3.41,1.29 6.91,2.49 10.32,3.78 3.41,1.1 6.81,2.3 10.22,3.5 3.87,1.19 7.74,2.48 11.7,3.59 3.68,1.1 7.37,2.12 11.05,3.13 3.78,1.01 7.46,2.03 11.24,2.95 3.78,0.92 7.55,1.84 11.33,2.67 7.64,1.75 15.29,3.22 23.03,4.51 3.77,0.65 7.64,1.29 11.51,1.84 8.29,1.2 16.67,2.21 25.05,2.95 6.63,0.65 13.36,1.11 20.08,1.47 4.05,0.19 8.2,0.37 12.34,0.47 4.15,0.09 8.29,0.18 12.44,0.18 h 2654.95 c 4.15,0 8.3,-0.09 12.44,-0.18 3.41,-0.1 6.91,-0.19 10.31,-0.37 7.84,-0.37 15.57,-0.92 23.31,-1.66 h 0.27 c 3.97,-0.37 7.83,-0.83 11.7,-1.29 3.96,-0.46 7.83,-1.01 11.7,-1.57 3.87,-0.55 7.74,-1.19 11.61,-1.84 3.86,-0.64 7.64,-1.38 11.42,-2.12 h 0.18 c 3.78,-0.73 7.55,-1.56 11.33,-2.39 3.5,-0.74 6.91,-1.57 10.31,-2.3 l 2.22,-0.56 c 3.22,-0.83 6.44,-1.66 9.66,-2.58 4.52,-1.19 9.03,-2.48 13.46,-3.86 3.03,-0.93 6.07,-1.85 9.02,-2.86 6.72,-2.21 13.35,-4.51 19.99,-7 4.51,-1.57 8.93,-3.32 13.26,-5.16 3.22,-1.29 6.35,-2.67 9.58,-4.05 3.5,-1.47 6.91,-3.04 10.41,-4.7 3.41,-1.56 6.81,-3.22 10.22,-4.88 24.32,-11.88 47.35,-25.79 69.08,-41.54 2.67,-1.84 5.35,-3.78 7.92,-5.8 9.58,-7.19 18.79,-14.65 27.73,-22.48 3.96,-3.4 7.83,-6.91 11.6,-10.5 15.57,-14.46 30.12,-29.93 43.48,-46.23 2.48,-2.95 4.79,-5.81 7.09,-8.75 4.88,-6.17 9.48,-12.35 13.91,-18.61 2.3,-3.13 4.51,-6.36 6.63,-9.58 3.77,-5.43 7.37,-11.05 10.87,-16.67 1.75,-2.85 3.41,-5.71 5.15,-8.56 3.13,-5.44 6.27,-10.87 9.21,-16.49 1.48,-2.67 2.95,-5.34 4.24,-8.11 4.88,-9.3 9.3,-18.7 13.54,-28.37 1.02,-2.48 2.12,-4.97 3.13,-7.55 3.96,-9.58 7.65,-19.34 10.96,-29.2 1.29,-3.68 2.49,-7.27 3.6,-10.96 6.63,-21.18 11.78,-42.92 15.47,-65.12 0.37,-2.3 0.74,-4.69 1.1,-7.18 0.56,-3.87 1.11,-7.74 1.57,-11.61 0.46,-3.96 0.92,-7.82 1.29,-11.78 0.46,-3.97 0.74,-7.93 1.1,-11.89 0.47,-7.27 0.83,-14.55 1.02,-21.92 0.18,-4.7 0.27,-9.39 0.27,-14.09 z"
         id="path1206" />
    </clipPath>
    <linearGradient
       x1="0"
       y1="0"
       x2="1"
       y2="0"
       gradientUnits="userSpaceOnUse"
       gradientTransform="matrix(0,528.413,528.413,0,5000,8262.04)"
       spreadMethod="pad"
       id="linearGradient1216">
      <stop
         style="stop-opacity:1;stop-color:#000000"
         offset="0"
         id="stop1210" />
      <stop
         style="stop-opacity:1;stop-color:#808080"
         offset="0.98319716"
         id="stop1212" />
      <stop
         style="stop-opacity:1;stop-color:#808080"
         offset="1"
         id="stop1214" />
    </linearGradient>
    <clipPath
       clipPathUnits="userSpaceOnUse"
       id="clipPath1334">
      <path
         d="m 5182.99,8376.54 h -388.27 c -9.78,0 -17.71,7.93 -17.71,17.71 v 9.09 c 0,9.79 7.93,17.72 17.71,17.72 h 388.27 c 9.78,0 17.71,-7.93 17.71,-17.72 v -9.09 c 0,-9.78 -7.93,-17.71 -17.71,-17.71 z"
         id="path1332" />
    </clipPath>
    <linearGradient
       x1="0"
       y1="0"
       x2="1"
       y2="0"
       gradientUnits="userSpaceOnUse"
       gradientTransform="matrix(423.688,0,0,-423.688,4777.01,8398.8)"
       spreadMethod="pad"
       id="linearGradient1346">
      <stop
         style="stop-opacity:1;stop-color:#333333"
         offset="0"
         id="stop1336" />
      <stop
         style="stop-opacity:1;stop-color:#1a1a1a"
         offset="0.24803177"
         id="stop1338" />
      <stop
         style="stop-opacity:1;stop-color:#1a1a1a"
         offset="0.478741"
         id="stop1340" />
      <stop
         style="stop-opacity:1;stop-color:#1a1a1a"
         offset="0.89527253"
         id="stop1342" />
      <stop
         style="stop-opacity:1;stop-color:#333333"
         offset="1"
         id="stop1344" />
    </linearGradient>
    <clipPath
       clipPathUnits="userSpaceOnUse"
       id="clipPath1356">
      <path
         d="m 6345.09,8449.56 h -2.4 l -3.59,0.37 c -4.24,0.18 -8.1,0.18 -11.7,0.18 h -383.09 c -21.92,-1.1 -39.61,-18.05 -41.81,-39.7 -0.1,-1.47 -0.19,-2.95 -0.19,-4.51 v -0.56 c -5.25,-112.28 -97.92,-201.63 -211.4,-201.63 h -653.98 -74.06 -653.99 c -113.48,0 -206.14,89.35 -211.39,201.63 v 0.56 c 0,1.56 -0.1,3.04 -0.19,4.51 -2.21,21.65 -19.89,38.6 -41.82,39.7 h -383.09 c -3.59,0 -7.46,0 -11.69,-0.18 l -3.6,-0.37 h -2.39 c -139.46,-9.12 -248.33,-125.18 -248.33,-265.37 V 1815.72 c 0,-137.8 107.58,-254.32 244.83,-265.1 1.38,-0.09 2.49,-0.18 3.59,-0.27 h 0.92 l 0.74,-0.09 h 1.57 l 0.55,-0.09 c 4.6,-0.19 9.21,-0.38 13.81,-0.38 h 1290.48 74.06 1290.47 c 4.61,0 9.21,0.19 13.82,0.38 l 0.55,0.09 h 1.56 l 0.74,0.09 h 0.93 c 1.1,0.09 2.21,0.18 3.59,0.27 137.24,10.78 244.83,127.3 244.83,265.1 v 6368.47 c 0,140.19 -108.88,256.25 -248.33,265.37 z"
         id="path1354" />
    </clipPath>
    <linearGradient
       x1="0"
       y1="0"
       x2="1"
       y2="0"
       gradientUnits="userSpaceOnUse"
       gradientTransform="matrix(4887.61,-4887.61,-4887.61,-4887.61,2556.09,7444.08)"
       spreadMethod="pad"
       id="linearGradient1364">
      <stop
         style="stop-opacity:1;stop-color:#f2f3f4"
         offset="0"
         id="stop1358" />
      <stop
         style="stop-opacity:1;stop-color:#f2f3f4"
         offset="0.41952262"
         id="stop1360" />
      <stop
         style="stop-opacity:1;stop-color:#e2e2e2"
         offset="1"
         id="stop1362" />
    </linearGradient>
    <clipPath
       clipPathUnits="userSpaceOnUse"
       id="clipPath1083">
      <g
         id="g1089"
         transform="matrix(0.03527778,0,0,-0.03527778,444.93212,360.24116)">
        <g
           id="g1087"
           clip-path="url(#clipPath1356)">
          <path
             d="m 6345.09,8449.56 h -2.4 l -3.59,0.37 c -4.24,0.18 -8.1,0.18 -11.7,0.18 h -383.09 c -21.92,-1.1 -39.61,-18.05 -41.81,-39.7 -0.1,-1.47 -0.19,-2.95 -0.19,-4.51 v -0.56 c -5.25,-112.28 -97.92,-201.63 -211.4,-201.63 h -653.98 -74.06 -653.99 c -113.48,0 -206.14,89.35 -211.39,201.63 v 0.56 c 0,1.56 -0.1,3.04 -0.19,4.51 -2.21,21.65 -19.89,38.6 -41.82,39.7 h -383.09 c -3.59,0 -7.46,0 -11.69,-0.18 l -3.6,-0.37 h -2.39 c -139.46,-9.12 -248.33,-125.18 -248.33,-265.37 V 1815.72 c 0,-137.8 107.58,-254.32 244.83,-265.1 1.38,-0.09 2.49,-0.18 3.59,-0.27 h 0.92 l 0.74,-0.09 h 1.57 l 0.55,-0.09 c 4.6,-0.19 9.21,-0.38 13.81,-0.38 h 1290.48 74.06 1290.47 c 4.61,0 9.21,0.19 13.82,0.38 l 0.55,0.09 h 1.56 l 0.74,0.09 h 0.93 c 1.1,0.09 2.21,0.18 3.59,0.27 137.24,10.78 244.83,127.3 244.83,265.1 v 6368.47 c 0,140.19 -108.88,256.25 -248.33,265.37"
             style="fill:url(#linearGradient1091);fill-opacity:1;fill-rule:nonzero;stroke:none"
             id="path1085" />
        </g>
      </g>
    </clipPath>
    <linearGradient
       inkscape:collect="always"
       xlink:href="#linearGradient1364"
       id="linearGradient1091"
       gradientUnits="userSpaceOnUse"
       gradientTransform="matrix(4887.61,-4887.61,-4887.61,-4887.61,2556.09,7444.08)"
       x1="0"
       y1="0"
       x2="1"
       y2="0"
       spreadMethod="pad" />
    <linearGradient
       inkscape:collect="always"
       xlink:href="#linearGradient1364"
       id="linearGradient1093"
       gradientUnits="userSpaceOnUse"
       gradientTransform="matrix(4887.61,-4887.61,-4887.61,-4887.61,2556.09,7444.08)"
       x1="0"
       y1="0"
       x2="1"
       y2="0"
       spreadMethod="pad" />
    <linearGradient
       inkscape:collect="always"
       xlink:href="#linearGradient2432"
       id="linearGradient2387"
       x1="412.75"
       y1="146.83743"
       x2="510.64584"
       y2="146.84375"
       gradientUnits="userSpaceOnUse"
       gradientTransform="matrix(1.5454545,0,0,0.93031895,-617.44125,-97.280888)" />
    <linearGradient
       inkscape:collect="always"
       xlink:href="#linearGradient2432"
       id="linearGradient4391"
       gradientUnits="userSpaceOnUse"
       x1="412.75"
       y1="146.83743"
       x2="510.64584"
       y2="146.84375"
       gradientTransform="matrix(-1.5454545,0,0,0.93031895,887.31606,-97.280888)" />
    <filter
       inkscape:collect="always"
       style="color-interpolation-filters:sRGB"
       id="filter945"
       x="-0.026074174"
       y="-0.30170096"
       width="1.0521483"
       height="1.6034019">
      <feGaussianBlur
         inkscape:collect="always"
         stdDeviation="0.9400622"
         id="feGaussianBlur947" />
    </filter>
  </defs>
  <g
     inkscape:label="Calque 1"
     inkscape:groupmode="layer"
     id="layer1"
     transform="translate(-58.208329,-14.715948)">
    <ellipse
       style="opacity:0.6;fill:#939393;fill-opacity:1;stroke-width:0.600001;stroke-linecap:round;stroke-linejoin:round;filter:url(#filter945)"
       id="ellipse945"
       cx="22.488152"
       cy="243.11989"
       rx="43.264061"
       ry="3.739049"
       transform="matrix(0.24085127,0,0,0.15480256,163.97389,23.38715)" />
    <ellipse
       style="opacity:0.6;fill:#939393;fill-opacity:1;stroke-width:0.600001;stroke-linecap:round;stroke-linejoin:round;filter:url(#filter945)"
       id="path861"
       cx="22.488152"
       cy="243.11989"
       rx="43.264061"
       ry="3.739049"
       transform="matrix(0.29536474,0,0,0.18984006,114.84358,23.142033)" />
    <path
       style="opacity:0.6;fill:url(#linearGradient2387);fill-opacity:1;stroke:none;stroke-width:0.317255px;stroke-linecap:butt;stroke-linejoin:miter;stroke-opacity:1"
       d="m 58.208329,39.318768 23.57191,24.61469 V 50.395379 c 16.3561,-4.91107 32.712191,-6.1418 51.112721,-6.153674 v -9.845871 c -18.40053,0.01168 -34.756621,-1.21887 -51.112721,-6.153675 l 5.3e-5,-13.526211 z"
       id="path1621"
       sodipodi:nodetypes="cccccccc" />
    <path
       style="opacity:0.6;fill:url(#linearGradient4391);fill-opacity:1;stroke:none;stroke-width:0.317255px;stroke-linecap:butt;stroke-linejoin:miter;stroke-opacity:1"
       d="M 211.66666,39.318768 188.0947,63.933458 V 50.395379 c -16.35607,-4.91107 -32.71212,-6.1418 -51.11268,-6.153674 v -9.845871 c 18.40056,0.01168 34.75661,-1.21887 51.11268,-6.153675 V 14.715948 Z"
       id="path4389"
       sodipodi:nodetypes="cccccccc" />
    <g
       id="g8"
       inkscape:label="ink_ext_XXXXXX"
       transform="matrix(0.0765676,0,0,-0.0765676,78.686889,82.620804)">
      <path
         d="m 453.429,284.28 h 216.207 l 18.66,-102.253 H 433.821 l 19.608,102.253"
         style="fill:#f7f7f7;fill-opacity:1;fill-rule:nonzero;stroke:none;stroke-width:0.1"
         id="path38" />
      <path
         d="m 718.13011,183.03727 -2.835,0.506 h -310.587 l -2.836,-0.506 c -0.951,-0.17 -1.644,-0.997 -1.644,-1.964 v -6.169 c 0,-0.805 0.653,-1.457 1.458,-1.457 h 316.63 c 0.805,0 1.457,0.652 1.457,1.457 v 6.169 c 0,0.967 -0.692,1.794 -1.643,1.964"
         style="fill:#eeeeee;fill-opacity:1;fill-rule:nonzero;stroke:none;stroke-width:0.1"
         id="path426" />
      <path
         d="M 979.383,322.418 V 828.47 c 0,14.652 -10.956,26.53 -24.472,26.53 H 167.089 c -13.516,0 -24.472,-11.878 -24.472,-26.53 V 322.418 h 836.766"
         style="fill:#010101;fill-opacity:1;fill-rule:nonzero;stroke:none;stroke-width:0.1"
         id="path428" />
      <path
         d="m 142.617,363.223 v -52.714 c 0,-14.653 10.956,-26.53 24.472,-26.53 h 787.822 c 13.516,0 24.472,11.877 24.472,26.53 v 52.714 H 142.617"
         style="fill:url(#linearGradient588-1);fill-opacity:1;fill-rule:nonzero;stroke:none;stroke-width:0.1"
         id="path590" />
      <path
         d="M 941.986,398.184 H 177.623 V 817.177 H 941.986 V 398.184"
         style="fill:#ffffff;fill-opacity:1;fill-rule:nonzero;stroke:none;stroke-width:0.1"
         id="path594" />
      <path
         d="m 453.429,284.28 h 216.207 l 18.66,-102.253 H 433.821 l 19.608,102.253"
         style="fill:url(#linearGradient2368);fill-opacity:1;fill-rule:nonzero;stroke:none;stroke-width:0.1"
         id="path2360" />
    </g>
    <g
       id="g1110"
       transform="matrix(0.00590761,0,0,-0.00590761,139.78237,68.93431)">
      <g
         id="g1112"
         clip-path="url(#clipPath1116)">
        <path
           d="m 6330.14,1317.73 h -2655 c -140.72,0 -267.77,58.58 -358.08,152.68 -0.85,0.88 -1.7,1.78 -2.54,2.66 90.3,-94.03 217.31,-152.57 357.98,-152.57 h 2654.99 c 274,0 496.21,222.1 496.21,496.1 v 6368.21 c 0,131.84 -51.46,251.68 -135.38,340.53 0.84,-0.87 1.66,-1.74 2.49,-2.62 84.01,-88.86 135.53,-208.76 135.53,-340.69 v -6368.2 c 0,-274 -222.21,-496.1 -496.2,-496.1 m 173.56,99.77 0.69,0.41 0.4,0.09 -1.09,-0.5"
           style="fill:url(#linearGradient1124);fill-opacity:1;fill-rule:nonzero;stroke:none"
           id="path1126" />
      </g>
    </g>
    <g
       id="g1128"
       transform="matrix(0.00590761,0,0,-0.00590761,139.78237,68.93431)">
      <g
         id="g1130"
         clip-path="url(#clipPath1134)">
        <path
           d="M 6327.49,1320.5 H 3672.5 c -140.67,0 -267.68,58.54 -357.98,152.57 -85.61,89.15 -138.23,210.19 -138.23,343.53 v 6368.21 c 0,273.99 222.21,496.1 496.21,496.1 h 2654.99 c 142.15,0 270.36,-59.78 360.83,-155.57 83.92,-88.85 135.38,-208.69 135.38,-340.53 V 1816.6 c 0,-274 -222.21,-496.1 -496.21,-496.1 m 177.3,97.5 -0.4,-0.09 -0.69,-0.41 1.09,0.5"
           style="fill:url(#linearGradient1142);fill-opacity:1;fill-rule:nonzero;stroke:none"
           id="path1144" />
      </g>
    </g>
    <path
       d="m 180.01249,57.93623 c 0,0.305246 -0.0484,0.599622 -0.13765,0.875508 -0.006,0.02121 -0.0136,0.04248 -0.0212,0.06309 -0.007,0.02127 -0.0147,0.04194 -0.0228,0.06262 -0.006,0.01577 -0.0114,0.03154 -0.0179,0.04678 -0.0185,0.0462 -0.0381,0.09192 -0.0588,0.137114 -0.009,0.02009 -0.0185,0.04023 -0.0283,0.05985 -0.0136,0.02771 -0.0271,0.05494 -0.0419,0.08217 -0.009,0.01849 -0.019,0.03645 -0.0294,0.05441 -0.0104,0.01902 -0.0213,0.03811 -0.0327,0.05713 -0.0305,0.05222 -0.0631,0.103914 -0.0974,0.154542 -0.0109,0.01577 -0.0218,0.03208 -0.0332,0.04785 -0.0125,0.01796 -0.0251,0.03539 -0.0387,0.05281 -0.0125,0.01736 -0.0256,0.03479 -0.0392,0.05222 -0.0131,0.01743 -0.0267,0.03426 -0.0408,0.05116 -0.0136,0.01684 -0.0277,0.03373 -0.0425,0.05057 -0.0277,0.0332 -0.0571,0.06587 -0.087,0.09742 -0.0457,0.04897 -0.093,0.09629 -0.14261,0.14255 -0.0146,0.01358 -0.0294,0.02724 -0.0446,0.04029 -0.0343,0.03049 -0.0691,0.05985 -0.10444,0.08921 -0.0153,0.01199 -0.031,0.02452 -0.0468,0.03645 -0.0517,0.04029 -0.10503,0.0784 -0.15944,0.114844 -0.0179,0.01252 -0.0364,0.02446 -0.0549,0.03592 -0.037,0.02392 -0.0746,0.04626 -0.11266,0.06799 -0.019,0.0114 -0.0376,0.0218 -0.0566,0.03154 -0.0615,0.03379 -0.12406,0.06534 -0.18828,0.09364 -0.0169,0.0082 -0.0337,0.01524 -0.0505,0.02227 -0.0202,0.0093 -0.0403,0.01743 -0.0609,0.02558 -0.0207,0.0082 -0.0413,0.01636 -0.062,0.02398 -0.0462,0.01737 -0.0931,0.03367 -0.14036,0.04838 -0.0163,0.0055 -0.0332,0.01033 -0.0501,0.01524 -0.0621,0.01849 -0.12572,0.03486 -0.18993,0.04897 -0.0223,0.0049 -0.0446,0.0098 -0.0675,0.01418 -0.0234,0.0049 -0.0474,0.0092 -0.0719,0.01306 -0.0441,0.0076 -0.0887,0.01412 -0.13386,0.01955 h -0.001 c -0.009,10e-4 -0.0174,0.0022 -0.0261,0.0027 -0.006,0.0012 -0.0125,0.0017 -0.0185,0.0017 l -0.008,5.02e-4 c 0.0403,-0.0044 0.08,-0.0098 0.1197,-0.01636 0.0196,-0.0032 0.0392,-0.0065 0.0593,-0.01028 0.0196,-0.0033 0.0392,-0.0076 0.0582,-0.01145 0.0588,-0.01194 0.11644,-0.02664 0.17357,-0.04242 0.0191,-0.0049 0.0381,-0.01093 0.0566,-0.0169 0.0376,-0.01141 0.0745,-0.02393 0.11153,-0.03698 0.0555,-0.02014 0.10994,-0.04189 0.16329,-0.06534 0.0179,-0.0071 0.0359,-0.01519 0.0533,-0.02392 0.0174,-0.0082 0.0349,-0.01684 0.0523,-0.02499 0.0348,-0.01743 0.0691,-0.03538 0.10339,-0.05388 0.0337,-0.01908 0.0668,-0.03811 0.10007,-0.05825 0.03,-0.01849 0.0593,-0.03751 0.0887,-0.05659 l 0.009,-0.006 c 0.0479,-0.03261 0.0946,-0.0664 0.14037,-0.101728 0.0153,-0.01145 0.0305,-0.02339 0.0452,-0.03592 0.0424,-0.03426 0.0838,-0.07018 0.12407,-0.107223 0.099,-0.09192 0.19152,-0.190992 0.27475,-0.297093 0.012,-0.01466 0.0239,-0.03049 0.0354,-0.04567 0.1208,-0.160039 0.2236,-0.334134 0.30471,-0.519103 0.013,-0.02942 0.0255,-0.05984 0.0369,-0.08979 0.0577,-0.146391 0.10285,-0.29928 0.13275,-0.457605 0.006,-0.03102 0.0114,-0.06256 0.0163,-0.09411 0.019,-0.127368 0.0294,-0.257396 0.0294,-0.39014 V 20.5879 c 0,-1.329271 -1.0115,-2.426787 -2.30491,-2.563902 -0.0228,-0.0022 -0.0462,-0.0044 -0.0691,-0.006 -0.0234,-0.0016 -0.0473,-0.0032 -0.0707,-0.0043 h -4.9e-4 c -0.0441,-0.0022 -0.0876,-0.0033 -0.13228,-0.0033 h -15.68441 c -0.0446,0 -0.0887,0.0011 -0.13221,0.0033 h -10e-4 c -1.35975,0.07018 -2.44422,1.198181 -2.44422,2.574241 v 37.620437 c 0,1.323659 1.00259,2.417158 2.28814,2.561777 -0.0174,-0.0018 -0.035,-0.0029 -0.0523,-0.005 h -0.001 c -0.0452,-0.0055 -0.0898,-0.01194 -0.13388,-0.01955 -0.26879,-0.04573 -0.52506,-0.128964 -0.7629,-0.244338 -0.0169,-0.0082 -0.0331,-0.01631 -0.05,-0.02452 -0.0424,-0.02227 -0.0844,-0.0446 -0.12571,-0.06853 -0.019,-0.01087 -0.0375,-0.02174 -0.056,-0.0332 -0.0936,-0.05659 -0.1839,-0.118625 -0.26991,-0.185557 -0.0158,-0.01194 -0.031,-0.02393 -0.0462,-0.03645 -0.0457,-0.03698 -0.0903,-0.07509 -0.13327,-0.114252 -0.0142,-0.01306 -0.0283,-0.02611 -0.0419,-0.0397 -0.0163,-0.01524 -0.0321,-0.03049 -0.0479,-0.04626 -0.0153,-0.01577 -0.031,-0.03154 -0.0462,-0.04732 -0.0103,-0.0104 -0.0201,-0.02073 -0.0299,-0.0316 -0.0125,-0.01358 -0.0251,-0.02723 -0.037,-0.04082 -0.0729,-0.08159 -0.14089,-0.16701 -0.20404,-0.256273 -0.0114,-0.01577 -0.0223,-0.03208 -0.0332,-0.04785 -0.0343,-0.0501 -0.0663,-0.101256 -0.0968,-0.15348 -0.0115,-0.0185 -0.0223,-0.03751 -0.0327,-0.05659 -0.0789,-0.141486 -0.14579,-0.290005 -0.19967,-0.444016 -0.008,-0.02121 -0.0147,-0.04189 -0.0212,-0.06309 -0.0343,-0.106633 -0.0626,-0.215511 -0.0844,-0.326515 -0.004,-0.02227 -0.009,-0.0446 -0.0125,-0.06687 -0.0266,-0.156728 -0.0408,-0.31777 -0.0408,-0.48212 V 20.5879 c 0,-0.0283 5e-4,-0.05606 0.001,-0.08377 0,-0.02127 10e-4,-0.04189 0.002,-0.06262 0.002,-0.04567 0.006,-0.09086 0.0103,-0.135993 0.002,-0.02339 0.005,-0.04678 0.008,-0.06965 0.001,-0.01252 0.004,-0.02452 0.005,-0.03698 0.001,-0.01471 0.004,-0.02942 0.006,-0.04466 0.004,-0.02339 0.007,-0.04679 0.0114,-0.07018 0.007,-0.04082 0.0153,-0.08105 0.0245,-0.120811 0.004,-0.02014 0.009,-0.0397 0.0142,-0.05931 0.0141,-0.05931 0.0305,-0.11697 0.049,-0.174628 0.006,-0.01796 0.012,-0.03645 0.0179,-0.05441 0.008,-0.02233 0.0153,-0.04466 0.0234,-0.0664 0.006,-0.01849 0.0136,-0.03645 0.0207,-0.05441 0.006,-0.01524 0.0114,-0.02995 0.0179,-0.0446 0.007,-0.01796 0.0147,-0.03592 0.0222,-0.05335 0.006,-0.01359 0.0115,-0.02664 0.0179,-0.0397 0.009,-0.01961 0.0174,-0.03863 0.0272,-0.05825 0.0158,-0.03374 0.0326,-0.06746 0.0506,-0.100667 0.009,-0.01684 0.0179,-0.03373 0.0277,-0.05057 0.0103,-0.01961 0.0217,-0.03923 0.0332,-0.05825 0.0789,-0.134398 0.16866,-0.261707 0.26827,-0.381454 0.0141,-0.01684 0.0283,-0.03374 0.0429,-0.05057 0.0163,-0.01849 0.0327,-0.03757 0.0501,-0.05606 0.0283,-0.03049 0.0566,-0.06038 0.086,-0.08926 0.0315,-0.03155 0.0637,-0.06203 0.0963,-0.09192 0.0332,-0.02936 0.0664,-0.05878 0.10072,-0.08708 0.0169,-0.01412 0.0343,-0.02776 0.0517,-0.04189 0.0348,-0.02717 0.0702,-0.05388 0.10664,-0.07999 0.0359,-0.02558 0.0724,-0.05057 0.10988,-0.07509 0.0376,-0.02393 0.0751,-0.04732 0.11372,-0.06965 0.0191,-0.0114 0.0386,-0.02233 0.0583,-0.0332 0.0196,-0.01087 0.0392,-0.02121 0.0587,-0.03155 0.0202,-0.01034 0.0397,-0.02068 0.0599,-0.03048 0.0201,-0.0098 0.0403,-0.01956 0.0609,-0.02936 0.0403,-0.01849 0.0816,-0.03645 0.12353,-0.05335 0.0196,-0.0082 0.0397,-0.01631 0.0599,-0.02393 l 0.006,-0.0022 c 0.0202,-0.0076 0.0408,-0.01471 0.0609,-0.02233 0.0202,-0.0065 0.0403,-0.01359 0.0603,-0.02068 0.0228,-0.007 0.0457,-0.01465 0.0691,-0.02121 0.0217,-0.0065 0.0436,-0.01252 0.0652,-0.01849 0.0223,-0.006 0.0441,-0.01199 0.0664,-0.01743 0.0223,-0.0054 0.0446,-0.01087 0.0669,-0.01577 0.0452,-0.01034 0.0903,-0.01902 0.13605,-0.02664 0.0223,-0.0038 0.0452,-0.0076 0.068,-0.01087 0.049,-0.0071 0.0985,-0.01306 0.14799,-0.01743 0.0392,-0.0038 0.0789,-0.0066 0.11862,-0.0087 0.0239,-0.0011 0.0485,-0.0022 0.0729,-0.0028 0.0245,-5.87e-4 0.049,-0.0011 0.0735,-0.0011 h 15.68441 c 0.0245,0 0.049,5.87e-4 0.0735,0.0011 0.0202,5.86e-4 0.0408,0.0011 0.0609,0.0022 0.0463,0.0022 0.092,0.0054 0.1377,0.0098 h 0.001 c 0.0235,0.0022 0.0462,0.0049 0.0691,0.0076 0.0234,0.0027 0.0462,0.006 0.0691,0.0093 0.0228,0.0032 0.0457,0.007 0.0686,0.01087 0.0228,0.0038 0.0452,0.0082 0.0675,0.01252 h 7.2e-4 c 0.0223,0.0043 0.0446,0.0092 0.0669,0.01412 0.0207,0.0044 0.0408,0.0093 0.0609,0.01359 l 0.0131,0.0033 c 0.019,0.0049 0.038,0.0098 0.057,0.01524 0.0267,0.007 0.0534,0.01465 0.0795,0.0228 0.0179,0.0055 0.0359,0.01093 0.0533,0.0169 0.0397,0.01306 0.0789,0.02664 0.1181,0.04135 0.0266,0.0093 0.0528,0.01961 0.0783,0.03048 0.019,0.0076 0.0375,0.01577 0.0566,0.02393 0.0207,0.0087 0.0408,0.01796 0.0615,0.02777 0.0202,0.0092 0.0403,0.01902 0.0603,0.02883 0.14368,0.07018 0.27973,0.152357 0.4081,0.245402 0.0158,0.01087 0.0316,0.02233 0.0468,0.03426 0.0566,0.04248 0.11101,0.08655 0.16382,0.132804 0.0234,0.02009 0.0462,0.04082 0.0686,0.06203 0.092,0.08542 0.17794,0.176814 0.25686,0.273108 0.0146,0.01743 0.0283,0.03433 0.0419,0.05169 0.0288,0.03645 0.056,0.07296 0.0822,0.109941 0.0136,0.01849 0.0266,0.03757 0.0392,0.05659 0.0223,0.03208 0.0435,0.06528 0.0642,0.09848 0.0104,0.01684 0.0202,0.03374 0.0304,0.05057 0.0185,0.03214 0.037,0.06421 0.0544,0.09742 0.009,0.01577 0.0174,0.03154 0.0251,0.04791 0.0288,0.05495 0.055,0.110472 0.08,0.167599 0.006,0.01465 0.0125,0.02936 0.0185,0.0446 0.0234,0.05659 0.0452,0.114254 0.0648,0.172503 0.008,0.02174 0.0147,0.04294 0.0212,0.06475 0.0392,0.125123 0.0696,0.253554 0.0914,0.384704 0.002,0.01359 0.004,0.02771 0.006,0.04241 0.004,0.02287 0.006,0.04573 0.009,0.06858 0.003,0.02339 0.006,0.0462 0.008,0.06959 0.003,0.02345 0.004,0.04685 0.006,0.07024 0.003,0.04295 0.005,0.08596 0.006,0.129494 7.2e-4,0.02776 0.001,0.05547 0.001,0.08324 z m -2.8496,-40.279508 h -15.68494 c -1.6188,0 -2.93124,1.312434 -2.93124,2.931178 v 37.620434 c 0,1.618745 1.31244,2.93118 2.93124,2.93118 h 15.68494 c 1.61881,0 2.93124,-1.312435 2.93124,-2.93118 V 20.5879 c 0,-1.618744 -1.31243,-2.931178 -2.93124,-2.931178"
       style="fill:#00000c;fill-opacity:1;fill-rule:nonzero;stroke:none;stroke-width:0.00590762"
       id="path1146" />
    <g
       id="g1148"
       transform="matrix(0.00590761,0,0,-0.00590761,139.78237,68.93431)">
      <g
         id="g1150"
         clip-path="url(#clipPath1154)">
        <path
           d="m 3626.24,1381.62 c -3.87,0.37 -7.74,0.74 -11.61,1.2 h -0.27 c -7.65,0.92 -15.2,2.02 -22.66,3.31 -45.5,7.74 -88.88,21.83 -129.14,41.36 -2.85,1.38 -5.61,2.76 -8.47,4.15 -7.18,3.77 -14.28,7.55 -21.28,11.6 -3.22,1.84 -6.35,3.68 -9.48,5.62 -15.84,9.58 -31.13,20.08 -45.69,31.41 -2.67,2.02 -5.25,4.05 -7.83,6.17 -7.73,6.26 -15.28,12.71 -22.56,19.34 -2.4,2.21 -4.79,4.42 -7.09,6.72 -2.77,2.58 -5.44,5.16 -8.11,7.83 -2.58,2.67 -5.25,5.34 -7.83,8.01 -1.75,1.76 -3.4,3.51 -5.06,5.35 -2.12,2.3 -4.24,4.61 -6.27,6.91 -12.34,13.81 -23.85,28.27 -34.54,43.38 -1.93,2.67 -3.77,5.43 -5.62,8.1 -5.8,8.48 -11.23,17.14 -16.39,25.98 -1.94,3.13 -3.78,6.35 -5.53,9.58 -13.35,23.95 -24.68,49.09 -33.8,75.16 -1.29,3.59 -2.49,7.09 -3.59,10.68 -5.8,18.05 -10.59,36.48 -14.28,55.27 -0.74,3.77 -1.47,7.55 -2.12,11.32 -4.51,26.53 -6.9,53.79 -6.9,81.61 V 8137.7 c 0,258.35 204.29,469.92 459.79,481.8 -230.17,-11.88 -413.74,-202.82 -413.74,-435.75 V 1815.62 c 0,-225.01 171.13,-410.79 390.07,-434"
           style="fill:url(#linearGradient1162);fill-opacity:1;fill-rule:nonzero;stroke:none"
           id="path1164" />
      </g>
    </g>
    <g
       id="g1166"
       transform="matrix(0.00590761,0,0,-0.00590761,139.78237,68.93431)">
      <g
         id="g1168"
         clip-path="url(#clipPath1172)">
        <path
           d="M 6809.88,8137.7 V 1861.68 c 0,-51.67 -8.19,-101.5 -23.3,-148.2 -1.1,-3.59 -2.3,-7.19 -3.59,-10.68 -1.2,-3.6 -2.49,-7.1 -3.87,-10.6 -0.92,-2.67 -1.93,-5.34 -3.04,-7.92 -3.13,-7.82 -6.45,-15.56 -9.95,-23.21 -1.56,-3.4 -3.13,-6.81 -4.79,-10.13 -2.3,-4.69 -4.6,-9.3 -7.09,-13.91 -1.56,-3.13 -3.22,-6.17 -4.97,-9.21 -1.75,-3.22 -3.59,-6.45 -5.53,-9.67 -5.16,-8.84 -10.68,-17.59 -16.48,-26.16 -1.85,-2.67 -3.69,-5.43 -5.62,-8.1 -2.12,-3.04 -4.33,-5.99 -6.54,-8.94 -2.12,-3.04 -4.42,-5.99 -6.63,-8.84 -2.31,-2.95 -4.61,-5.8 -6.91,-8.66 -2.3,-2.85 -4.7,-5.71 -7.19,-8.56 -4.79,-5.62 -9.67,-11.15 -14.73,-16.49 -7.74,-8.29 -15.75,-16.3 -24.14,-24.13 -2.48,-2.21 -4.97,-4.52 -7.55,-6.82 -5.8,-5.16 -11.7,-10.13 -17.68,-15.1 -2.58,-2.03 -5.25,-4.06 -7.92,-6.17 -8.75,-6.82 -17.78,-13.27 -26.99,-19.44 -3.04,-2.02 -6.17,-4.05 -9.3,-6.08 -6.27,-4.05 -12.62,-7.83 -19.07,-11.51 -3.13,-1.84 -6.36,-3.69 -9.58,-5.34 -10.41,-5.72 -21,-11.06 -31.87,-15.85 -2.85,-1.38 -5.71,-2.58 -8.56,-3.77 -3.41,-1.57 -6.82,-2.95 -10.32,-4.33 -3.5,-1.38 -7,-2.77 -10.5,-4.06 -7.83,-2.94 -15.75,-5.7 -23.76,-8.19 -2.86,-0.92 -5.62,-1.75 -8.47,-2.58 -10.51,-3.13 -21.28,-5.9 -32.15,-8.29 -3.78,-0.83 -7.55,-1.66 -11.42,-2.4 -3.96,-0.83 -8.02,-1.56 -12.16,-2.21 -7.55,-1.29 -15.1,-2.39 -22.66,-3.31 h -0.28 c -3.86,-0.46 -7.73,-0.83 -11.6,-1.2 218.94,23.21 390.16,208.99 390.16,434 v 6368.13 c 0,228.97 -177.3,417.33 -401.86,435.02 249.98,-17.69 447.91,-226.68 447.91,-481.07"
           style="fill:url(#linearGradient1180);fill-opacity:1;fill-rule:nonzero;stroke:none"
           id="path1182" />
      </g>
    </g>
    <g
       id="g1184"
       transform="matrix(0.00590761,0,0,-0.00590761,139.78237,68.93431)">
      <g
         id="g1186"
         clip-path="url(#clipPath1190)">
        <path
           d="m 6809.88,1861.68 v -46.06 c 0,-266 -216.35,-482.35 -482.36,-482.35 H 3672.57 c -266.01,0 -482.45,216.35 -482.45,482.35 v 46.06 c 0,-27.82 2.39,-55.08 6.9,-81.61 0.65,-3.77 1.38,-7.55 2.12,-11.32 3.69,-18.79 8.48,-37.22 14.28,-55.27 1.1,-3.59 2.3,-7.09 3.59,-10.68 9.12,-26.07 20.45,-51.21 33.8,-75.16 1.75,-3.23 3.59,-6.45 5.53,-9.58 5.16,-8.84 10.59,-17.5 16.39,-25.98 1.85,-2.67 3.69,-5.43 5.62,-8.1 10.69,-15.11 22.2,-29.57 34.54,-43.38 2.03,-2.3 4.15,-4.61 6.27,-6.91 1.66,-1.84 3.31,-3.59 5.06,-5.35 2.58,-2.67 5.25,-5.34 7.83,-8.01 2.67,-2.67 5.34,-5.25 8.11,-7.83 2.3,-2.3 4.69,-4.51 7.09,-6.72 7.28,-6.63 14.83,-13.08 22.56,-19.34 2.58,-2.12 5.16,-4.15 7.83,-6.17 14.56,-11.33 29.85,-21.83 45.69,-31.41 3.13,-1.94 6.26,-3.78 9.48,-5.62 7,-4.05 14.1,-7.83 21.28,-11.6 2.86,-1.39 5.62,-2.77 8.47,-4.15 40.26,-19.53 83.64,-33.62 129.14,-41.36 7.46,-1.29 15.01,-2.39 22.66,-3.31 h 0.27 c 7.74,-0.92 15.48,-1.66 23.3,-2.21 3.96,-0.28 8.02,-0.55 11.98,-0.74 7.46,-0.37 15.01,-0.55 22.66,-0.55 h 2654.95 c 7.56,0 15.02,0.18 22.48,0.55 3.96,0.19 8.01,0.46 11.97,0.74 6.36,0.46 12.62,1.01 18.88,1.75 1.48,0.09 2.95,0.28 4.42,0.46 h 0.28 c 7.65,0.92 15.2,2.02 22.66,3.31 4.14,0.65 8.2,1.38 12.16,2.21 3.87,0.74 7.64,1.57 11.42,2.4 10.87,2.39 21.64,5.16 32.15,8.29 2.85,0.83 5.7,1.66 8.47,2.58 8.01,2.49 15.93,5.25 23.76,8.19 3.5,1.29 7,2.68 10.5,4.06 3.5,1.38 6.91,2.76 10.32,4.33 2.85,1.19 5.71,2.39 8.56,3.77 10.87,4.79 21.46,10.13 31.87,15.85 3.22,1.65 6.36,3.41 9.58,5.34 6.45,3.68 12.8,7.46 19.07,11.51 3.13,1.94 6.26,3.96 9.3,6.08 9.21,6.17 18.24,12.62 26.99,19.44 2.67,2.02 5.34,4.14 7.92,6.17 5.98,4.97 11.88,9.94 17.68,15.1 2.58,2.21 5.07,4.52 7.55,6.82 8.39,7.83 16.4,15.84 24.14,24.13 5.06,5.34 10.04,10.87 14.73,16.49 2.49,2.85 4.89,5.71 7.19,8.56 2.39,2.86 4.69,5.71 6.91,8.66 2.3,2.95 4.51,5.9 6.63,8.84 2.3,2.95 4.42,5.9 6.54,8.94 1.93,2.67 3.77,5.43 5.62,8.1 5.8,8.57 11.32,17.32 16.48,26.16 1.94,3.22 3.78,6.45 5.53,9.67 1.75,3.04 3.41,6.08 4.97,9.21 2.49,4.61 4.79,9.22 7.09,13.91 1.66,3.32 3.32,6.73 4.79,10.13 3.5,7.65 6.82,15.39 9.95,23.21 1.11,2.58 2.12,5.25 3.04,7.92 1.38,3.5 2.67,7 3.87,10.6 1.29,3.49 2.49,7.09 3.59,10.68 15.11,46.7 23.3,96.53 23.3,148.2"
           style="fill:url(#linearGradient1198);fill-opacity:1;fill-rule:nonzero;stroke:none"
           id="path1200" />
      </g>
    </g>
    <g
       id="g1202"
       transform="matrix(0.00590761,0,0,-0.00590761,139.78237,68.93431)">
      <g
         id="g1204"
         clip-path="url(#clipPath1208)">
        <path
           d="m 6809.88,8183.75 v -46.05 c 0,250.43 -191.76,456.84 -436.21,480.05 -3.87,0.37 -7.83,0.74 -11.7,1.02 -3.96,0.27 -8.01,0.55 -11.97,0.73 h -0.09 c -7.46,0.37 -14.83,0.56 -22.39,0.56 H 3672.57 c -7.56,0 -15.02,-0.19 -22.38,-0.56 h -0.28 c -255.5,-11.88 -459.79,-223.45 -459.79,-481.8 v 46.05 c 0,4.79 0.09,9.49 0.27,14.18 0,3.6 0.19,7.09 0.37,10.6 0.37,7.73 0.92,15.38 1.75,23.02 0.37,3.96 0.83,7.92 1.29,11.79 0.28,2.12 0.55,4.15 0.83,6.26 0.28,2.49 0.64,4.98 1.1,7.56 0.56,3.96 1.2,7.92 1.94,11.88 1.2,6.91 2.58,13.72 4.14,20.45 0.74,3.41 1.57,6.72 2.4,10.04 2.39,10.04 5.16,19.8 8.29,29.56 1.01,3.04 2.02,6.17 3.04,9.21 1.29,3.78 2.58,7.56 3.96,11.24 1.1,3.13 2.3,6.17 3.5,9.21 1.01,2.58 1.93,5.07 3.04,7.55 1.2,3.04 2.49,6.08 3.77,9.03 1.02,2.3 1.94,4.51 3.04,6.72 1.48,3.32 2.95,6.54 4.61,9.86 2.67,5.71 5.52,11.42 8.57,17.04 1.47,2.85 3.03,5.71 4.69,8.56 1.75,3.32 3.68,6.64 5.62,9.86 13.36,22.75 28.55,44.3 45.41,64.57 2.39,2.85 4.79,5.71 7.27,8.56 2.77,3.13 5.53,6.36 8.48,9.49 4.79,5.16 9.58,10.22 14.55,15.11 5.34,5.34 10.78,10.5 16.3,15.56 5.62,4.97 11.24,9.95 17.05,14.74 2.85,2.39 5.8,4.7 8.75,7.09 5.89,4.6 11.88,9.12 18.05,13.54 6.08,4.33 12.25,8.56 18.6,12.71 6.36,4.05 12.71,8.01 19.25,11.79 3.23,1.93 6.54,3.78 9.86,5.62 3.31,1.84 6.63,3.59 9.94,5.34 3.41,1.75 6.73,3.5 10.14,5.16 3.4,1.66 6.81,3.31 10.31,4.97 6.82,3.13 13.82,6.17 20.91,9.03 3.32,1.38 6.72,2.76 10.13,4.05 l 0.92,0.37 c 3.41,1.29 6.91,2.49 10.32,3.78 3.41,1.1 6.81,2.3 10.22,3.5 3.87,1.19 7.74,2.48 11.7,3.59 3.68,1.1 7.37,2.12 11.05,3.13 3.78,1.01 7.46,2.03 11.24,2.95 3.78,0.92 7.55,1.84 11.33,2.67 7.64,1.75 15.29,3.22 23.03,4.51 3.77,0.65 7.64,1.29 11.51,1.84 8.29,1.2 16.67,2.21 25.05,2.95 6.63,0.65 13.36,1.11 20.08,1.47 4.05,0.19 8.2,0.37 12.34,0.47 4.15,0.09 8.29,0.18 12.44,0.18 h 2654.95 c 4.15,0 8.3,-0.09 12.44,-0.18 3.41,-0.1 6.91,-0.19 10.31,-0.37 7.84,-0.37 15.57,-0.92 23.31,-1.66 h 0.27 c 3.97,-0.37 7.83,-0.83 11.7,-1.29 3.96,-0.46 7.83,-1.01 11.7,-1.57 3.87,-0.55 7.74,-1.19 11.61,-1.84 3.86,-0.64 7.64,-1.38 11.42,-2.12 h 0.18 c 3.78,-0.73 7.55,-1.56 11.33,-2.39 3.5,-0.74 6.91,-1.57 10.31,-2.3 l 2.22,-0.56 c 3.22,-0.83 6.44,-1.66 9.66,-2.58 4.52,-1.19 9.03,-2.48 13.46,-3.86 3.03,-0.93 6.07,-1.85 9.02,-2.86 6.72,-2.21 13.35,-4.51 19.99,-7 4.51,-1.57 8.93,-3.32 13.26,-5.16 3.22,-1.29 6.35,-2.67 9.58,-4.05 3.5,-1.47 6.91,-3.04 10.41,-4.7 3.41,-1.56 6.81,-3.22 10.22,-4.88 24.32,-11.88 47.35,-25.79 69.08,-41.54 2.67,-1.84 5.35,-3.78 7.92,-5.8 9.58,-7.19 18.79,-14.65 27.73,-22.48 3.96,-3.4 7.83,-6.91 11.6,-10.5 15.57,-14.46 30.12,-29.93 43.48,-46.23 2.48,-2.95 4.79,-5.81 7.09,-8.75 4.88,-6.17 9.48,-12.35 13.91,-18.61 2.3,-3.13 4.51,-6.36 6.63,-9.58 3.77,-5.43 7.37,-11.05 10.87,-16.67 1.75,-2.85 3.41,-5.71 5.15,-8.56 3.13,-5.44 6.27,-10.87 9.21,-16.49 1.48,-2.67 2.95,-5.34 4.24,-8.11 4.88,-9.3 9.3,-18.7 13.54,-28.37 1.02,-2.48 2.12,-4.97 3.13,-7.55 3.96,-9.58 7.65,-19.34 10.96,-29.2 1.29,-3.68 2.49,-7.27 3.6,-10.96 6.63,-21.18 11.78,-42.92 15.47,-65.12 0.37,-2.3 0.74,-4.69 1.1,-7.18 0.56,-3.87 1.11,-7.74 1.57,-11.61 0.46,-3.96 0.92,-7.82 1.29,-11.78 0.46,-3.97 0.74,-7.93 1.1,-11.89 0.47,-7.27 0.83,-14.55 1.02,-21.92 0.18,-4.7 0.27,-9.39 0.27,-14.09"
           style="fill:url(#linearGradient1216);fill-opacity:1;fill-rule:nonzero;stroke:none"
           id="path1218" />
      </g>
    </g>
    <path
       d="m 179.52281,58.208334 c 0,1.223171 -0.95497,2.257003 -2.17164,2.352765 -0.0217,0.0017 -0.0441,0.0032 -0.0663,0.0038 -0.0403,0.0022 -0.0811,0.0032 -0.12193,0.0032 h -15.68441 c -0.0413,0 -0.0828,-0.0012 -0.12352,-0.0032 -0.0218,-6.7e-4 -0.0441,-0.0022 -0.0642,-0.0038 -1.21826,-0.09576 -2.17269,-1.129594 -2.17269,-2.352765 V 20.5879 c 0,-1.254776 0.97995,-2.289139 2.23254,-2.356604 h 0.001 l 0.006,-5.86e-4 c 0.0397,-0.0017 0.0805,-0.0027 0.12134,-0.0027 h 15.68441 c 0.0408,0 0.0817,0.0011 0.1214,0.0027 l 0.004,5.86e-4 c 1.25366,0.06581 2.23473,1.100765 2.23473,2.356604 z M 177.2957,18.013659 h -5.1e-4 c -0.0436,-0.0022 -0.0876,-0.0033 -0.13227,-0.0033 h -15.68441 c -0.0447,0 -0.0887,0.0011 -0.13221,0.0033 h -0.001 c -1.35975,0.07018 -2.44421,1.198182 -2.44421,2.574241 v 37.620434 c 0,1.352667 1.04688,2.465424 2.37344,2.56987 0.0234,0.0017 0.0474,0.0032 0.0708,0.0044 0.0441,0.0022 0.0887,0.0032 0.13387,0.0032 h 15.68441 c 0.0447,0 0.0887,-10e-4 0.1328,-0.0032 0.0234,-0.0012 0.0473,-0.0027 0.0707,-0.0044 1.32661,-0.104446 2.37403,-1.217203 2.37403,-2.56987 V 20.5879 c 0,-1.37665 -1.08499,-2.50459 -2.44475,-2.574241"
       style="fill:#000000;fill-opacity:1;fill-rule:nonzero;stroke:none;stroke-width:0.00590762"
       id="path1220" />
    <path
       d="m 178.73379,58.208334 c 0,0.814483 -0.63448,1.502483 -1.44435,1.566227 -0.007,5.02e-4 -0.0154,0.0014 -0.023,0.0017 l -0.005,1.19e-4 -0.005,1.68e-4 -0.006,1.67e-4 -0.004,1.68e-4 -0.004,1.67e-4 c -0.0263,0.0014 -0.053,0.0022 -0.0793,0.0022 h -15.68432 c -0.0271,0 -0.0545,-6.69e-4 -0.0816,-0.0022 l -0.003,-1.67e-4 -0.003,-1.19e-4 -0.006,-3.36e-4 -0.004,-1.67e-4 -0.005,-1.19e-4 c -0.006,-1.68e-4 -0.0135,-10e-4 -0.0215,-0.0015 -0.811,-0.06375 -1.44631,-0.751744 -1.44631,-1.566286 v -37.6204 c 0,-0.827715 0.6431,-1.51347 1.46698,-1.567643 h 0.014 l 0.0212,-0.0019 c 0.0252,-8.64e-4 0.0479,-0.0013 0.0691,-0.0013 h 15.68446 c 0.0213,0 0.0444,5.86e-4 0.0707,0.0014 l 0.006,5.86e-4 0.008,5.86e-4 c 0.83392,0.04377 1.48712,0.732839 1.48712,1.568707 z m -1.45712,-39.759697 -0.0101,-7.93e-4 c -0.0341,-0.0013 -0.0688,-0.0022 -0.10374,-0.0022 h -15.68447 c -0.0357,0 -0.0713,8.64e-4 -0.1061,0.0023 l -0.0107,9.37e-4 h -0.005 c -1.13373,0.06398 -2.02093,1.002462 -2.02093,2.138968 V 58.20829 c 0,1.110691 0.86623,2.048877 1.97284,2.135838 0.0163,0.0014 0.0342,0.0027 0.0518,0.0031 l 0.006,1.67e-4 c 0.037,0.002 0.0744,0.003 0.11189,0.003 h 15.68446 c 0.0369,0 0.0738,-10e-4 0.11018,-0.003 l 0.006,-1.67e-4 c 0.0186,-3.35e-4 0.037,-0.0018 0.0545,-0.0032 1.10526,-0.08696 1.97108,-1.025147 1.97108,-2.135779 V 20.5879 c 0,-1.139814 -0.89105,-2.079538 -2.0285,-2.139263"
       style="fill:#000000;fill-opacity:1;fill-rule:nonzero;stroke:none;stroke-width:0.00590762"
       id="path1242" />
    <path
       d="m 174.65287,19.017008 v 0.205112 c 0,0.690541 -0.55993,1.250405 -1.25041,1.250405 h -8.16408 c -0.69048,0 -1.25041,-0.559864 -1.25041,-1.250405 v -0.205112 h 10.6649"
       style="fill:#000000;fill-opacity:1;fill-rule:nonzero;stroke:none;stroke-width:0.00590762"
       id="path1244" />
    <path
       d="m 174.65287,19.017303 v 0.205112 c 0,0.690482 -0.55993,1.250405 -1.25041,1.250405 h -8.16408 c -0.69048,0 -1.25041,-0.559923 -1.25041,-1.250405 v -0.205112 h 10.6649"
       style="fill:#000000;fill-opacity:1;fill-rule:nonzero;stroke:none;stroke-width:0.00590762"
       id="path1246" />
    <g
       id="g1328"
       transform="matrix(0.00590761,0,0,-0.00590761,139.78237,68.93431)">
      <g
         id="g1330"
         clip-path="url(#clipPath1334)">
        <path
           d="m 5182.99,8376.54 h -388.27 c -9.78,0 -17.71,7.93 -17.71,17.71 v 9.09 c 0,9.79 7.93,17.72 17.71,17.72 h 388.27 c 9.78,0 17.71,-7.93 17.71,-17.72 v -9.09 c 0,-9.78 -7.93,-17.71 -17.71,-17.71"
           style="fill:url(#linearGradient1346);fill-opacity:1;fill-rule:nonzero;stroke:none"
           id="path1348" />
      </g>
    </g>
    <g
       id="g1350"
       transform="matrix(0.00590761,0,0,-0.00590761,139.78237,68.93431)">
      <g
         id="g1352"
         clip-path="url(#clipPath1356)">
        <path
           d="m 6345.09,8449.56 h -2.4 l -3.59,0.37 c -4.24,0.18 -8.1,0.18 -11.7,0.18 h -383.09 c -21.92,-1.1 -39.61,-18.05 -41.81,-39.7 -0.1,-1.47 -0.19,-2.95 -0.19,-4.51 v -0.56 c -5.25,-112.28 -97.92,-201.63 -211.4,-201.63 h -653.98 -74.06 -653.99 c -113.48,0 -206.14,89.35 -211.39,201.63 v 0.56 c 0,1.56 -0.1,3.04 -0.19,4.51 -2.21,21.65 -19.89,38.6 -41.82,39.7 h -383.09 c -3.59,0 -7.46,0 -11.69,-0.18 l -3.6,-0.37 h -2.39 c -139.46,-9.12 -248.33,-125.18 -248.33,-265.37 V 1815.72 c 0,-137.8 107.58,-254.32 244.83,-265.1 1.38,-0.09 2.49,-0.18 3.59,-0.27 h 0.92 l 0.74,-0.09 h 1.57 l 0.55,-0.09 c 4.6,-0.19 9.21,-0.38 13.81,-0.38 h 1290.48 74.06 1290.47 c 4.61,0 9.21,0.19 13.82,0.38 l 0.55,0.09 h 1.56 l 0.74,0.09 h 0.93 c 1.1,0.09 2.21,0.18 3.59,0.27 137.24,10.78 244.83,127.3 244.83,265.1 v 6368.47 c 0,140.19 -108.88,256.25 -248.33,265.37"
           style="fill:url(#linearGradient1093);fill-opacity:1;fill-rule:nonzero;stroke:none"
           id="path1366" />
      </g>
    </g>
    <image
       width="59.897652"
       height="33.709984"
       preserveAspectRatio="none"
       xlink:href="../raw/screenshot_responsive_fullhd.png"
       id="image1030"
       x="91.69249"
       y="19.247562" />
    <image
       width="113.24167"
       height="242.35834"
       preserveAspectRatio="none"
       xlink:href="../raw/screenshot_responsive_smartphone.png"
       id="image1042"
       x="566.08325"
       y="69.721153"
       clip-path="url(#clipPath1083)"
       transform="matrix(0.16745983,0,0,0.16745983,65.240974,8.6091481)" />
  </g>
</svg>
