<?xml version="1.0" encoding="UTF-8" standalone="no"?>
<!-- Created with Inkscape (http://www.inkscape.org/) -->

<svg
   width="183.06071mm"
   height="72.458633mm"
   viewBox="0 0 183.06072 72.458634"
   version="1.1"
   id="svg5"
   inkscape:version="1.1.2 (0a00cf5339, 2022-02-04)"
   sodipodi:docname="slurm-web_responsive.svg"
   xmlns:inkscape="http://www.inkscape.org/namespaces/inkscape"
   xmlns:sodipodi="http://sodipodi.sourceforge.net/DTD/sodipodi-0.dtd"
   xmlns:xlink="http://www.w3.org/1999/xlink"
   xmlns="http://www.w3.org/2000/svg"
   xmlns:svg="http://www.w3.org/2000/svg">
  <sodipodi:namedview
     id="namedview7"
     pagecolor="#ffffff"
     bordercolor="#666666"
     borderopacity="1.0"
     inkscape:pageshadow="2"
     inkscape:pageopacity="0.0"
     inkscape:pagecheckerboard="0"
     inkscape:document-units="mm"
     showgrid="true"
     inkscape:zoom="0.38885732"
     inkscape:cx="2022.5928"
     inkscape:cy="644.19515"
     inkscape:window-width="2865"
     inkscape:window-height="1082"
     inkscape:window-x="26"
     inkscape:window-y="23"
     inkscape:window-maximized="0"
     inkscape:current-layer="layer1"
     fit-margin-top="0"
     fit-margin-left="0"
     fit-margin-right="0"
     fit-margin-bottom="0">
    <inkscape:grid
       type="xygrid"
       id="grid1095"
       originx="-43.25945"
       originy="-3.1901471" />
  </sodipodi:namedview>
  <defs
     id="defs2">
    <linearGradient
       x1="-0.55967134"
       y1="8.3266727e-16"
       x2="1.6685077"
       y2="8.3266727e-16"
       gradientUnits="userSpaceOnUse"
       gradientTransform="matrix(836.767,0,0,-836.767,142.617,323.601)"
       spreadMethod="pad"
       id="linearGradient2432">
      <stop
         style="stop-opacity:1;stop-color:#aaaaae"
         offset="0"
         id="stop2426" />
      <stop
         style="stop-opacity:1;stop-color:#ffffff"
         offset="0.82432425"
         id="stop2428" />
      <stop
         style="stop-opacity:1;stop-color:#ffffff"
         offset="1"
         id="stop2430" />
    </linearGradient>
    <linearGradient
       x1="0"
       y1="0"
       x2="1"
       y2="0"
       gradientUnits="userSpaceOnUse"
       gradientTransform="matrix(8367.67,0,0,-8367.67,1426.17,3236.01)"
       spreadMethod="pad"
       id="linearGradient2462">
      <stop
         style="stop-opacity:1;stop-color:#aaaaae"
         offset="0"
         id="stop2456" />
      <stop
         style="stop-opacity:0.79728758;stop-color:#ffffff"
         offset="0.58723699"
         id="stop2458" />
      <stop
         style="stop-opacity:0;stop-color:#ffffff"
         offset="1"
         id="stop2460" />
    </linearGradient>
    <linearGradient
       x1="-0.55967134"
       y1="8.3266727e-16"
       x2="1.6685077"
       y2="8.3266727e-16"
       gradientUnits="userSpaceOnUse"
       gradientTransform="matrix(836.767,0,0,-836.767,142.617,323.601)"
       spreadMethod="pad"
       id="linearGradient588-1">
      <stop
         style="stop-opacity:1;stop-color:#aaaaae"
         offset="0"
         id="stop582" />
      <stop
         style="stop-opacity:1;stop-color:#ffffff"
         offset="0.69999999"
         id="stop584" />
      <stop
         style="stop-opacity:1;stop-color:#ffffff"
         offset="1"
         id="stop586" />
    </linearGradient>
    <linearGradient
       inkscape:collect="always"
       xlink:href="#linearGradient2462"
       id="linearGradient2368"
       x1="574.69733"
       y1="147.40999"
       x2="574.69733"
       y2="250.52858"
       gradientUnits="userSpaceOnUse" />
    <clipPath
       clipPathUnits="userSpaceOnUse"
       id="clipPath1116">
      <path
         d="m 6330.14,1317.73 h -2655 c -140.72,0 -267.77,58.58 -358.08,152.68 -0.85,0.88 -1.7,1.78 -2.54,2.66 90.3,-94.03 217.31,-152.57 357.98,-152.57 h 2654.99 c 274,0 496.21,222.1 496.21,496.1 v 6368.21 c 0,131.84 -51.46,251.68 -135.38,340.53 0.84,-0.87 1.66,-1.74 2.49,-2.62 84.01,-88.86 135.53,-208.76 135.53,-340.69 v -6368.2 c 0,-274 -222.21,-496.1 -496.2,-496.1 m 173.56,99.77 0.69,0.41 0.4,0.09 -1.09,-0.5"
         id="path1114" />
    </clipPath>
    <linearGradient
       x1="0"
       y1="0"
       x2="1"
       y2="0"
       gradientUnits="userSpaceOnUse"
       gradientTransform="matrix(10000,-10000,-10000,-10000,0,10000)"
       spreadMethod="pad"
       id="linearGradient1124">
      <stop
         style="stop-opacity:1;stop-color:#939494"
         offset="0"
         id="stop1118" />
      <stop
         style="stop-opacity:1;stop-color:#939494"
         offset="0.41952262"
         id="stop1120" />
      <stop
         style="stop-opacity:1;stop-color:#818282"
         offset="1"
         id="stop1122" />
    </linearGradient>
    <clipPath
       clipPathUnits="userSpaceOnUse"
       id="clipPath1134">
      <path
         d="M 6327.49,1320.5 H 3672.5 c -140.67,0 -267.68,58.54 -357.98,152.57 -85.61,89.15 -138.23,210.19 -138.23,343.53 v 6368.21 c 0,273.99 222.21,496.1 496.21,496.1 h 2654.99 c 142.15,0 270.36,-59.78 360.83,-155.57 83.92,-88.85 135.38,-208.69 135.38,-340.53 V 1816.6 c 0,-274 -222.21,-496.1 -496.21,-496.1 m 177.3,97.5 -0.4,-0.09 -0.69,-0.41 1.09,0.5"
         id="path1132" />
    </clipPath>
    <linearGradient
       x1="0"
       y1="0"
       x2="1"
       y2="0"
       gradientUnits="userSpaceOnUse"
       gradientTransform="matrix(10000,-10000,-10000,-10000,0,10000)"
       spreadMethod="pad"
       id="linearGradient1142">
      <stop
         style="stop-opacity:1;stop-color:#919292"
         offset="0"
         id="stop1136" />
      <stop
         style="stop-opacity:1;stop-color:#919292"
         offset="0.41952262"
         id="stop1138" />
      <stop
         style="stop-opacity:1;stop-color:#808080"
         offset="1"
         id="stop1140" />
    </linearGradient>
    <clipPath
       clipPathUnits="userSpaceOnUse"
       id="clipPath1154">
      <path
         d="m 3626.24,1381.62 c -3.87,0.37 -7.74,0.74 -11.61,1.2 h -0.27 c -7.65,0.92 -15.2,2.02 -22.66,3.31 -45.5,7.74 -88.88,21.83 -129.14,41.36 -2.85,1.38 -5.61,2.76 -8.47,4.15 -7.18,3.77 -14.28,7.55 -21.28,11.6 -3.22,1.84 -6.35,3.68 -9.48,5.62 -15.84,9.58 -31.13,20.08 -45.69,31.41 -2.67,2.02 -5.25,4.05 -7.83,6.17 -7.73,6.26 -15.28,12.71 -22.56,19.34 -2.4,2.21 -4.79,4.42 -7.09,6.72 -2.77,2.58 -5.44,5.16 -8.11,7.83 -2.58,2.67 -5.25,5.34 -7.83,8.01 -1.75,1.76 -3.4,3.51 -5.06,5.35 -2.12,2.3 -4.24,4.61 -6.27,6.91 -12.34,13.81 -23.85,28.27 -34.54,43.38 -1.93,2.67 -3.77,5.43 -5.62,8.1 -5.8,8.48 -11.23,17.14 -16.39,25.98 -1.94,3.13 -3.78,6.35 -5.53,9.58 -13.35,23.95 -24.68,49.09 -33.8,75.16 -1.29,3.59 -2.49,7.09 -3.59,10.68 -5.8,18.05 -10.59,36.48 -14.28,55.27 -0.74,3.77 -1.47,7.55 -2.12,11.32 -4.51,26.53 -6.9,53.79 -6.9,81.61 V 8137.7 c 0,258.35 204.29,469.92 459.79,481.8 -230.17,-11.88 -413.74,-202.82 -413.74,-435.75 V 1815.62 c 0,-225.01 171.13,-410.79 390.07,-434 z"
         id="path1152" />
    </clipPath>
    <linearGradient
       x1="0"
       y1="0"
       x2="1"
       y2="0"
       gradientUnits="userSpaceOnUse"
       gradientTransform="matrix(53.4511,0,0,-53.4511,3190.11,5000.56)"
       spreadMethod="pad"
       id="linearGradient1162">
      <stop
         style="stop-opacity:1;stop-color:#666666"
         offset="0"
         id="stop1156" />
      <stop
         style="stop-opacity:1;stop-color:#666666"
         offset="0.01680284"
         id="stop1158" />
      <stop
         style="stop-opacity:1;stop-color:#000000"
         offset="1"
         id="stop1160" />
    </linearGradient>
    <clipPath
       clipPathUnits="userSpaceOnUse"
       id="clipPath1172">
      <path
         d="M 6809.88,8137.7 V 1861.68 c 0,-51.67 -8.19,-101.5 -23.3,-148.2 -1.1,-3.59 -2.3,-7.19 -3.59,-10.68 -1.2,-3.6 -2.49,-7.1 -3.87,-10.6 -0.92,-2.67 -1.93,-5.34 -3.04,-7.92 -3.13,-7.82 -6.45,-15.56 -9.95,-23.21 -1.56,-3.4 -3.13,-6.81 -4.79,-10.13 -2.3,-4.69 -4.6,-9.3 -7.09,-13.91 -1.56,-3.13 -3.22,-6.17 -4.97,-9.21 -1.75,-3.22 -3.59,-6.45 -5.53,-9.67 -5.16,-8.84 -10.68,-17.59 -16.48,-26.16 -1.85,-2.67 -3.69,-5.43 -5.62,-8.1 -2.12,-3.04 -4.33,-5.99 -6.54,-8.94 -2.12,-3.04 -4.42,-5.99 -6.63,-8.84 -2.31,-2.95 -4.61,-5.8 -6.91,-8.66 -2.3,-2.85 -4.7,-5.71 -7.19,-8.56 -4.79,-5.62 -9.67,-11.15 -14.73,-16.49 -7.74,-8.29 -15.75,-16.3 -24.14,-24.13 -2.48,-2.21 -4.97,-4.52 -7.55,-6.82 -5.8,-5.16 -11.7,-10.13 -17.68,-15.1 -2.58,-2.03 -5.25,-4.06 -7.92,-6.17 -8.75,-6.82 -17.78,-13.27 -26.99,-19.44 -3.04,-2.02 -6.17,-4.05 -9.3,-6.08 -6.27,-4.05 -12.62,-7.83 -19.07,-11.51 -3.13,-1.84 -6.36,-3.69 -9.58,-5.34 -10.41,-5.72 -21,-11.06 -31.87,-15.85 -2.85,-1.38 -5.71,-2.58 -8.56,-3.77 -3.41,-1.57 -6.82,-2.95 -10.32,-4.33 -3.5,-1.38 -7,-2.77 -10.5,-4.06 -7.83,-2.94 -15.75,-5.7 -23.76,-8.19 -2.86,-0.92 -5.62,-1.75 -8.47,-2.58 -10.51,-3.13 -21.28,-5.9 -32.15,-8.29 -3.78,-0.83 -7.55,-1.66 -11.42,-2.4 -3.96,-0.83 -8.02,-1.56 -12.16,-2.21 -7.55,-1.29 -15.1,-2.39 -22.66,-3.31 h -0.28 c -3.86,-0.46 -7.73,-0.83 -11.6,-1.2 218.94,23.21 390.16,208.99 390.16,434 v 6368.13 c 0,228.97 -177.3,417.33 -401.86,435.02 249.98,-17.69 447.91,-226.68 447.91,-481.07 z"
         id="path1170" />
    </clipPath>
    <linearGradient
       x1="0"
       y1="0"
       x2="1"
       y2="0"
       gradientUnits="userSpaceOnUse"
       gradientTransform="matrix(52.9869,0,0,-52.9869,6764.94,5000.19)"
       spreadMethod="pad"
       id="linearGradient1180">
      <stop
         style="stop-opacity:1;stop-color:#000000"
         offset="0"
         id="stop1174" />
      <stop
         style="stop-opacity:1;stop-color:#666666"
         offset="0.98319716"
         id="stop1176" />
      <stop
         style="stop-opacity:1;stop-color:#666666"
         offset="1"
         id="stop1178" />
    </linearGradient>
    <clipPath
       clipPathUnits="userSpaceOnUse"
       id="clipPath1190">
      <path
         d="m 6809.88,1861.68 v -46.06 c 0,-266 -216.35,-482.35 -482.36,-482.35 H 3672.57 c -266.01,0 -482.45,216.35 -482.45,482.35 v 46.06 c 0,-27.82 2.39,-55.08 6.9,-81.61 0.65,-3.77 1.38,-7.55 2.12,-11.32 3.69,-18.79 8.48,-37.22 14.28,-55.27 1.1,-3.59 2.3,-7.09 3.59,-10.68 9.12,-26.07 20.45,-51.21 33.8,-75.16 1.75,-3.23 3.59,-6.45 5.53,-9.58 5.16,-8.84 10.59,-17.5 16.39,-25.98 1.85,-2.67 3.69,-5.43 5.62,-8.1 10.69,-15.11 22.2,-29.57 34.54,-43.38 2.03,-2.3 4.15,-4.61 6.27,-6.91 1.66,-1.84 3.31,-3.59 5.06,-5.35 2.58,-2.67 5.25,-5.34 7.83,-8.01 2.67,-2.67 5.34,-5.25 8.11,-7.83 2.3,-2.3 4.69,-4.51 7.09,-6.72 7.28,-6.63 14.83,-13.08 22.56,-19.34 2.58,-2.12 5.16,-4.15 7.83,-6.17 14.56,-11.33 29.85,-21.83 45.69,-31.41 3.13,-1.94 6.26,-3.78 9.48,-5.62 7,-4.05 14.1,-7.83 21.28,-11.6 2.86,-1.39 5.62,-2.77 8.47,-4.15 40.26,-19.53 83.64,-33.62 129.14,-41.36 7.46,-1.29 15.01,-2.39 22.66,-3.31 h 0.27 c 7.74,-0.92 15.48,-1.66 23.3,-2.21 3.96,-0.28 8.02,-0.55 11.98,-0.74 7.46,-0.37 15.01,-0.55 22.66,-0.55 h 2654.95 c 7.56,0 15.02,0.18 22.48,0.55 3.96,0.19 8.01,0.46 11.97,0.74 6.36,0.46 12.62,1.01 18.88,1.75 1.48,0.09 2.95,0.28 4.42,0.46 h 0.28 c 7.65,0.92 15.2,2.02 22.66,3.31 4.14,0.65 8.2,1.38 12.16,2.21 3.87,0.74 7.64,1.57 11.42,2.4 10.87,2.39 21.64,5.16 32.15,8.29 2.85,0.83 5.7,1.66 8.47,2.58 8.01,2.49 15.93,5.25 23.76,8.19 3.5,1.29 7,2.68 10.5,4.06 3.5,1.38 6.91,2.76 10.32,4.33 2.85,1.19 5.71,2.39 8.56,3.77 10.87,4.79 21.46,10.13 31.87,15.85 3.22,1.65 6.36,3.41 9.58,5.34 6.45,3.68 12.8,7.46 19.07,11.51 3.13,1.94 6.26,3.96 9.3,6.08 9.21,6.17 18.24,12.62 26.99,19.44 2.67,2.02 5.34,4.14 7.92,6.17 5.98,4.97 11.88,9.94 17.68,15.1 2.58,2.21 5.07,4.52 7.55,6.82 8.39,7.83 16.4,15.84 24.14,24.13 5.06,5.34 10.04,10.87 14.73,16.49 2.49,2.85 4.89,5.71 7.19,8.56 2.39,2.86 4.69,5.71 6.91,8.66 2.3,2.95 4.51,5.9 6.63,8.84 2.3,2.95 4.42,5.9 6.54,8.94 1.93,2.67 3.77,5.43 5.62,8.1 5.8,8.57 11.32,17.32 16.48,26.16 1.94,3.22 3.78,6.45 5.53,9.67 1.75,3.04 3.41,6.08 4.97,9.21 2.49,4.61 4.79,9.22 7.09,13.91 1.66,3.32 3.32,6.73 4.79,10.13 3.5,7.65 6.82,15.39 9.95,23.21 1.11,2.58 2.12,5.25 3.04,7.92 1.38,3.5 2.67,7 3.87,10.6 1.29,3.49 2.49,7.09 3.59,10.68 15.11,46.7 23.3,96.53 23.3,148.2 z"
         id="path1188" />
    </clipPath>
    <linearGradient
       x1="0"
       y1="0"
       x2="1"
       y2="0"
       gradientUnits="userSpaceOnUse"
       gradientTransform="matrix(0,423.213,423.213,0,5000,1333.27)"
       spreadMethod="pad"
       id="linearGradient1198">
      <stop
         style="stop-opacity:1;stop-color:#959595"
         offset="0"
         id="stop1192" />
      <stop
         style="stop-opacity:1;stop-color:#959595"
         offset="0.01680284"
         id="stop1194" />
      <stop
         style="stop-opacity:1;stop-color:#000000"
         offset="1"
         id="stop1196" />
    </linearGradient>
    <clipPath
       clipPathUnits="userSpaceOnUse"
       id="clipPath1208">
      <path
         d="m 6809.88,8183.75 v -46.05 c 0,250.43 -191.76,456.84 -436.21,480.05 -3.87,0.37 -7.83,0.74 -11.7,1.02 -3.96,0.27 -8.01,0.55 -11.97,0.73 h -0.09 c -7.46,0.37 -14.83,0.56 -22.39,0.56 H 3672.57 c -7.56,0 -15.02,-0.19 -22.38,-0.56 h -0.28 c -255.5,-11.88 -459.79,-223.45 -459.79,-481.8 v 46.05 c 0,4.79 0.09,9.49 0.27,14.18 0,3.6 0.19,7.09 0.37,10.6 0.37,7.73 0.92,15.38 1.75,23.02 0.37,3.96 0.83,7.92 1.29,11.79 0.28,2.12 0.55,4.15 0.83,6.26 0.28,2.49 0.64,4.98 1.1,7.56 0.56,3.96 1.2,7.92 1.94,11.88 1.2,6.91 2.58,13.72 4.14,20.45 0.74,3.41 1.57,6.72 2.4,10.04 2.39,10.04 5.16,19.8 8.29,29.56 1.01,3.04 2.02,6.17 3.04,9.21 1.29,3.78 2.58,7.56 3.96,11.24 1.1,3.13 2.3,6.17 3.5,9.21 1.01,2.58 1.93,5.07 3.04,7.55 1.2,3.04 2.49,6.08 3.77,9.03 1.02,2.3 1.94,4.51 3.04,6.72 1.48,3.32 2.95,6.54 4.61,9.86 2.67,5.71 5.52,11.42 8.57,17.04 1.47,2.85 3.03,5.71 4.69,8.56 1.75,3.32 3.68,6.64 5.62,9.86 13.36,22.75 28.55,44.3 45.41,64.57 2.39,2.85 4.79,5.71 7.27,8.56 2.77,3.13 5.53,6.36 8.48,9.49 4.79,5.16 9.58,10.22 14.55,15.11 5.34,5.34 10.78,10.5 16.3,15.56 5.62,4.97 11.24,9.95 17.05,14.74 2.85,2.39 5.8,4.7 8.75,7.09 5.89,4.6 11.88,9.12 18.05,13.54 6.08,4.33 12.25,8.56 18.6,12.71 6.36,4.05 12.71,8.01 19.25,11.79 3.23,1.93 6.54,3.78 9.86,5.62 3.31,1.84 6.63,3.59 9.94,5.34 3.41,1.75 6.73,3.5 10.14,5.16 3.4,1.66 6.81,3.31 10.31,4.97 6.82,3.13 13.82,6.17 20.91,9.03 3.32,1.38 6.72,2.76 10.13,4.05 l 0.92,0.37 c 3.41,1.29 6.91,2.49 10.32,3.78 3.41,1.1 6.81,2.3 10.22,3.5 3.87,1.19 7.74,2.48 11.7,3.59 3.68,1.1 7.37,2.12 11.05,3.13 3.78,1.01 7.46,2.03 11.24,2.95 3.78,0.92 7.55,1.84 11.33,2.67 7.64,1.75 15.29,3.22 23.03,4.51 3.77,0.65 7.64,1.29 11.51,1.84 8.29,1.2 16.67,2.21 25.05,2.95 6.63,0.65 13.36,1.11 20.08,1.47 4.05,0.19 8.2,0.37 12.34,0.47 4.15,0.09 8.29,0.18 12.44,0.18 h 2654.95 c 4.15,0 8.3,-0.09 12.44,-0.18 3.41,-0.1 6.91,-0.19 10.31,-0.37 7.84,-0.37 15.57,-0.92 23.31,-1.66 h 0.27 c 3.97,-0.37 7.83,-0.83 11.7,-1.29 3.96,-0.46 7.83,-1.01 11.7,-1.57 3.87,-0.55 7.74,-1.19 11.61,-1.84 3.86,-0.64 7.64,-1.38 11.42,-2.12 h 0.18 c 3.78,-0.73 7.55,-1.56 11.33,-2.39 3.5,-0.74 6.91,-1.57 10.31,-2.3 l 2.22,-0.56 c 3.22,-0.83 6.44,-1.66 9.66,-2.58 4.52,-1.19 9.03,-2.48 13.46,-3.86 3.03,-0.93 6.07,-1.85 9.02,-2.86 6.72,-2.21 13.35,-4.51 19.99,-7 4.51,-1.57 8.93,-3.32 13.26,-5.16 3.22,-1.29 6.35,-2.67 9.58,-4.05 3.5,-1.47 6.91,-3.04 10.41,-4.7 3.41,-1.56 6.81,-3.22 10.22,-4.88 24.32,-11.88 47.35,-25.79 69.08,-41.54 2.67,-1.84 5.35,-3.78 7.92,-5.8 9.58,-7.19 18.79,-14.65 27.73,-22.48 3.96,-3.4 7.83,-6.91 11.6,-10.5 15.57,-14.46 30.12,-29.93 43.48,-46.23 2.48,-2.95 4.79,-5.81 7.09,-8.75 4.88,-6.17 9.48,-12.35 13.91,-18.61 2.3,-3.13 4.51,-6.36 6.63,-9.58 3.77,-5.43 7.37,-11.05 10.87,-16.67 1.75,-2.85 3.41,-5.71 5.15,-8.56 3.13,-5.44 6.27,-10.87 9.21,-16.49 1.48,-2.67 2.95,-5.34 4.24,-8.11 4.88,-9.3 9.3,-18.7 13.54,-28.37 1.02,-2.48 2.12,-4.97 3.13,-7.55 3.96,-9.58 7.65,-19.34 10.96,-29.2 1.29,-3.68 2.49,-7.27 3.6,-10.96 6.63,-21.18 11.78,-42.92 15.47,-65.12 0.37,-2.3 0.74,-4.69 1.1,-7.18 0.56,-3.87 1.11,-7.74 1.57,-11.61 0.46,-3.96 0.92,-7.82 1.29,-11.78 0.46,-3.97 0.74,-7.93 1.1,-11.89 0.47,-7.27 0.83,-14.55 1.02,-21.92 0.18,-4.7 0.27,-9.39 0.27,-14.09 z"
         id="path1206" />
    </clipPath>
    <linearGradient
       x1="0"
       y1="0"
       x2="1"
       y2="0"
       gradientUnits="userSpaceOnUse"
       gradientTransform="matrix(0,528.413,528.413,0,5000,8262.04)"
       spreadMethod="pad"
       id="linearGradient1216">
      <stop
         style="stop-opacity:1;stop-color:#000000"
         offset="0"
         id="stop1210" />
      <stop
         style="stop-opacity:1;stop-color:#808080"
         offset="0.98319716"
         id="stop1212" />
      <stop
         style="stop-opacity:1;stop-color:#808080"
         offset="1"
         id="stop1214" />
    </linearGradient>
    <clipPath
       clipPathUnits="userSpaceOnUse"
       id="clipPath1334">
      <path
         d="m 5182.99,8376.54 h -388.27 c -9.78,0 -17.71,7.93 -17.71,17.71 v 9.09 c 0,9.79 7.93,17.72 17.71,17.72 h 388.27 c 9.78,0 17.71,-7.93 17.71,-17.72 v -9.09 c 0,-9.78 -7.93,-17.71 -17.71,-17.71 z"
         id="path1332" />
    </clipPath>
    <linearGradient
       x1="0"
       y1="0"
       x2="1"
       y2="0"
       gradientUnits="userSpaceOnUse"
       gradientTransform="matrix(423.688,0,0,-423.688,4777.01,8398.8)"
       spreadMethod="pad"
       id="linearGradient1346">
      <stop
         style="stop-opacity:1;stop-color:#333333"
         offset="0"
         id="stop1336" />
      <stop
         style="stop-opacity:1;stop-color:#1a1a1a"
         offset="0.24803177"
         id="stop1338" />
      <stop
         style="stop-opacity:1;stop-color:#1a1a1a"
         offset="0.478741"
         id="stop1340" />
      <stop
         style="stop-opacity:1;stop-color:#1a1a1a"
         offset="0.89527253"
         id="stop1342" />
      <stop
         style="stop-opacity:1;stop-color:#333333"
         offset="1"
         id="stop1344" />
    </linearGradient>
    <clipPath
       clipPathUnits="userSpaceOnUse"
       id="clipPath1356">
      <path
         d="m 6345.09,8449.56 h -2.4 l -3.59,0.37 c -4.24,0.18 -8.1,0.18 -11.7,0.18 h -383.09 c -21.92,-1.1 -39.61,-18.05 -41.81,-39.7 -0.1,-1.47 -0.19,-2.95 -0.19,-4.51 v -0.56 c -5.25,-112.28 -97.92,-201.63 -211.4,-201.63 h -653.98 -74.06 -653.99 c -113.48,0 -206.14,89.35 -211.39,201.63 v 0.56 c 0,1.56 -0.1,3.04 -0.19,4.51 -2.21,21.65 -19.89,38.6 -41.82,39.7 h -383.09 c -3.59,0 -7.46,0 -11.69,-0.18 l -3.6,-0.37 h -2.39 c -139.46,-9.12 -248.33,-125.18 -248.33,-265.37 V 1815.72 c 0,-137.8 107.58,-254.32 244.83,-265.1 1.38,-0.09 2.49,-0.18 3.59,-0.27 h 0.92 l 0.74,-0.09 h 1.57 l 0.55,-0.09 c 4.6,-0.19 9.21,-0.38 13.81,-0.38 h 1290.48 74.06 1290.47 c 4.61,0 9.21,0.19 13.82,0.38 l 0.55,0.09 h 1.56 l 0.74,0.09 h 0.93 c 1.1,0.09 2.21,0.18 3.59,0.27 137.24,10.78 244.83,127.3 244.83,265.1 v 6368.47 c 0,140.19 -108.88,256.25 -248.33,265.37 z"
         id="path1354" />
    </clipPath>
    <linearGradient
       x1="0"
       y1="0"
       x2="1"
       y2="0"
       gradientUnits="userSpaceOnUse"
       gradientTransform="matrix(4887.61,-4887.61,-4887.61,-4887.61,2556.09,7444.08)"
       spreadMethod="pad"
       id="linearGradient1364">
      <stop
         style="stop-opacity:1;stop-color:#f2f3f4"
         offset="0"
         id="stop1358" />
      <stop
         style="stop-opacity:1;stop-color:#f2f3f4"
         offset="0.41952262"
         id="stop1360" />
      <stop
         style="stop-opacity:1;stop-color:#e2e2e2"
         offset="1"
         id="stop1362" />
    </linearGradient>
    <clipPath
       clipPathUnits="userSpaceOnUse"
       id="clipPath1083">
      <g
         id="g1089"
         transform="matrix(0.03527778,0,0,-0.03527778,444.93212,360.24116)">
        <g
           id="g1087"
           clip-path="url(#clipPath1356)">
          <path
             d="m 6345.09,8449.56 h -2.4 l -3.59,0.37 c -4.24,0.18 -8.1,0.18 -11.7,0.18 h -383.09 c -21.92,-1.1 -39.61,-18.05 -41.81,-39.7 -0.1,-1.47 -0.19,-2.95 -0.19,-4.51 v -0.56 c -5.25,-112.28 -97.92,-201.63 -211.4,-201.63 h -653.98 -74.06 -653.99 c -113.48,0 -206.14,89.35 -211.39,201.63 v 0.56 c 0,1.56 -0.1,3.04 -0.19,4.51 -2.21,21.65 -19.89,38.6 -41.82,39.7 h -383.09 c -3.59,0 -7.46,0 -11.69,-0.18 l -3.6,-0.37 h -2.39 c -139.46,-9.12 -248.33,-125.18 -248.33,-265.37 V 1815.72 c 0,-137.8 107.58,-254.32 244.83,-265.1 1.38,-0.09 2.49,-0.18 3.59,-0.27 h 0.92 l 0.74,-0.09 h 1.57 l 0.55,-0.09 c 4.6,-0.19 9.21,-0.38 13.81,-0.38 h 1290.48 74.06 1290.47 c 4.61,0 9.21,0.19 13.82,0.38 l 0.55,0.09 h 1.56 l 0.74,0.09 h 0.93 c 1.1,0.09 2.21,0.18 3.59,0.27 137.24,10.78 244.83,127.3 244.83,265.1 v 6368.47 c 0,140.19 -108.88,256.25 -248.33,265.37"
             style="fill:url(#linearGradient1091);fill-opacity:1;fill-rule:nonzero;stroke:none"
             id="path1085" />
        </g>
      </g>
    </clipPath>
    <linearGradient
       inkscape:collect="always"
       xlink:href="#linearGradient1364"
       id="linearGradient1091"
       gradientUnits="userSpaceOnUse"
       gradientTransform="matrix(4887.61,-4887.61,-4887.61,-4887.61,2556.09,7444.08)"
       x1="0"
       y1="0"
       x2="1"
       y2="0"
       spreadMethod="pad" />
    <linearGradient
       inkscape:collect="always"
       xlink:href="#linearGradient1364"
       id="linearGradient1093"
       gradientUnits="userSpaceOnUse"
       gradientTransform="matrix(4887.61,-4887.61,-4887.61,-4887.61,2556.09,7444.08)"
       x1="0"
       y1="0"
       x2="1"
       y2="0"
       spreadMethod="pad" />
    <linearGradient
       inkscape:collect="always"
       xlink:href="#linearGradient2432"
       id="linearGradient2387"
       x1="412.75"
       y1="146.83743"
       x2="510.64584"
       y2="146.84375"
       gradientUnits="userSpaceOnUse"
       gradientTransform="matrix(0.41188871,0,0,0.41188871,-35.033981,-21.099861)" />
    <linearGradient
       inkscape:collect="always"
       xlink:href="#linearGradient2432"
       id="linearGradient4391"
       gradientUnits="userSpaceOnUse"
       x1="412.75"
       y1="146.83743"
       x2="510.64584"
       y2="146.84375"
       gradientTransform="matrix(-0.41188871,0,0,0.41188871,366.0083,-21.099861)" />
  </defs>
  <g
     inkscape:label="Calque 1"
     inkscape:groupmode="layer"
     id="layer1"
     transform="translate(-43.259448,-3.1901473)">
    <g
       id="g8"
       inkscape:label="ink_ext_XXXXXX"
       transform="matrix(0.10631405,0,0,-0.10631405,28.097257,94.08866)">
      <path
         d="m 453.429,284.28 h 216.207 l 18.66,-102.253 H 433.821 l 19.608,102.253"
         style="fill:#f7f7f7;fill-opacity:1;fill-rule:nonzero;stroke:none;stroke-width:0.1"
         id="path38" />
      <path
         d="m 718.13011,183.03727 -2.835,0.506 h -310.587 l -2.836,-0.506 c -0.951,-0.17 -1.644,-0.997 -1.644,-1.964 v -6.169 c 0,-0.805 0.653,-1.457 1.458,-1.457 h 316.63 c 0.805,0 1.457,0.652 1.457,1.457 v 6.169 c 0,0.967 -0.692,1.794 -1.643,1.964"
         style="fill:#eeeeee;fill-opacity:1;fill-rule:nonzero;stroke:none;stroke-width:0.1"
         id="path426" />
      <path
         d="M 979.383,322.418 V 828.47 c 0,14.652 -10.956,26.53 -24.472,26.53 H 167.089 c -13.516,0 -24.472,-11.878 -24.472,-26.53 V 322.418 h 836.766"
         style="fill:#010101;fill-opacity:1;fill-rule:nonzero;stroke:none;stroke-width:0.1"
         id="path428" />
      <path
         d="m 142.617,363.223 v -52.714 c 0,-14.653 10.956,-26.53 24.472,-26.53 h 787.822 c 13.516,0 24.472,11.877 24.472,26.53 v 52.714 H 142.617"
         style="fill:url(#linearGradient588-1);fill-opacity:1;fill-rule:nonzero;stroke:none;stroke-width:0.1"
         id="path590" />
      <path
         d="M 941.986,398.184 H 177.623 V 817.177 H 941.986 V 398.184"
         style="fill:#ffffff;fill-opacity:1;fill-rule:nonzero;stroke:none;stroke-width:0.1"
         id="path594" />
      <path
         d="m 453.429,284.28 h 216.207 l 18.66,-102.253 H 433.821 l 19.608,102.253"
         style="fill:url(#linearGradient2368);fill-opacity:1;fill-rule:nonzero;stroke:none;stroke-width:0.1"
         id="path2360" />
    </g>
    <g
       id="g1110"
       transform="matrix(0.00820271,0,0,-0.00820271,170.32568,80.233229)">
      <g
         id="g1112"
         clip-path="url(#clipPath1116)">
        <path
           d="m 6330.14,1317.73 h -2655 c -140.72,0 -267.77,58.58 -358.08,152.68 -0.85,0.88 -1.7,1.78 -2.54,2.66 90.3,-94.03 217.31,-152.57 357.98,-152.57 h 2654.99 c 274,0 496.21,222.1 496.21,496.1 v 6368.21 c 0,131.84 -51.46,251.68 -135.38,340.53 0.84,-0.87 1.66,-1.74 2.49,-2.62 84.01,-88.86 135.53,-208.76 135.53,-340.69 v -6368.2 c 0,-274 -222.21,-496.1 -496.2,-496.1 m 173.56,99.77 0.69,0.41 0.4,0.09 -1.09,-0.5"
           style="fill:url(#linearGradient1124);fill-opacity:1;fill-rule:nonzero;stroke:none"
           id="path1126" />
      </g>
    </g>
    <g
       id="g1128"
       transform="matrix(0.00820271,0,0,-0.00820271,170.32568,80.233229)">
      <g
         id="g1130"
         clip-path="url(#clipPath1134)">
        <path
           d="M 6327.49,1320.5 H 3672.5 c -140.67,0 -267.68,58.54 -357.98,152.57 -85.61,89.15 -138.23,210.19 -138.23,343.53 v 6368.21 c 0,273.99 222.21,496.1 496.21,496.1 h 2654.99 c 142.15,0 270.36,-59.78 360.83,-155.57 83.92,-88.85 135.38,-208.69 135.38,-340.53 V 1816.6 c 0,-274 -222.21,-496.1 -496.21,-496.1 m 177.3,97.5 -0.4,-0.09 -0.69,-0.41 1.09,0.5"
           style="fill:url(#linearGradient1142);fill-opacity:1;fill-rule:nonzero;stroke:none"
           id="path1144" />
      </g>
    </g>
    <path
       d="m 226.18517,64.962404 c 0,0.423834 -0.0672,0.832575 -0.19113,1.215643 -0.009,0.02945 -0.0189,0.05898 -0.0295,0.0876 -0.01,0.02953 -0.0204,0.05824 -0.0317,0.08695 -0.008,0.0219 -0.0158,0.0438 -0.0249,0.06496 -0.0257,0.06415 -0.0529,0.127634 -0.0816,0.190383 -0.0128,0.02789 -0.0257,0.05586 -0.0393,0.0831 -0.0189,0.03847 -0.0377,0.07628 -0.0582,0.114099 -0.0128,0.02567 -0.0264,0.05061 -0.0408,0.07555 -0.0144,0.02641 -0.0295,0.05291 -0.0454,0.07932 -0.0423,0.07251 -0.0876,0.144284 -0.13518,0.214581 -0.0152,0.0219 -0.0303,0.04454 -0.0461,0.06644 -0.0174,0.02494 -0.0348,0.04914 -0.0537,0.07333 -0.0174,0.02411 -0.0355,0.04831 -0.0544,0.07251 -0.0182,0.0242 -0.0371,0.04757 -0.0567,0.07104 -0.0189,0.02338 -0.0385,0.04684 -0.059,0.07021 -0.0385,0.0461 -0.0793,0.09146 -0.12083,0.135265 -0.0635,0.068 -0.12919,0.133703 -0.19801,0.197931 -0.0203,0.01886 -0.0408,0.03782 -0.0619,0.05594 -0.0476,0.04233 -0.096,0.0831 -0.14502,0.123862 -0.0212,0.01665 -0.0431,0.03404 -0.065,0.05061 -0.0718,0.05594 -0.14584,0.108851 -0.22139,0.15946 -0.0249,0.01739 -0.0506,0.03396 -0.0763,0.04987 -0.0514,0.03322 -0.10352,0.06423 -0.15643,0.09441 -0.0264,0.01583 -0.0522,0.03027 -0.0786,0.0438 -0.0854,0.04692 -0.17226,0.09072 -0.26142,0.130012 -0.0234,0.01132 -0.0468,0.02116 -0.0702,0.03092 -0.028,0.01288 -0.0559,0.0242 -0.0846,0.03552 -0.0287,0.01132 -0.0574,0.02272 -0.0861,0.0333 -0.0642,0.02412 -0.12919,0.04675 -0.19489,0.06718 -0.0227,0.0076 -0.0461,0.01435 -0.0695,0.02116 -0.0862,0.02568 -0.17456,0.0484 -0.26372,0.068 -0.031,0.0068 -0.0619,0.01363 -0.0937,0.01969 -0.0325,0.0068 -0.0658,0.01279 -0.0998,0.01814 -0.0612,0.01058 -0.12312,0.0196 -0.18587,0.02715 h -0.002 c -0.0121,0.0014 -0.0241,0.003 -0.0362,0.0038 -0.008,0.0016 -0.0173,0.0023 -0.0257,0.0023 l -0.0105,6.98e-4 c 0.0559,-0.0061 0.11107,-0.01363 0.16619,-0.02272 0.0272,-0.0045 0.0544,-0.009 0.0823,-0.01428 0.0272,-0.0046 0.0544,-0.01058 0.0808,-0.0159 0.0816,-0.01658 0.16168,-0.03699 0.241,-0.0589 0.0265,-0.0068 0.0529,-0.01518 0.0786,-0.02346 0.0522,-0.01584 0.10352,-0.03322 0.15487,-0.05135 0.0771,-0.02797 0.15265,-0.05816 0.22672,-0.09072 0.0249,-0.0098 0.0498,-0.02109 0.074,-0.03322 0.0242,-0.01132 0.0484,-0.02338 0.0726,-0.0347 0.0483,-0.0242 0.0959,-0.04913 0.14355,-0.07481 0.0468,-0.02649 0.0928,-0.05291 0.13895,-0.08088 0.0416,-0.02567 0.0824,-0.05209 0.12313,-0.07858 l 0.0121,-0.0083 c 0.0665,-0.04528 0.13141,-0.0922 0.1949,-0.14125 0.0212,-0.0159 0.0423,-0.03248 0.0627,-0.04987 0.0589,-0.04757 0.11631,-0.09745 0.17226,-0.148879 0.13747,-0.127636 0.26593,-0.265193 0.3815,-0.412514 0.0166,-0.02035 0.0332,-0.04233 0.0491,-0.06341 0.16774,-0.222213 0.31047,-0.463945 0.4231,-0.720773 0.0181,-0.04085 0.0354,-0.08309 0.0513,-0.12468 0.0801,-0.203263 0.14281,-0.415549 0.18432,-0.635383 0.008,-0.04307 0.0159,-0.08687 0.0227,-0.130668 0.0264,-0.176851 0.0408,-0.357394 0.0408,-0.541709 V 13.10428 c 0,-1.845692 -1.40446,-3.369592 -3.20037,-3.5599769 -0.0317,-0.00303 -0.0642,-0.00607 -0.096,-0.00837 -0.0325,-0.00221 -0.0657,-0.00451 -0.0982,-0.00599 h -6.9e-4 c -0.0612,-0.00303 -0.12165,-0.00459 -0.18366,-0.00459 h -21.77779 c -0.062,0 -0.12321,0.00156 -0.18358,0.00459 h -0.002 c -1.88801,0.097448 -3.39379,1.6636739 -3.39379,3.5743319 V 65.34022 c 0,1.8379 1.39209,3.356223 3.17708,3.557026 -0.0242,-0.0025 -0.0486,-0.004 -0.0727,-0.0069 h -0.002 c -0.0628,-0.0076 -0.12469,-0.01658 -0.18588,-0.02715 -0.37322,-0.06349 -0.72905,-0.179067 -1.05929,-0.339264 -0.0234,-0.01132 -0.046,-0.02265 -0.0695,-0.03404 -0.0589,-0.03092 -0.11714,-0.06193 -0.17455,-0.09515 -0.0264,-0.01509 -0.0521,-0.03019 -0.0778,-0.0461 -0.12993,-0.07858 -0.25535,-0.164711 -0.37478,-0.257646 -0.0219,-0.01658 -0.0431,-0.03322 -0.0642,-0.05061 -0.0634,-0.05135 -0.12533,-0.104256 -0.18505,-0.158639 -0.0197,-0.01814 -0.0393,-0.03626 -0.0582,-0.05512 -0.0227,-0.02116 -0.0446,-0.04233 -0.0665,-0.06423 -0.0212,-0.0219 -0.0431,-0.0438 -0.0642,-0.0657 -0.0143,-0.01444 -0.0279,-0.02879 -0.0415,-0.04388 -0.0174,-0.01886 -0.0348,-0.03781 -0.0514,-0.05668 -0.10122,-0.113281 -0.19563,-0.231893 -0.28332,-0.355834 -0.0158,-0.0219 -0.0309,-0.04454 -0.0461,-0.06644 -0.0476,-0.06956 -0.0921,-0.140594 -0.13444,-0.213107 -0.0159,-0.02568 -0.031,-0.05209 -0.0454,-0.07858 -0.10951,-0.196454 -0.20244,-0.402672 -0.27725,-0.616516 -0.0106,-0.02945 -0.0204,-0.05816 -0.0294,-0.0876 -0.0476,-0.14806 -0.0869,-0.299236 -0.11713,-0.453365 -0.006,-0.03092 -0.0121,-0.06193 -0.0174,-0.09285 -0.037,-0.217618 -0.0566,-0.441224 -0.0566,-0.669424 V 13.10428 c 0,-0.03929 6.9e-4,-0.07784 0.002,-0.116314 0,-0.02953 0.002,-0.05816 0.003,-0.08695 0.003,-0.06341 0.008,-0.126158 0.0143,-0.188827 0.003,-0.03248 0.007,-0.06496 0.0106,-0.09671 0.002,-0.01739 0.005,-0.03404 0.007,-0.05135 0.002,-0.02043 0.005,-0.04085 0.009,-0.06201 0.005,-0.03248 0.01,-0.06497 0.0159,-0.09745 0.01,-0.05668 0.0212,-0.112541 0.034,-0.167746 0.006,-0.02797 0.0129,-0.05512 0.0197,-0.08235 0.0196,-0.08235 0.0423,-0.162414 0.068,-0.242472 0.008,-0.02494 0.0166,-0.05061 0.0249,-0.07555 0.0106,-0.03101 0.0212,-0.06201 0.0325,-0.0922 0.009,-0.02567 0.0189,-0.05061 0.0287,-0.07555 0.008,-0.02116 0.0158,-0.04159 0.0249,-0.06193 0.01,-0.02494 0.0204,-0.04987 0.0309,-0.07407 0.008,-0.01887 0.0159,-0.03699 0.0249,-0.05512 0.0121,-0.02723 0.0242,-0.05364 0.0378,-0.08088 0.0219,-0.04684 0.0453,-0.09367 0.0703,-0.139775 0.0121,-0.02338 0.0249,-0.04684 0.0385,-0.07021 0.0143,-0.02723 0.0302,-0.05447 0.0461,-0.08088 0.10959,-0.186611 0.23419,-0.36338 0.37249,-0.529649 0.0196,-0.02338 0.0393,-0.04684 0.0596,-0.07021 0.0227,-0.02567 0.0454,-0.05217 0.0696,-0.07784 0.0393,-0.04233 0.0786,-0.08383 0.11935,-0.123943 0.0438,-0.0438 0.0884,-0.08613 0.1337,-0.127634 0.0461,-0.04077 0.0922,-0.08162 0.13986,-0.120908 0.0234,-0.0196 0.0476,-0.03855 0.0718,-0.058157 0.0483,-0.037733 0.0974,-0.074809 0.14806,-0.1110647 0.0499,-0.035518 0.10049,-0.070215 0.15257,-0.1042566 0.0522,-0.033221 0.10426,-0.065704 0.1579,-0.09671 0.0265,-0.015832 0.0536,-0.031006 0.0809,-0.046099 0.0272,-0.015093 0.0544,-0.029448 0.0815,-0.043802 0.028,-0.014356 0.0552,-0.028709 0.0832,-0.042326 0.0279,-0.013616 0.0559,-0.027151 0.0846,-0.040767 0.056,-0.025675 0.11337,-0.050611 0.17152,-0.07407 0.0272,-0.011319 0.0551,-0.02264 0.0831,-0.033221 l 0.008,-0.00303 c 0.028,-0.010582 0.0567,-0.020424 0.0846,-0.031006 0.028,-0.00902 0.0559,-0.018866 0.0838,-0.028709 0.0317,-0.00976 0.0635,-0.020343 0.096,-0.029448 0.0302,-0.00902 0.0605,-0.01739 0.0906,-0.025674 0.031,-0.00828 0.0612,-0.016651 0.0922,-0.024198 0.031,-0.00755 0.0619,-0.015093 0.0929,-0.021901 0.0627,-0.014356 0.12542,-0.026413 0.18891,-0.036994 0.0309,-0.00533 0.0627,-0.010582 0.0944,-0.015093 0.068,-0.00984 0.13674,-0.018127 0.20548,-0.024198 0.0544,-0.00533 0.10959,-0.00911 0.16471,-0.012058 0.0332,-0.00156 0.0673,-0.00303 0.10122,-0.00386 0.034,-8.138e-4 0.068,-0.00149 0.10205,-0.00149 h 21.77779 c 0.034,0 0.0681,8.138e-4 0.10204,0.00149 0.028,8.138e-4 0.0567,0.00156 0.0846,0.00303 0.0643,0.00303 0.12771,0.00755 0.1912,0.013616 h 0.002 c 0.0326,0.00303 0.0642,0.00681 0.096,0.010582 0.0325,0.00377 0.0642,0.00828 0.096,0.012879 0.0317,0.00451 0.0635,0.00976 0.0952,0.015093 0.0317,0.00525 0.0627,0.011319 0.0937,0.01739 h 0.001 c 0.031,0.00599 0.0619,0.012795 0.0929,0.019604 0.0287,0.00607 0.0567,0.012879 0.0846,0.018866 l 0.0182,0.00459 c 0.0264,0.00681 0.0528,0.013616 0.0792,0.021164 0.0371,0.00976 0.0741,0.020343 0.11041,0.031662 0.0249,0.00763 0.0498,0.015174 0.074,0.02346 0.0551,0.018127 0.10951,0.036994 0.16398,0.057419 0.037,0.012879 0.0733,0.027233 0.10876,0.042326 0.0264,0.010582 0.0521,0.021901 0.0786,0.033221 0.0287,0.012058 0.0567,0.024936 0.0854,0.038553 0.028,0.012795 0.0559,0.026413 0.0838,0.040029 0.19949,0.097448 0.3884,0.211548 0.56664,0.3407407 0.0219,0.015093 0.0439,0.031006 0.065,0.047576 0.0786,0.058978 0.15413,0.1201696 0.22746,0.1843976 0.0325,0.02789 0.0642,0.05668 0.0952,0.08613 0.12772,0.118611 0.24707,0.245507 0.35665,0.379211 0.0203,0.0242 0.0393,0.04766 0.0582,0.07177 0.04,0.05061 0.0778,0.101304 0.1141,0.152653 0.0189,0.02567 0.037,0.05217 0.0544,0.07858 0.0309,0.04454 0.0604,0.09064 0.0892,0.136739 0.0144,0.02338 0.028,0.04684 0.0422,0.07022 0.0257,0.04462 0.0514,0.08916 0.0755,0.135263 0.0121,0.0219 0.0242,0.0438 0.0348,0.06652 0.04,0.07629 0.0763,0.15339 0.11106,0.232711 0.008,0.02034 0.0174,0.04077 0.0257,0.06193 0.0325,0.07858 0.0627,0.158641 0.0899,0.239519 0.0106,0.03019 0.0204,0.05963 0.0295,0.0899 0.0544,0.173733 0.0966,0.35206 0.12689,0.534161 0.003,0.01887 0.006,0.03847 0.009,0.05889 0.005,0.03175 0.009,0.06349 0.0129,0.09523 0.004,0.03248 0.008,0.06415 0.0106,0.09663 0.004,0.03256 0.006,0.06505 0.009,0.09753 0.004,0.05963 0.007,0.119349 0.008,0.179803 0.001,0.03855 0.002,0.07702 0.002,0.115577 z M 222.2285,9.0343406 h -21.77852 c -2.24771,0 -4.07003,1.8223144 -4.07003,4.0699394 v 52.23594 c 0,2.247627 1.82232,4.069941 4.07003,4.069941 h 21.77852 c 2.24771,0 4.07003,-1.822314 4.07003,-4.069941 V 13.10428 c 0,-2.247625 -1.82232,-4.0699394 -4.07003,-4.0699394"
       style="fill:#00000c;fill-opacity:1;fill-rule:nonzero;stroke:none;stroke-width:0.00820272"
       id="path1146" />
    <g
       id="g1148"
       transform="matrix(0.00820271,0,0,-0.00820271,170.32568,80.233229)">
      <g
         id="g1150"
         clip-path="url(#clipPath1154)">
        <path
           d="m 3626.24,1381.62 c -3.87,0.37 -7.74,0.74 -11.61,1.2 h -0.27 c -7.65,0.92 -15.2,2.02 -22.66,3.31 -45.5,7.74 -88.88,21.83 -129.14,41.36 -2.85,1.38 -5.61,2.76 -8.47,4.15 -7.18,3.77 -14.28,7.55 -21.28,11.6 -3.22,1.84 -6.35,3.68 -9.48,5.62 -15.84,9.58 -31.13,20.08 -45.69,31.41 -2.67,2.02 -5.25,4.05 -7.83,6.17 -7.73,6.26 -15.28,12.71 -22.56,19.34 -2.4,2.21 -4.79,4.42 -7.09,6.72 -2.77,2.58 -5.44,5.16 -8.11,7.83 -2.58,2.67 -5.25,5.34 -7.83,8.01 -1.75,1.76 -3.4,3.51 -5.06,5.35 -2.12,2.3 -4.24,4.61 -6.27,6.91 -12.34,13.81 -23.85,28.27 -34.54,43.38 -1.93,2.67 -3.77,5.43 -5.62,8.1 -5.8,8.48 -11.23,17.14 -16.39,25.98 -1.94,3.13 -3.78,6.35 -5.53,9.58 -13.35,23.95 -24.68,49.09 -33.8,75.16 -1.29,3.59 -2.49,7.09 -3.59,10.68 -5.8,18.05 -10.59,36.48 -14.28,55.27 -0.74,3.77 -1.47,7.55 -2.12,11.32 -4.51,26.53 -6.9,53.79 -6.9,81.61 V 8137.7 c 0,258.35 204.29,469.92 459.79,481.8 -230.17,-11.88 -413.74,-202.82 -413.74,-435.75 V 1815.62 c 0,-225.01 171.13,-410.79 390.07,-434"
           style="fill:url(#linearGradient1162);fill-opacity:1;fill-rule:nonzero;stroke:none"
           id="path1164" />
      </g>
    </g>
    <g
       id="g1166"
       transform="matrix(0.00820271,0,0,-0.00820271,170.32568,80.233229)">
      <g
         id="g1168"
         clip-path="url(#clipPath1172)">
        <path
           d="M 6809.88,8137.7 V 1861.68 c 0,-51.67 -8.19,-101.5 -23.3,-148.2 -1.1,-3.59 -2.3,-7.19 -3.59,-10.68 -1.2,-3.6 -2.49,-7.1 -3.87,-10.6 -0.92,-2.67 -1.93,-5.34 -3.04,-7.92 -3.13,-7.82 -6.45,-15.56 -9.95,-23.21 -1.56,-3.4 -3.13,-6.81 -4.79,-10.13 -2.3,-4.69 -4.6,-9.3 -7.09,-13.91 -1.56,-3.13 -3.22,-6.17 -4.97,-9.21 -1.75,-3.22 -3.59,-6.45 -5.53,-9.67 -5.16,-8.84 -10.68,-17.59 -16.48,-26.16 -1.85,-2.67 -3.69,-5.43 -5.62,-8.1 -2.12,-3.04 -4.33,-5.99 -6.54,-8.94 -2.12,-3.04 -4.42,-5.99 -6.63,-8.84 -2.31,-2.95 -4.61,-5.8 -6.91,-8.66 -2.3,-2.85 -4.7,-5.71 -7.19,-8.56 -4.79,-5.62 -9.67,-11.15 -14.73,-16.49 -7.74,-8.29 -15.75,-16.3 -24.14,-24.13 -2.48,-2.21 -4.97,-4.52 -7.55,-6.82 -5.8,-5.16 -11.7,-10.13 -17.68,-15.1 -2.58,-2.03 -5.25,-4.06 -7.92,-6.17 -8.75,-6.82 -17.78,-13.27 -26.99,-19.44 -3.04,-2.02 -6.17,-4.05 -9.3,-6.08 -6.27,-4.05 -12.62,-7.83 -19.07,-11.51 -3.13,-1.84 -6.36,-3.69 -9.58,-5.34 -10.41,-5.72 -21,-11.06 -31.87,-15.85 -2.85,-1.38 -5.71,-2.58 -8.56,-3.77 -3.41,-1.57 -6.82,-2.95 -10.32,-4.33 -3.5,-1.38 -7,-2.77 -10.5,-4.06 -7.83,-2.94 -15.75,-5.7 -23.76,-8.19 -2.86,-0.92 -5.62,-1.75 -8.47,-2.58 -10.51,-3.13 -21.28,-5.9 -32.15,-8.29 -3.78,-0.83 -7.55,-1.66 -11.42,-2.4 -3.96,-0.83 -8.02,-1.56 -12.16,-2.21 -7.55,-1.29 -15.1,-2.39 -22.66,-3.31 h -0.28 c -3.86,-0.46 -7.73,-0.83 -11.6,-1.2 218.94,23.21 390.16,208.99 390.16,434 v 6368.13 c 0,228.97 -177.3,417.33 -401.86,435.02 249.98,-17.69 447.91,-226.68 447.91,-481.07"
           style="fill:url(#linearGradient1180);fill-opacity:1;fill-rule:nonzero;stroke:none"
           id="path1182" />
      </g>
    </g>
    <g
       id="g1184"
       transform="matrix(0.00820271,0,0,-0.00820271,170.32568,80.233229)">
      <g
         id="g1186"
         clip-path="url(#clipPath1190)">
        <path
           d="m 6809.88,1861.68 v -46.06 c 0,-266 -216.35,-482.35 -482.36,-482.35 H 3672.57 c -266.01,0 -482.45,216.35 -482.45,482.35 v 46.06 c 0,-27.82 2.39,-55.08 6.9,-81.61 0.65,-3.77 1.38,-7.55 2.12,-11.32 3.69,-18.79 8.48,-37.22 14.28,-55.27 1.1,-3.59 2.3,-7.09 3.59,-10.68 9.12,-26.07 20.45,-51.21 33.8,-75.16 1.75,-3.23 3.59,-6.45 5.53,-9.58 5.16,-8.84 10.59,-17.5 16.39,-25.98 1.85,-2.67 3.69,-5.43 5.62,-8.1 10.69,-15.11 22.2,-29.57 34.54,-43.38 2.03,-2.3 4.15,-4.61 6.27,-6.91 1.66,-1.84 3.31,-3.59 5.06,-5.35 2.58,-2.67 5.25,-5.34 7.83,-8.01 2.67,-2.67 5.34,-5.25 8.11,-7.83 2.3,-2.3 4.69,-4.51 7.09,-6.72 7.28,-6.63 14.83,-13.08 22.56,-19.34 2.58,-2.12 5.16,-4.15 7.83,-6.17 14.56,-11.33 29.85,-21.83 45.69,-31.41 3.13,-1.94 6.26,-3.78 9.48,-5.62 7,-4.05 14.1,-7.83 21.28,-11.6 2.86,-1.39 5.62,-2.77 8.47,-4.15 40.26,-19.53 83.64,-33.62 129.14,-41.36 7.46,-1.29 15.01,-2.39 22.66,-3.31 h 0.27 c 7.74,-0.92 15.48,-1.66 23.3,-2.21 3.96,-0.28 8.02,-0.55 11.98,-0.74 7.46,-0.37 15.01,-0.55 22.66,-0.55 h 2654.95 c 7.56,0 15.02,0.18 22.48,0.55 3.96,0.19 8.01,0.46 11.97,0.74 6.36,0.46 12.62,1.01 18.88,1.75 1.48,0.09 2.95,0.28 4.42,0.46 h 0.28 c 7.65,0.92 15.2,2.02 22.66,3.31 4.14,0.65 8.2,1.38 12.16,2.21 3.87,0.74 7.64,1.57 11.42,2.4 10.87,2.39 21.64,5.16 32.15,8.29 2.85,0.83 5.7,1.66 8.47,2.58 8.01,2.49 15.93,5.25 23.76,8.19 3.5,1.29 7,2.68 10.5,4.06 3.5,1.38 6.91,2.76 10.32,4.33 2.85,1.19 5.71,2.39 8.56,3.77 10.87,4.79 21.46,10.13 31.87,15.85 3.22,1.65 6.36,3.41 9.58,5.34 6.45,3.68 12.8,7.46 19.07,11.51 3.13,1.94 6.26,3.96 9.3,6.08 9.21,6.17 18.24,12.62 26.99,19.44 2.67,2.02 5.34,4.14 7.92,6.17 5.98,4.97 11.88,9.94 17.68,15.1 2.58,2.21 5.07,4.52 7.55,6.82 8.39,7.83 16.4,15.84 24.14,24.13 5.06,5.34 10.04,10.87 14.73,16.49 2.49,2.85 4.89,5.71 7.19,8.56 2.39,2.86 4.69,5.71 6.91,8.66 2.3,2.95 4.51,5.9 6.63,8.84 2.3,2.95 4.42,5.9 6.54,8.94 1.93,2.67 3.77,5.43 5.62,8.1 5.8,8.57 11.32,17.32 16.48,26.16 1.94,3.22 3.78,6.45 5.53,9.67 1.75,3.04 3.41,6.08 4.97,9.21 2.49,4.61 4.79,9.22 7.09,13.91 1.66,3.32 3.32,6.73 4.79,10.13 3.5,7.65 6.82,15.39 9.95,23.21 1.11,2.58 2.12,5.25 3.04,7.92 1.38,3.5 2.67,7 3.87,10.6 1.29,3.49 2.49,7.09 3.59,10.68 15.11,46.7 23.3,96.53 23.3,148.2"
           style="fill:url(#linearGradient1198);fill-opacity:1;fill-rule:nonzero;stroke:none"
           id="path1200" />
      </g>
    </g>
    <g
       id="g1202"
       transform="matrix(0.00820271,0,0,-0.00820271,170.32568,80.233229)">
      <g
         id="g1204"
         clip-path="url(#clipPath1208)">
        <path
           d="m 6809.88,8183.75 v -46.05 c 0,250.43 -191.76,456.84 -436.21,480.05 -3.87,0.37 -7.83,0.74 -11.7,1.02 -3.96,0.27 -8.01,0.55 -11.97,0.73 h -0.09 c -7.46,0.37 -14.83,0.56 -22.39,0.56 H 3672.57 c -7.56,0 -15.02,-0.19 -22.38,-0.56 h -0.28 c -255.5,-11.88 -459.79,-223.45 -459.79,-481.8 v 46.05 c 0,4.79 0.09,9.49 0.27,14.18 0,3.6 0.19,7.09 0.37,10.6 0.37,7.73 0.92,15.38 1.75,23.02 0.37,3.96 0.83,7.92 1.29,11.79 0.28,2.12 0.55,4.15 0.83,6.26 0.28,2.49 0.64,4.98 1.1,7.56 0.56,3.96 1.2,7.92 1.94,11.88 1.2,6.91 2.58,13.72 4.14,20.45 0.74,3.41 1.57,6.72 2.4,10.04 2.39,10.04 5.16,19.8 8.29,29.56 1.01,3.04 2.02,6.17 3.04,9.21 1.29,3.78 2.58,7.56 3.96,11.24 1.1,3.13 2.3,6.17 3.5,9.21 1.01,2.58 1.93,5.07 3.04,7.55 1.2,3.04 2.49,6.08 3.77,9.03 1.02,2.3 1.94,4.51 3.04,6.72 1.48,3.32 2.95,6.54 4.61,9.86 2.67,5.71 5.52,11.42 8.57,17.04 1.47,2.85 3.03,5.71 4.69,8.56 1.75,3.32 3.68,6.64 5.62,9.86 13.36,22.75 28.55,44.3 45.41,64.57 2.39,2.85 4.79,5.71 7.27,8.56 2.77,3.13 5.53,6.36 8.48,9.49 4.79,5.16 9.58,10.22 14.55,15.11 5.34,5.34 10.78,10.5 16.3,15.56 5.62,4.97 11.24,9.95 17.05,14.74 2.85,2.39 5.8,4.7 8.75,7.09 5.89,4.6 11.88,9.12 18.05,13.54 6.08,4.33 12.25,8.56 18.6,12.71 6.36,4.05 12.71,8.01 19.25,11.79 3.23,1.93 6.54,3.78 9.86,5.62 3.31,1.84 6.63,3.59 9.94,5.34 3.41,1.75 6.73,3.5 10.14,5.16 3.4,1.66 6.81,3.31 10.31,4.97 6.82,3.13 13.82,6.17 20.91,9.03 3.32,1.38 6.72,2.76 10.13,4.05 l 0.92,0.37 c 3.41,1.29 6.91,2.49 10.32,3.78 3.41,1.1 6.81,2.3 10.22,3.5 3.87,1.19 7.74,2.48 11.7,3.59 3.68,1.1 7.37,2.12 11.05,3.13 3.78,1.01 7.46,2.03 11.24,2.95 3.78,0.92 7.55,1.84 11.33,2.67 7.64,1.75 15.29,3.22 23.03,4.51 3.77,0.65 7.64,1.29 11.51,1.84 8.29,1.2 16.67,2.21 25.05,2.95 6.63,0.65 13.36,1.11 20.08,1.47 4.05,0.19 8.2,0.37 12.34,0.47 4.15,0.09 8.29,0.18 12.44,0.18 h 2654.95 c 4.15,0 8.3,-0.09 12.44,-0.18 3.41,-0.1 6.91,-0.19 10.31,-0.37 7.84,-0.37 15.57,-0.92 23.31,-1.66 h 0.27 c 3.97,-0.37 7.83,-0.83 11.7,-1.29 3.96,-0.46 7.83,-1.01 11.7,-1.57 3.87,-0.55 7.74,-1.19 11.61,-1.84 3.86,-0.64 7.64,-1.38 11.42,-2.12 h 0.18 c 3.78,-0.73 7.55,-1.56 11.33,-2.39 3.5,-0.74 6.91,-1.57 10.31,-2.3 l 2.22,-0.56 c 3.22,-0.83 6.44,-1.66 9.66,-2.58 4.52,-1.19 9.03,-2.48 13.46,-3.86 3.03,-0.93 6.07,-1.85 9.02,-2.86 6.72,-2.21 13.35,-4.51 19.99,-7 4.51,-1.57 8.93,-3.32 13.26,-5.16 3.22,-1.29 6.35,-2.67 9.58,-4.05 3.5,-1.47 6.91,-3.04 10.41,-4.7 3.41,-1.56 6.81,-3.22 10.22,-4.88 24.32,-11.88 47.35,-25.79 69.08,-41.54 2.67,-1.84 5.35,-3.78 7.92,-5.8 9.58,-7.19 18.79,-14.65 27.73,-22.48 3.96,-3.4 7.83,-6.91 11.6,-10.5 15.57,-14.46 30.12,-29.93 43.48,-46.23 2.48,-2.95 4.79,-5.81 7.09,-8.75 4.88,-6.17 9.48,-12.35 13.91,-18.61 2.3,-3.13 4.51,-6.36 6.63,-9.58 3.77,-5.43 7.37,-11.05 10.87,-16.67 1.75,-2.85 3.41,-5.71 5.15,-8.56 3.13,-5.44 6.27,-10.87 9.21,-16.49 1.48,-2.67 2.95,-5.34 4.24,-8.11 4.88,-9.3 9.3,-18.7 13.54,-28.37 1.02,-2.48 2.12,-4.97 3.13,-7.55 3.96,-9.58 7.65,-19.34 10.96,-29.2 1.29,-3.68 2.49,-7.27 3.6,-10.96 6.63,-21.18 11.78,-42.92 15.47,-65.12 0.37,-2.3 0.74,-4.69 1.1,-7.18 0.56,-3.87 1.11,-7.74 1.57,-11.61 0.46,-3.96 0.92,-7.82 1.29,-11.78 0.46,-3.97 0.74,-7.93 1.1,-11.89 0.47,-7.27 0.83,-14.55 1.02,-21.92 0.18,-4.7 0.27,-9.39 0.27,-14.09"
           style="fill:url(#linearGradient1216);fill-opacity:1;fill-rule:nonzero;stroke:none"
           id="path1218" />
      </g>
    </g>
    <path
       d="m 225.50524,65.34022 c 0,1.698373 -1.32597,3.133848 -3.01532,3.266813 -0.0302,0.0023 -0.0612,0.0045 -0.0921,0.0053 -0.0559,0.003 -0.11262,0.0045 -0.16931,0.0045 h -21.77779 c -0.0574,0 -0.11492,-0.0016 -0.17151,-0.0045 -0.0303,-9.3e-4 -0.0612,-0.003 -0.0892,-0.0053 -1.69156,-0.132965 -3.01679,-1.56844 -3.01679,-3.266813 V 13.10428 c 0,-1.742256 1.36066,-3.1784688 3.09988,-3.2721438 h 0.002 l 0.008,-8.138e-4 c 0.0551,-0.0023 0.1118,-0.00377 0.16848,-0.00377 h 21.77779 c 0.0567,0 0.11337,0.00146 0.16857,0.00377 l 0.005,8.138e-4 c 1.7407,0.091378 3.10292,1.5284118 3.10292,3.2721438 z M 222.4129,9.5299484 h -7e-4 c -0.0605,-0.00303 -0.12164,-0.00459 -0.18366,-0.00459 h -21.77779 c -0.062,0 -0.1232,0.00156 -0.18357,0.00459 h -0.002 c -1.88802,0.097448 -3.39379,1.6636746 -3.39379,3.5743316 v 52.23594 c 0,1.878177 1.4536,3.42324 3.29552,3.568263 0.0325,0.0023 0.0658,0.0045 0.0983,0.0061 0.0612,0.003 0.12312,0.0045 0.18588,0.0045 h 21.77779 c 0.062,0 0.1232,-0.0014 0.18439,-0.0045 0.0325,-0.0016 0.0657,-0.0038 0.0982,-0.0061 1.842,-0.145023 3.29634,-1.690086 3.29634,-3.568263 V 13.10428 c 0,-1.911478 -1.50651,-3.4776216 -3.39453,-3.5743316"
       style="fill:#000000;fill-opacity:1;fill-rule:nonzero;stroke:none;stroke-width:0.00820272"
       id="path1220" />
    <path
       d="m 224.40969,65.34022 c 0,1.130909 -0.88097,2.086197 -2.00548,2.174705 -0.0104,6.97e-4 -0.0214,0.0019 -0.032,0.0023 l -0.007,1.65e-4 -0.007,2.33e-4 -0.009,2.32e-4 -0.005,2.33e-4 -0.005,2.32e-4 c -0.0365,0.0019 -0.0736,0.003 -0.11016,0.003 h -21.77787 c -0.0376,0 -0.0757,-9.3e-4 -0.11328,-0.003 l -0.004,-2.32e-4 -0.004,-1.65e-4 -0.009,-4.66e-4 -0.006,-2.32e-4 -0.007,-1.65e-4 c -0.009,-2.33e-4 -0.0188,-0.0014 -0.0298,-0.0021 -1.12607,-0.08851 -2.00819,-1.043796 -2.00819,-2.174786 V 13.10428 c 0,-1.149282 0.89294,-2.101453 2.03689,-2.176672 h 0.0195 l 0.0295,-0.0027 c 0.035,-0.0012 0.0665,-0.0018 0.096,-0.0018 h 21.77787 c 0.0295,0 0.0617,8.14e-4 0.0981,0.0019 l 0.008,8.13e-4 0.0105,8.14e-4 c 1.1579,0.06078 2.06487,1.017547 2.06487,2.178149 z m -2.0232,-55.206306 -0.014,-0.0011 c -0.0473,-0.0018 -0.0956,-0.003 -0.14404,-0.003 h -21.77788 c -0.0495,0 -0.099,0.0012 -0.14732,0.0032 l -0.0148,0.0013 h -0.007 c -1.57418,0.08884 -2.80606,1.391918 -2.80606,2.969956 v 52.23595 c 0,1.542194 1.20276,2.844865 2.73929,2.96561 0.0226,0.0019 0.0475,0.0038 0.0719,0.0043 l 0.009,2.32e-4 c 0.0514,0.0028 0.10335,0.0042 0.15536,0.0042 h 21.77787 c 0.0512,0 0.10245,-0.0014 0.15298,-0.0042 l 0.009,-2.32e-4 c 0.0258,-4.65e-4 0.0514,-0.0025 0.0756,-0.0044 1.53465,-0.120744 2.73684,-1.423416 2.73684,-2.965528 V 13.10428 c 0,-1.582631 -1.23722,-2.887437 -2.81657,-2.970366"
       style="fill:#000000;fill-opacity:1;fill-rule:nonzero;stroke:none;stroke-width:0.00820272"
       id="path1242" />
    <path
       d="m 218.74334,10.923097 v 0.284798 c 0,0.958815 -0.77746,1.736186 -1.73619,1.736186 h -11.33582 c -0.95873,0 -1.73619,-0.777371 -1.73619,-1.736186 v -0.284798 h 14.8082"
       style="fill:#000000;fill-opacity:1;fill-rule:nonzero;stroke:none;stroke-width:0.00820272"
       id="path1244" />
    <path
       d="m 218.74334,10.923507 v 0.284798 c 0,0.958733 -0.77746,1.736186 -1.73619,1.736186 h -11.33582 c -0.95873,0 -1.73619,-0.777453 -1.73619,-1.736186 v -0.284798 h 14.8082"
       style="fill:#000000;fill-opacity:1;fill-rule:nonzero;stroke:none;stroke-width:0.00820272"
       id="path1246" />
    <g
       id="g1328"
       transform="matrix(0.00820271,0,0,-0.00820271,170.32568,80.233229)">
      <g
         id="g1330"
         clip-path="url(#clipPath1334)">
        <path
           d="m 5182.99,8376.54 h -388.27 c -9.78,0 -17.71,7.93 -17.71,17.71 v 9.09 c 0,9.79 7.93,17.72 17.71,17.72 h 388.27 c 9.78,0 17.71,-7.93 17.71,-17.72 v -9.09 c 0,-9.78 -7.93,-17.71 -17.71,-17.71"
           style="fill:url(#linearGradient1346);fill-opacity:1;fill-rule:nonzero;stroke:none"
           id="path1348" />
      </g>
    </g>
    <g
       id="g1350"
       transform="matrix(0.00820271,0,0,-0.00820271,170.32568,80.233229)">
      <g
         id="g1352"
         clip-path="url(#clipPath1356)">
        <path
           d="m 6345.09,8449.56 h -2.4 l -3.59,0.37 c -4.24,0.18 -8.1,0.18 -11.7,0.18 h -383.09 c -21.92,-1.1 -39.61,-18.05 -41.81,-39.7 -0.1,-1.47 -0.19,-2.95 -0.19,-4.51 v -0.56 c -5.25,-112.28 -97.92,-201.63 -211.4,-201.63 h -653.98 -74.06 -653.99 c -113.48,0 -206.14,89.35 -211.39,201.63 v 0.56 c 0,1.56 -0.1,3.04 -0.19,4.51 -2.21,21.65 -19.89,38.6 -41.82,39.7 h -383.09 c -3.59,0 -7.46,0 -11.69,-0.18 l -3.6,-0.37 h -2.39 c -139.46,-9.12 -248.33,-125.18 -248.33,-265.37 V 1815.72 c 0,-137.8 107.58,-254.32 244.83,-265.1 1.38,-0.09 2.49,-0.18 3.59,-0.27 h 0.92 l 0.74,-0.09 h 1.57 l 0.55,-0.09 c 4.6,-0.19 9.21,-0.38 13.81,-0.38 h 1290.48 74.06 1290.47 c 4.61,0 9.21,0.19 13.82,0.38 l 0.55,0.09 h 1.56 l 0.74,0.09 h 0.93 c 1.1,0.09 2.21,0.18 3.59,0.27 137.24,10.78 244.83,127.3 244.83,265.1 v 6368.47 c 0,140.19 -108.88,256.25 -248.33,265.37"
           style="fill:url(#linearGradient1093);fill-opacity:1;fill-rule:nonzero;stroke:none"
           id="path1366" />
      </g>
    </g>
    <image
       width="83.167839"
       height="46.806286"
       preserveAspectRatio="none"
       xlink:href="../raw/screenshot_responsive_fullhd.png"
       id="image1030"
       x="46.155521"
       y="6.0949678" />
    <image
       width="113.24167"
       height="242.35834"
       preserveAspectRatio="none"
       xlink:href="../raw/screenshot_responsive_smartphone.png"
       id="image1042"
       x="566.08325"
       y="69.721153"
       clip-path="url(#clipPath1083)"
       transform="matrix(0.23251783,0,0,0.23251783,66.825019,-3.5282069)" />
    <path
       style="fill:url(#linearGradient2387);fill-opacity:1;stroke:none;stroke-width:0.108979px;stroke-linecap:butt;stroke-linejoin:miter;stroke-opacity:1"
       d="m 141.51182,39.378165 9.80809,10.89789 v -5.993838 c 4.35916,-2.174325 8.71832,-2.719217 13.62237,-2.724474 v -4.359154 c -4.90405,0.0052 -9.26321,-0.539641 -13.62237,-2.724472 l 1e-5,-5.988585 z"
       id="path1621"
       sodipodi:nodetypes="cccccccc" />
    <path
       style="fill:url(#linearGradient4391);fill-opacity:1;stroke:none;stroke-width:0.108979px;stroke-linecap:butt;stroke-linejoin:miter;stroke-opacity:1"
       d="m 189.46253,39.378165 -9.8081,10.89789 V 44.282217 C 175.29527,42.107892 170.93612,41.563 166.03207,41.557743 v -4.359154 c 4.90405,0.0052 9.2632,-0.539641 13.62236,-2.724472 v -5.988585 z"
       id="path4389"
       sodipodi:nodetypes="cccccccc" />
  </g>
</svg>
