<?xml version="1.0" encoding="UTF-8" standalone="no"?>
<!-- Created with Inkscape (http://www.inkscape.org/) -->

<svg
   width="100.09134mm"
   height="14.101514mm"
   viewBox="0 0 100.09134 14.101514"
   version="1.1"
   id="svg1092"
   inkscape:version="1.2.2 (b0a8486541, 2022-12-01)"
   sodipodi:docname="slurm-web_metrics.svg"
   xml:space="preserve"
   xmlns:inkscape="http://www.inkscape.org/namespaces/inkscape"
   xmlns:sodipodi="http://sodipodi.sourceforge.net/DTD/sodipodi-0.dtd"
   xmlns="http://www.w3.org/2000/svg"
   xmlns:svg="http://www.w3.org/2000/svg"><sodipodi:namedview
     id="namedview1094"
     pagecolor="#ffffff"
     bordercolor="#666666"
     borderopacity="1.0"
     inkscape:pageshadow="2"
     inkscape:pageopacity="0.0"
     inkscape:pagecheckerboard="0"
     inkscape:document-units="mm"
     showgrid="true"
     fit-margin-top="0"
     fit-margin-left="0"
     fit-margin-right="0"
     fit-margin-bottom="0"
     inkscape:zoom="0.77771465"
     inkscape:cx="196.08734"
     inkscape:cy="37.288741"
     inkscape:window-width="1920"
     inkscape:window-height="1131"
     inkscape:window-x="0"
     inkscape:window-y="0"
     inkscape:window-maximized="1"
     inkscape:current-layer="layer1"
     inkscape:showpageshadow="2"
     inkscape:deskcolor="#d1d1d1"><inkscape:grid
       type="xygrid"
       id="grid1625"
       originx="-24.262822"
       originy="-18.084724" /></sodipodi:namedview><defs
     id="defs1089"><marker
       style="overflow:visible"
       id="Arrow2Mend"
       refX="0"
       refY="0"
       orient="auto"
       inkscape:stockid="Arrow2Mend"
       inkscape:isstock="true"><path
         transform="scale(-0.6)"
         d="M 8.7185878,4.0337352 -2.2072895,0.01601326 8.7185884,-4.0017078 c -1.7454984,2.3720609 -1.7354408,5.6174519 -6e-7,8.035443 z"
         style="fill:context-stroke;fill-rule:evenodd;stroke:context-stroke;stroke-width:0.625;stroke-linejoin:round"
         id="path2860" /></marker><marker
       style="overflow:visible"
       id="Arrow2Lend"
       refX="0"
       refY="0"
       orient="auto"
       inkscape:stockid="Arrow2Lend"
       inkscape:isstock="true"><path
         transform="matrix(-1.1,0,0,-1.1,-1.1,0)"
         d="M 8.7185878,4.0337352 -2.2072895,0.01601326 8.7185884,-4.0017078 c -1.7454984,2.3720609 -1.7354408,5.6174519 -6e-7,8.035443 z"
         style="fill:context-stroke;fill-rule:evenodd;stroke:context-stroke;stroke-width:0.625;stroke-linejoin:round"
         id="path2854" /></marker><marker
       style="overflow:visible"
       id="Arrow1Lend"
       refX="0"
       refY="0"
       orient="auto"
       inkscape:stockid="Arrow1Lend"
       inkscape:isstock="true"><path
         transform="matrix(-0.8,0,0,-0.8,-10,0)"
         style="fill:context-stroke;fill-rule:evenodd;stroke:context-stroke;stroke-width:1pt"
         d="M 0,0 5,-5 -12.5,0 5,5 Z"
         id="path2836" /></marker><marker
       style="overflow:visible"
       id="Arrow1Mend"
       refX="0"
       refY="0"
       orient="auto"
       inkscape:stockid="Arrow1Mend"
       inkscape:isstock="true"><path
         transform="matrix(-0.4,0,0,-0.4,-4,0)"
         style="fill:context-stroke;fill-rule:evenodd;stroke:context-stroke;stroke-width:1pt"
         d="M 0,0 5,-5 -12.5,0 5,5 Z"
         id="path2842" /></marker></defs><g
     inkscape:label="Calque 1"
     inkscape:groupmode="layer"
     id="layer1"
     transform="translate(-24.262822,-18.084722)"><g
       id="g1458"
       style="opacity:0.9;fill:#e6522c;fill-opacity:1;stroke:none"
       transform="translate(-1.3229167)"><path
         style="fill:#e6522c;fill-opacity:1;stroke:none;stroke-width:0.264583px;stroke-linecap:butt;stroke-linejoin:miter;stroke-opacity:1"
         d="m 47.625001,19.84375 h 1.322916 l 2.645834,5.291667 -2.645834,5.291666 h -1.322916 l 2.645833,-5.291666 z"
         id="path1406"
         sodipodi:nodetypes="ccccccc" /></g><g
       id="g1462"
       style="opacity:0.7;fill:#e6522c;fill-opacity:1;stroke:none"
       transform="translate(-3.9687497)"><path
         style="fill:#e6522c;fill-opacity:1;stroke:none;stroke-width:0.264583px;stroke-linecap:butt;stroke-linejoin:miter;stroke-opacity:1"
         d="m 47.625001,19.84375 h 1.322916 l 2.645834,5.291667 -2.645834,5.291666 h -1.322916 l 2.645833,-5.291666 z"
         id="path1460"
         sodipodi:nodetypes="ccccccc" /></g><g
       id="g1466"
       style="opacity:0.5;fill:#e6522c;fill-opacity:1;stroke:none"
       transform="translate(-6.614583)"><path
         style="fill:#e6522c;fill-opacity:1;stroke:none;stroke-width:0.264583px;stroke-linecap:butt;stroke-linejoin:miter;stroke-opacity:1"
         d="m 47.625001,19.84375 h 1.322916 l 2.645834,5.291667 -2.645834,5.291666 h -1.322916 l 2.645833,-5.291666 z"
         id="path1464"
         sodipodi:nodetypes="ccccccc" /></g><g
       id="g1470"
       style="opacity:0.3;fill:#e6522c;fill-opacity:1;stroke:none"
       transform="translate(-9.2604165)"><path
         style="fill:#e6522c;fill-opacity:1;stroke:none;stroke-width:0.264583px;stroke-linecap:butt;stroke-linejoin:miter;stroke-opacity:1"
         d="m 47.625001,19.84375 h 1.322916 l 2.645834,5.291667 -2.645834,5.291666 h -1.322916 l 2.645833,-5.291666 z"
         id="path1468"
         sodipodi:nodetypes="ccccccc" /></g><g
       id="g1474"
       style="opacity:0.1;fill:#e6522c;fill-opacity:1;stroke:none"
       transform="translate(-11.90625)"><path
         style="fill:#e6522c;fill-opacity:1;stroke:none;stroke-width:0.264583px;stroke-linecap:butt;stroke-linejoin:miter;stroke-opacity:1"
         d="m 47.625001,19.84375 h 1.322916 l 2.645834,5.291667 -2.645834,5.291666 h -1.322916 l 2.645833,-5.291666 z"
         id="path1472"
         sodipodi:nodetypes="ccccccc" /></g><rect
       style="fill:#e2ebef;fill-opacity:1;stroke:none;stroke-width:0.830266;stroke-linecap:round;stroke-linejoin:round;stroke-opacity:1"
       id="rect16105"
       width="29.104162"
       height="10.583333"
       x="95.25"
       y="19.843748"
       rx="1.3229166"
       ry="1.3229166" /><rect
       style="fill:#c1dce8;fill-opacity:1;stroke:none;stroke-width:0.433545;stroke-linecap:round;stroke-linejoin:round;stroke-opacity:1"
       id="rect15627"
       width="29.10417"
       height="10.583335"
       x="54.239582"
       y="19.843748"
       rx="1.3229185"
       ry="1.3229185" /><path
       style="fill:none;stroke:#000000;stroke-width:0.264583px;stroke-linecap:butt;stroke-linejoin:miter;stroke-opacity:1;marker-end:url(#Arrow2Mend)"
       d="m 84.666665,25.135416 h 9.260417"
       id="path31623"
       sodipodi:nodetypes="cc" /><text
       xml:space="preserve"
       style="font-style:normal;font-weight:normal;font-size:4.23333px;line-height:1.25;font-family:sans-serif;text-align:center;text-anchor:middle;fill:#000000;fill-opacity:1;stroke:none;stroke-width:0.264583"
       x="68.048332"
       y="26.446669"
       id="text4459"><tspan
         sodipodi:role="line"
         style="font-style:normal;font-variant:normal;font-weight:normal;font-stretch:normal;font-size:4.23333px;font-family:Raleway;-inkscape-font-specification:Raleway;text-align:center;text-anchor:middle;fill:#000000;fill-opacity:1;stroke-width:0.264583"
         x="68.048332"
         y="26.446669"
         id="tspan4457">Slurm-web</tspan></text><text
       xml:space="preserve"
       style="font-style:normal;font-weight:normal;font-size:4.23333px;line-height:1.25;font-family:sans-serif;text-align:center;text-anchor:middle;fill:#000000;fill-opacity:1;stroke:none;stroke-width:0.264583"
       x="110.87452"
       y="26.411884"
       id="text15039"><tspan
         sodipodi:role="line"
         style="font-style:normal;font-variant:normal;font-weight:normal;font-stretch:normal;font-size:4.23333px;font-family:Raleway;-inkscape-font-specification:Raleway;text-align:center;text-anchor:middle;fill:#000000;fill-opacity:1;stroke-width:0.264583"
         x="110.87452"
         y="26.411884"
         id="tspan15037">Slurm</tspan></text><g
       id="g3345"
       transform="matrix(0.12442768,0,0,0.12442768,24.262822,18.001729)"><g
         id="Layer_2" /><path
         style="fill:#e6522c;fill-opacity:1"
         inkscape:connector-curvature="0"
         id="path4486"
         d="M 56.667,0.667 C 25.372,0.667 0,26.036 0,57.332 c 0,31.295 25.372,56.666 56.667,56.666 31.295,0 56.666,-25.371 56.666,-56.666 0,-31.296 -25.372,-56.665 -56.666,-56.665 z m 0,106.055 c -8.904,0 -16.123,-5.948 -16.123,-13.283 H 72.79 c 0,7.334 -7.219,13.283 -16.123,13.283 z M 83.297,89.04 H 30.034 V 79.382 H 83.298 V 89.04 Z M 83.106,74.411 H 30.186 C 30.01,74.208 29.83,74.008 29.66,73.802 24.208,67.182 22.924,63.726 21.677,60.204 c -0.021,-0.116 6.611,1.355 11.314,2.413 0,0 2.42,0.56 5.958,1.205 -3.397,-3.982 -5.414,-9.044 -5.414,-14.218 0,-11.359 8.712,-21.285 5.569,-29.308 3.059,0.249 6.331,6.456 6.552,16.161 3.252,-4.494 4.613,-12.701 4.613,-17.733 0,-5.21 3.433,-11.262 6.867,-11.469 -3.061,5.045 0.793,9.37 4.219,20.099 1.285,4.03 1.121,10.812 2.113,15.113 C 63.797,33.534 65.333,20.5 71,16 c -2.5,5.667 0.37,12.758 2.333,16.167 3.167,5.5 5.087,9.667 5.087,17.548 0,5.284 -1.951,10.259 -5.242,14.148 3.742,-0.702 6.326,-1.335 6.326,-1.335 l 12.152,-2.371 c 10e-4,-10e-4 -1.765,7.261 -8.55,14.254 z" /></g></g></svg>
