<?xml version="1.0" encoding="UTF-8" standalone="no"?>
<!-- Created with Inkscape (http://www.inkscape.org/) -->

<svg
   width="51mm"
   height="51mm"
   viewBox="0 0 51 51"
   version="1.1"
   id="svg7951"
   inkscape:version="1.1.2 (0a00cf5339, 2022-02-04)"
   sodipodi:docname="favicon.svg"
   xmlns:inkscape="http://www.inkscape.org/namespaces/inkscape"
   xmlns:sodipodi="http://sodipodi.sourceforge.net/DTD/sodipodi-0.dtd"
   xmlns="http://www.w3.org/2000/svg"
   xmlns:svg="http://www.w3.org/2000/svg">
  <sodipodi:namedview
     id="namedview7953"
     pagecolor="#ffffff"
     bordercolor="#666666"
     borderopacity="1.0"
     inkscape:pageshadow="2"
     inkscape:pageopacity="0.0"
     inkscape:pagecheckerboard="0"
     inkscape:document-units="mm"
     showgrid="false"
     fit-margin-top="0"
     fit-margin-left="0"
     fit-margin-right="0"
     fit-margin-bottom="0"
     inkscape:zoom="1.0998546"
     inkscape:cx="758.73665"
     inkscape:cy="-135.92706"
     inkscape:window-width="3840"
     inkscape:window-height="2096"
     inkscape:window-x="0"
     inkscape:window-y="0"
     inkscape:window-maximized="1"
     inkscape:current-layer="layer1" />
  <defs
     id="defs7948" />
  <g
     inkscape:label="Calque 1"
     inkscape:groupmode="layer"
     id="layer1"
     transform="translate(-6.1751771,-12.730639)">
    <g
       id="g11609"
       transform="translate(0,0.90600875)">
      <g
         id="g11582"
         transform="matrix(0.91357835,0,0,0.91357835,2.628707,4.0629342)">
        <path
           style="fill:none;fill-opacity:1;stroke:#c0c0c0;stroke-width:1;stroke-linecap:butt;stroke-linejoin:round;stroke-miterlimit:4;stroke-dasharray:none;stroke-opacity:1"
           d="m 22.979,56.98067 25.9807,-15"
           id="path1038"
           sodipodi:nodetypes="cc" />
        <path
           style="fill:none;fill-opacity:1;stroke:#c0c0c0;stroke-width:1;stroke-linecap:butt;stroke-linejoin:round;stroke-miterlimit:4;stroke-dasharray:none;stroke-opacity:1"
           d="m 14.3187,51.98067 25.9807,-15"
           id="path1042"
           sodipodi:nodetypes="cc" />
        <path
           style="fill:none;fill-opacity:1;stroke:#c0c0c0;stroke-width:1;stroke-linecap:butt;stroke-linejoin:round;stroke-miterlimit:4;stroke-dasharray:none;stroke-opacity:1"
           d="m 40.2995,56.98067 -25.9808,-15"
           id="path1048"
           sodipodi:nodetypes="cc" />
        <path
           style="fill:none;fill-opacity:1;stroke:#c0c0c0;stroke-width:1;stroke-linecap:butt;stroke-linejoin:round;stroke-miterlimit:4;stroke-dasharray:none;stroke-opacity:1"
           d="m 48.9597,51.98067 -25.9808,-15"
           id="path1052"
           sodipodi:nodetypes="cc" />
        <path
           style="fill:none;fill-opacity:1;stroke:#c0c0c0;stroke-width:1;stroke-linecap:butt;stroke-linejoin:round;stroke-miterlimit:4;stroke-dasharray:none;stroke-opacity:1"
           d="m 31.6392,31.98067 -25.9808,15 25.9808,15 25.9808,-15 z"
           id="path1056" />
      </g>
      <g
         id="g11575"
         transform="matrix(0.91357835,0,0,0.91357835,2.628707,4.0629342)">
        <path
           id="ellipse1060"
           style="fill:#c0c0c0;fill-opacity:1;stroke:#747474;stroke-width:0.374946;stroke-linecap:round;stroke-linejoin:round;stroke-miterlimit:4;stroke-dasharray:none;stroke-opacity:0"
           d="m 31.576172,60.828125 c -0.845497,-0.0628 -1.926544,0.761663 -1.377634,1.64733 0.692984,0.999279 2.771834,0.884743 3.029693,-0.422661 0.08544,-0.85923 -0.938365,-1.267883 -1.652059,-1.224669 z" />
        <path
           id="ellipse1064"
           style="fill:#c0c0c0;fill-opacity:1;stroke:#747474;stroke-width:0.374946;stroke-linecap:round;stroke-linejoin:round;stroke-miterlimit:4;stroke-dasharray:none;stroke-opacity:0"
           d="m 40.236328,55.828125 c -0.845497,-0.0628 -1.926544,0.761663 -1.377634,1.64733 0.692984,0.999279 2.771835,0.884743 3.029693,-0.422661 0.08544,-0.85923 -0.938365,-1.267883 -1.652059,-1.224669 z" />
        <path
           id="ellipse1068"
           style="fill:#c0c0c0;fill-opacity:1;stroke:#747474;stroke-width:0.374946;stroke-linecap:round;stroke-linejoin:round;stroke-miterlimit:4;stroke-dasharray:none;stroke-opacity:0"
           d="m 48.896484,50.828125 c -0.845497,-0.0628 -1.926544,0.761663 -1.377634,1.64733 0.692984,0.999279 2.771835,0.884743 3.029693,-0.422661 0.08794,-0.860202 -0.941407,-1.267432 -1.652059,-1.224669 z" />
        <path
           id="ellipse1084"
           style="fill:#c0c0c0;fill-opacity:1;stroke:#747474;stroke-width:0.374946;stroke-linecap:round;stroke-linejoin:round;stroke-miterlimit:4;stroke-dasharray:none;stroke-opacity:0"
           d="m 22.916016,55.828125 c -0.845497,-0.0628 -1.926544,0.761663 -1.377635,1.64733 0.692985,0.999279 2.771835,0.884743 3.029694,-0.422661 0.08544,-0.85923 -0.938366,-1.267883 -1.652059,-1.224669 z" />
        <path
           id="ellipse1088"
           style="fill:#c0c0c0;fill-opacity:1;stroke:#747474;stroke-width:0.374946;stroke-linecap:round;stroke-linejoin:round;stroke-miterlimit:4;stroke-dasharray:none;stroke-opacity:0"
           d="m 31.576172,50.828125 c -0.845497,-0.0628 -1.926544,0.761663 -1.377634,1.64733 0.692984,0.999279 2.771834,0.884743 3.029693,-0.422661 0.08544,-0.85923 -0.938365,-1.267883 -1.652059,-1.224669 z" />
        <path
           id="ellipse1092"
           style="fill:#c0c0c0;fill-opacity:1;stroke:#747474;stroke-width:0.374946;stroke-linecap:round;stroke-linejoin:round;stroke-miterlimit:4;stroke-dasharray:none;stroke-opacity:0"
           d="m 40.236328,45.828125 c -0.845497,-0.0628 -1.926544,0.761663 -1.377634,1.64733 0.692984,0.999279 2.771835,0.884743 3.029693,-0.422661 0.08794,-0.860202 -0.941407,-1.267432 -1.652059,-1.224669 z" />
        <path
           id="ellipse1108"
           style="fill:#c0c0c0;fill-opacity:1;stroke:#747474;stroke-width:0.374946;stroke-linecap:round;stroke-linejoin:round;stroke-miterlimit:4;stroke-dasharray:none;stroke-opacity:0"
           d="m 14.255859,50.828125 c -0.845497,-0.0628 -1.926544,0.761663 -1.377634,1.64733 0.693218,0.999014 2.767891,0.884477 3.029619,-0.420715 0.08659,-0.860315 -0.939396,-1.270166 -1.651985,-1.226615 z" />
        <path
           id="ellipse1112"
           style="fill:#c0c0c0;fill-opacity:1;stroke:#747474;stroke-width:0.374946;stroke-linecap:round;stroke-linejoin:round;stroke-miterlimit:4;stroke-dasharray:none;stroke-opacity:0"
           d="m 22.916016,45.828125 c -0.845497,-0.0628 -1.926544,0.761663 -1.377635,1.64733 0.692985,0.999279 2.771835,0.884743 3.029694,-0.422661 0.08544,-0.85923 -0.938366,-1.267883 -1.652059,-1.224669 z" />
        <path
           id="ellipse1116"
           style="fill:#c0c0c0;fill-opacity:1;stroke:#747474;stroke-width:0.374946;stroke-linecap:round;stroke-linejoin:round;stroke-miterlimit:4;stroke-dasharray:none;stroke-opacity:0"
           d="m 31.576172,40.828125 c -0.845497,-0.0628 -1.926544,0.761663 -1.377634,1.64733 0.692984,0.999279 2.771834,0.884743 3.029693,-0.422661 0.08794,-0.860202 -0.941407,-1.267432 -1.652059,-1.224669 z" />
        <path
           id="ellipse1132"
           style="fill:#c0c0c0;fill-opacity:1;stroke:#747474;stroke-width:0.374946;stroke-linecap:round;stroke-linejoin:round;stroke-miterlimit:4;stroke-dasharray:none;stroke-opacity:0"
           d="m 57.556641,45.828125 c -0.845497,-0.0628 -1.926544,0.761663 -1.377635,1.64733 0.692985,0.999279 2.771835,0.884743 3.029694,-0.422661 0.08794,-0.860202 -0.941408,-1.267432 -1.652059,-1.224669 z" />
        <path
           id="ellipse1136"
           style="fill:#c0c0c0;fill-opacity:1;stroke:#747474;stroke-width:0.374946;stroke-linecap:round;stroke-linejoin:round;stroke-miterlimit:4;stroke-dasharray:none;stroke-opacity:0"
           d="m 48.896484,40.828125 c -0.845497,-0.0628 -1.926544,0.761663 -1.377634,1.64733 0.692984,0.999279 2.771835,0.884743 3.029693,-0.422661 0.08794,-0.860202 -0.941407,-1.267432 -1.652059,-1.224669 z" />
        <path
           id="ellipse1140"
           style="fill:#c0c0c0;fill-opacity:1;stroke:#747474;stroke-width:0.374946;stroke-linecap:round;stroke-linejoin:round;stroke-miterlimit:4;stroke-dasharray:none;stroke-opacity:0"
           d="m 40.236328,35.828125 c -0.845497,-0.0628 -1.926544,0.761663 -1.377634,1.64733 0.692984,0.999279 2.771835,0.884743 3.029693,-0.422661 0.08794,-0.860202 -0.941407,-1.267432 -1.652059,-1.224669 z" />
        <path
           id="ellipse1144"
           style="fill:#c0c0c0;fill-opacity:1;stroke:#747474;stroke-width:0.374946;stroke-linecap:round;stroke-linejoin:round;stroke-miterlimit:4;stroke-dasharray:none;stroke-opacity:0"
           d="m 5.5957031,45.828125 c -0.845497,-0.0628 -1.926544,0.761663 -1.3776343,1.64733 0.6934181,0.998823 2.7696038,0.885782 3.0290296,-0.42253 0.08645,-0.859393 -0.9398582,-1.268214 -1.6513953,-1.2248 z" />
        <path
           id="ellipse1148"
           style="fill:#c0c0c0;fill-opacity:1;stroke:#747474;stroke-width:0.374946;stroke-linecap:round;stroke-linejoin:round;stroke-miterlimit:4;stroke-dasharray:none;stroke-opacity:0"
           d="m 14.255859,40.828125 c -0.845497,-0.0628 -1.926544,0.761663 -1.377634,1.64733 0.693218,0.999014 2.767891,0.884477 3.029619,-0.420715 0.08659,-0.860315 -0.939396,-1.270166 -1.651985,-1.226615 z" />
        <path
           id="ellipse1152"
           style="fill:#c0c0c0;fill-opacity:1;stroke:#747474;stroke-width:0.374946;stroke-linecap:round;stroke-linejoin:round;stroke-miterlimit:4;stroke-dasharray:none;stroke-opacity:0"
           d="m 22.916016,35.828125 c -0.845497,-0.0628 -1.926544,0.761663 -1.377635,1.64733 0.692985,0.999279 2.771835,0.884743 3.029694,-0.422661 0.08544,-0.85923 -0.938366,-1.267883 -1.652059,-1.224669 z" />
        <path
           id="ellipse1156"
           style="fill:#c0c0c0;fill-opacity:1;stroke:#747474;stroke-width:0.374946;stroke-linecap:round;stroke-linejoin:round;stroke-miterlimit:4;stroke-dasharray:none;stroke-opacity:0"
           d="m 31.578125,30.888672 c -0.844913,-0.06594 -1.928269,0.760677 -1.379747,1.645484 0.692132,1.000868 2.7702,0.886011 3.029928,-0.420808 0.09123,-0.854208 -0.943131,-1.271318 -1.650181,-1.224676 z" />
      </g>
      <path
         style="opacity:0.9;fill:#98acbd;fill-opacity:1;stroke:none;stroke-width:0.264583px;stroke-linecap:butt;stroke-linejoin:miter;stroke-opacity:1"
         d="m 8.256467,38.480641 c -1.732,-1 -1.732,-2 0,-3 l 20.7845,-12 c 1.7321,-1 3.4641,-1 5.1962,0 l 20.7846,12 c 1.7321,1 1.7321,2 0,3 l -20.7846,12.000056 c -1.7321,1 -3.4641,1 -5.1962,0 z"
         id="path1160"
         sodipodi:nodetypes="ccccccccc" />
      <path
         style="opacity:0.9;fill:#6aa0cb;fill-opacity:1;stroke:none;stroke-width:0.264583px;stroke-linecap:butt;stroke-linejoin:miter;stroke-opacity:1"
         d="m 8.256467,28.480641 c -1.732,-1 -1.732,-2 0,-3 l 20.7845,-12.000002 c 1.7321,-1 3.4641,-1 5.1962,0 l 20.7846,12.000002 c 1.7321,1 1.7321,2 0,3 l -20.7846,12.00006 c -1.7321,1 -3.4641,1 -5.1962,0 z"
         id="path1162"
         sodipodi:nodetypes="ccccccccc" />
    </g>
  </g>
</svg>
