<svg width="1280" height="384" preserveAspectRatio="none" viewBox="0 0 338.667 101.6" xmlns="http://www.w3.org/2000/svg"><path style="opacity:.15;fill:none;stroke:#919191;stroke-width:.529167;stroke-linecap:butt;stroke-linejoin:miter;stroke-dasharray:none;stroke-opacity:1" d="M1.306 9.26v91.282h337.36"/><path style="opacity:.15;fill:#919191;fill-opacity:1;stroke-width:.588197;stroke-linecap:round;stroke-linejoin:round;stroke-dasharray:.311254,.311254" d="M14.569 35.719h6.597v62.177h-6.597z"/><path style="opacity:.15;fill:#919191;fill-opacity:1;stroke-width:.549371;stroke-linecap:round;stroke-linejoin:round;stroke-dasharray:.290709,.290709" d="M25.135 43.656h6.597v54.24h-6.597z"/><path style="opacity:.15;fill:#919191;fill-opacity:1;stroke-width:.499999;stroke-linecap:round;stroke-linejoin:round;stroke-dasharray:.264583,.264583" d="M35.719 52.942h6.597v44.929h-6.597z"/><path style="opacity:.15;fill:#919191;fill-opacity:1;stroke-width:.462033;stroke-linecap:round;stroke-linejoin:round;stroke-dasharray:.244492,.244492" d="M46.302 59.531h6.597v38.365h-6.597z"/><path style="opacity:.15;fill:#919191;fill-opacity:1;stroke-width:.445816;stroke-linecap:round;stroke-linejoin:round;stroke-dasharray:.235911,.235911" d="M56.885 62.177h6.597v35.719h-6.597z"/><path style="opacity:.15;fill:#919191;fill-opacity:1;stroke-width:.437482;stroke-linecap:round;stroke-linejoin:round;stroke-dasharray:.231501,.231501" d="M67.451 63.5h6.597v34.396h-6.597z"/><path style="opacity:.15;fill:#919191;fill-opacity:1;stroke-width:.445658;stroke-linecap:round;stroke-linejoin:round;stroke-dasharray:.235828,.235828" d="M78.035 62.177h6.597V97.87h-6.597z"/><path style="opacity:.15;fill:#919191;fill-opacity:1;stroke-width:.462033;stroke-linecap:round;stroke-linejoin:round;stroke-dasharray:.244492,.244492" d="M88.635 59.531h6.597v38.365h-6.597z"/><path style="opacity:.15;fill:#919191;fill-opacity:1;stroke-width:.485343;stroke-linecap:round;stroke-linejoin:round;stroke-dasharray:.256827,.256827" d="M99.219 55.563h6.597v42.333h-6.597z"/><path style="opacity:.15;fill:#919191;fill-opacity:1;stroke-width:.507584;stroke-linecap:round;stroke-linejoin:round;stroke-dasharray:.268597,.268597" d="M109.785 51.594h6.597v46.302h-6.597z"/><path style="opacity:.15;fill:#919191;fill-opacity:1;stroke-width:.52175;stroke-linecap:round;stroke-linejoin:round;stroke-dasharray:.276093,.276093" d="M120.368 48.948h6.597v48.923h-6.597z"/><path style="opacity:.15;fill:#919191;fill-opacity:1;stroke-width:.535804;stroke-linecap:round;stroke-linejoin:round;stroke-dasharray:.28353,.28353" d="M130.951 46.302h6.597v51.594h-6.597zm10.584 0h6.597v51.594h-6.597z"/><path style="opacity:.15;fill:#919191;fill-opacity:1;stroke-width:.521885;stroke-linecap:round;stroke-linejoin:round;stroke-dasharray:.276164,.276164" d="M152.101 48.948h6.597v48.948h-6.597z"/><path style="opacity:.15;fill:#919191;fill-opacity:1;stroke-width:.499999;stroke-linecap:round;stroke-linejoin:round;stroke-dasharray:.264583,.264583" d="M162.684 52.942h6.597v44.929h-6.597z"/><path style="opacity:.15;fill:#919191;fill-opacity:1;stroke-width:.514784;stroke-linecap:round;stroke-linejoin:round;stroke-dasharray:.272407,.272407" d="M173.285 50.271h6.597v47.625h-6.597z"/><path style="opacity:.15;fill:#919191;fill-opacity:1;stroke-width:.54263;stroke-linecap:round;stroke-linejoin:round;stroke-dasharray:.287142,.287142" d="M183.885 44.979h6.597v52.917h-6.597z"/><path style="opacity:.15;fill:#919191;fill-opacity:1;stroke-width:.562361;stroke-linecap:round;stroke-linejoin:round;stroke-dasharray:.297583,.297583" d="M194.486 41.01h6.597v56.835h-6.597z"/><path style="opacity:.15;fill:#919191;fill-opacity:1;stroke-width:.588078;stroke-linecap:round;stroke-linejoin:round;stroke-dasharray:.311191,.311191" d="M205.035 35.719h6.597v62.152h-6.597z"/><path style="opacity:.15;fill:#919191;fill-opacity:1;stroke-width:.606679;stroke-linecap:round;stroke-linejoin:round;stroke-dasharray:.321034,.321034" d="M215.618 31.75h6.597v66.146h-6.597z"/><path style="opacity:.15;fill:#919191;fill-opacity:1;stroke-width:.624614;stroke-linecap:round;stroke-linejoin:round;stroke-dasharray:.330525,.330525" d="M226.201 27.781h6.597v70.115h-6.597z"/><path style="opacity:.15;fill:#919191;fill-opacity:1;stroke-width:.618693;stroke-linecap:round;stroke-linejoin:round;stroke-dasharray:.327392,.327392" d="M236.767 29.104h6.597v68.792h-6.597z"/><path style="opacity:.15;fill:#919191;fill-opacity:1;stroke-width:.594303;stroke-linecap:round;stroke-linejoin:round;stroke-dasharray:.314486,.314486" d="M247.351 34.396h6.597v63.475h-6.597z"/><path style="opacity:.15;fill:#919191;fill-opacity:1;stroke-width:.562611;stroke-linecap:round;stroke-linejoin:round;stroke-dasharray:.297715,.297715" d="M257.951 41.01h6.597v56.885h-6.597z"/><path style="opacity:.15;fill:#919191;fill-opacity:1;stroke-width:.521885;stroke-linecap:round;stroke-linejoin:round;stroke-dasharray:.276164,.276164" d="M268.552 48.948h6.597v48.948h-6.597z"/><path style="opacity:.15;fill:#919191;fill-opacity:1;stroke-width:.485343;stroke-linecap:round;stroke-linejoin:round;stroke-dasharray:.256827,.256827" d="M279.118 55.563h6.597v42.333h-6.597z"/><path style="opacity:.15;fill:#919191;fill-opacity:1;stroke-width:.507445;stroke-linecap:round;stroke-linejoin:round;stroke-dasharray:.268523,.268523" d="M289.701 51.594h6.597v46.277h-6.597z"/><path style="opacity:.15;fill:#919191;fill-opacity:1;stroke-width:.535804;stroke-linecap:round;stroke-linejoin:round;stroke-dasharray:.28353,.28353" d="M300.285 46.302h6.597v51.594h-6.597z"/><path style="opacity:.15;fill:#919191;fill-opacity:1;stroke-width:.55603;stroke-linecap:round;stroke-linejoin:round;stroke-dasharray:.294233,.294233" d="M310.868 42.333h6.597v55.563h-6.597z"/><path style="opacity:.15;fill:#919191;fill-opacity:1;stroke-width:.562485;stroke-linecap:round;stroke-linejoin:round;stroke-dasharray:.297649,.297649" d="M321.469 41.036h6.597v56.86h-6.597z"/><path style="opacity:.15;fill:#919191;fill-opacity:1;stroke-width:.549371;stroke-linecap:round;stroke-linejoin:round;stroke-dasharray:.290709,.290709" d="M332.052 43.656h6.597v54.24h-6.597z"/><path style="opacity:.15;fill:#919191;fill-opacity:1;stroke-width:.588197;stroke-linecap:round;stroke-linejoin:round;stroke-dasharray:.311254,.311254" d="M3.969 35.719h6.597v62.177H3.969z"/></svg>
