<?xml version="1.0" encoding="UTF-8"?>
<!-- Created with Inkscape (http://www.inkscape.org/) -->
<svg id="svg82589" width="54.494mm" height="50.064mm" version="1.1" viewBox="0 0 54.494 50.064" xmlns="http://www.w3.org/2000/svg">
 <g id="layer1" transform="translate(-3.0639 11.75)">
  <g id="logo_white" transform="translate(47.631 19.417)">
   <g id="g1058" transform="translate(-1701.7 -164.42)" fill="none" stroke="#c0c0c0" stroke-width=".3">
    <path id="path1036" d="m1680.1 180 25.981-15"/>
    <path id="path1038" d="m1675.8 177.5 25.981-15"/>
    <path id="path1040" d="m1671.4 175 25.981-15"/>
    <path id="path1042" d="m1667.1 172.5 25.981-15"/>
    <path id="path1044" d="m1662.8 170 25.981-15"/>
    <path id="path1046" d="m1688.7 180-25.981-15"/>
    <path id="path1048" d="m1693.1 177.5-25.981-15"/>
    <path id="path1050" d="m1697.4 175-25.981-15"/>
    <path id="path1052" d="m1701.7 172.5-25.981-15"/>
    <path id="path1054" d="m1706.1 170-25.981-15"/>
    <path id="path1056" d="m1684.4 152.5-25.981 15 25.981 15 25.981-15z"/>
   </g>
   <g id="g1158" transform="translate(-1762.4 -164.42)" fill="#c0c0c0" stroke-opacity="0">
    <ellipse id="ellipse1060" cx="1745" cy="182.5" rx="1.0788" ry=".62699"/>
    <ellipse id="ellipse1062" cx="1749.4" cy="180" rx="1.0788" ry=".62699"/>
    <ellipse id="ellipse1064" cx="1753.7" cy="177.5" rx="1.0788" ry=".62699"/>
    <ellipse id="ellipse1066" cx="1758" cy="175" rx="1.0788" ry=".62699"/>
    <ellipse id="ellipse1068" cx="1762.4" cy="172.5" rx="1.0788" ry=".62699"/>
    <ellipse id="ellipse1070" cx="1766.7" cy="170" rx="1.0788" ry=".62699"/>
    <ellipse id="ellipse1072" cx="1740.7" cy="180" rx="1.0788" ry=".62699"/>
    <ellipse id="ellipse1074" cx="1745" cy="177.5" rx="1.0788" ry=".62699"/>
    <ellipse id="ellipse1076" cx="1749.4" cy="175" rx="1.0788" ry=".62699"/>
    <ellipse id="ellipse1078" cx="1753.7" cy="172.5" rx="1.0788" ry=".62699"/>
    <ellipse id="ellipse1080" cx="1758" cy="170" rx="1.0788" ry=".62699"/>
    <ellipse id="ellipse1082" cx="1762.4" cy="167.5" rx="1.0788" ry=".62699"/>
    <ellipse id="ellipse1084" cx="1736.4" cy="177.5" rx="1.0788" ry=".62699"/>
    <ellipse id="ellipse1086" cx="1740.7" cy="175" rx="1.0788" ry=".62699"/>
    <ellipse id="ellipse1088" cx="1745" cy="172.5" rx="1.0788" ry=".62699"/>
    <ellipse id="ellipse1090" cx="1749.4" cy="170" rx="1.0788" ry=".62699"/>
    <ellipse id="ellipse1092" cx="1753.7" cy="167.5" rx="1.0788" ry=".62699"/>
    <ellipse id="ellipse1094" cx="1758" cy="165" rx="1.0788" ry=".62699"/>
    <ellipse id="ellipse1096" cx="1732.1" cy="175" rx="1.0788" ry=".62699"/>
    <ellipse id="ellipse1098" cx="1736.4" cy="172.5" rx="1.0788" ry=".62699"/>
    <ellipse id="ellipse1100" cx="1740.7" cy="170" rx="1.0788" ry=".62699"/>
    <ellipse id="ellipse1102" cx="1745" cy="167.5" rx="1.0788" ry=".62699"/>
    <ellipse id="ellipse1104" cx="1749.4" cy="165" rx="1.0788" ry=".62699"/>
    <ellipse id="ellipse1106" cx="1753.7" cy="162.5" rx="1.0788" ry=".62699"/>
    <ellipse id="ellipse1108" cx="1727.7" cy="172.5" rx="1.0788" ry=".62699"/>
    <ellipse id="ellipse1110" cx="1732.1" cy="170" rx="1.0788" ry=".62699"/>
    <ellipse id="ellipse1112" cx="1736.4" cy="167.5" rx="1.0788" ry=".62699"/>
    <ellipse id="ellipse1114" cx="1740.7" cy="165" rx="1.0788" ry=".62699"/>
    <ellipse id="ellipse1116" cx="1745" cy="162.5" rx="1.0788" ry=".62699"/>
    <ellipse id="ellipse1118" cx="1749.4" cy="160" rx="1.0788" ry=".62699"/>
    <ellipse id="ellipse1120" cx="1723.4" cy="170" rx="1.0788" ry=".62699"/>
    <ellipse id="ellipse1122" cx="1727.7" cy="167.5" rx="1.0788" ry=".62699"/>
    <ellipse id="ellipse1124" cx="1732.1" cy="165" rx="1.0788" ry=".62699"/>
    <ellipse id="ellipse1126" cx="1736.4" cy="162.5" rx="1.0788" ry=".62699"/>
    <ellipse id="ellipse1128" cx="1740.7" cy="160" rx="1.0788" ry=".62699"/>
    <ellipse id="ellipse1130" cx="1745" cy="157.5" rx="1.0788" ry=".62699"/>
    <ellipse id="ellipse1132" cx="1771" cy="167.5" rx="1.0788" ry=".62699"/>
    <ellipse id="ellipse1134" cx="1766.7" cy="165" rx="1.0788" ry=".62699"/>
    <ellipse id="ellipse1136" cx="1762.4" cy="162.5" rx="1.0788" ry=".62699"/>
    <ellipse id="ellipse1138" cx="1758" cy="160" rx="1.0788" ry=".62699"/>
    <ellipse id="ellipse1140" cx="1753.7" cy="157.5" rx="1.0788" ry=".62699"/>
    <ellipse id="ellipse1142" cx="1749.4" cy="155" rx="1.0788" ry=".62699"/>
    <ellipse id="ellipse1144" cx="1719.1" cy="167.5" rx="1.0788" ry=".62699"/>
    <ellipse id="ellipse1146" cx="1723.4" cy="165" rx="1.0788" ry=".62699"/>
    <ellipse id="ellipse1148" cx="1727.7" cy="162.5" rx="1.0788" ry=".62699"/>
    <ellipse id="ellipse1150" cx="1732.1" cy="160" rx="1.0788" ry=".62699"/>
    <ellipse id="ellipse1152" cx="1736.4" cy="157.5" rx="1.0788" ry=".62699"/>
    <ellipse id="ellipse1154" cx="1740.7" cy="155" rx="1.0788" ry=".62699"/>
    <ellipse id="ellipse1156" cx="1745" cy="152.5" rx="1.0788" ry=".62699"/>
   </g>
   <path id="path1160" d="m-40.703-5.4166c-1.732-1-1.732-2 0-3l20.784-12c1.7321-1 3.4641-1 5.1962 0l20.785 12c1.7321 1 1.7321 2 0 3l-20.785 12c-1.7321 1-3.4641 1-5.1962 0z" fill="#98acbd" opacity=".9"/>
   <path id="path1162" d="m-40.703-15.417c-1.732-1-1.732-2 0-3l20.784-12c1.7321-1 3.4641-1 5.1962 0l20.785 12c1.7321 1 1.7321 2 0 3l-20.785 12c-1.7321 1-3.4641 1-5.1962 0z" fill="#6aa0cb" opacity=".9"/>
  </g>
 </g>
</svg>
