<?xml version="1.0" encoding="UTF-8"?>
<!-- Created with Inkscape (http://www.inkscape.org/) -->
<svg id="svg82589" width="108.19mm" height="25.407mm" version="1.1" viewBox="0 0 108.19 25.407" xmlns="http://www.w3.org/2000/svg">
 <g id="layer1" transform="translate(23.78 -191.46)">
  <g id="logo_full_horizontal_white" transform="translate(-14.6)">
   <g id="g2160" transform="translate(2.5144 1.1472)">
    <g id="g1562" transform="matrix(.50749 0 0 .50749 -852.7 122.69)" fill="none" stroke="#c0c0c0" stroke-width=".3">
     <path id="path1540" d="m1680.1 180 25.981-15"/>
     <path id="path1542" d="m1675.8 177.5 25.981-15"/>
     <path id="path1544" d="m1671.4 175 25.981-15"/>
     <path id="path1546" d="m1667.1 172.5 25.981-15"/>
     <path id="path1548" d="m1662.8 170 25.981-15"/>
     <path id="path1550" d="m1688.7 180-25.981-15"/>
     <path id="path1552" d="m1693.1 177.5-25.981-15"/>
     <path id="path1554" d="m1697.4 175-25.981-15"/>
     <path id="path1556" d="m1701.7 172.5-25.981-15"/>
     <path id="path1558" d="m1706.1 170-25.981-15"/>
     <path id="path1560" d="m1684.4 152.5-25.981 15 25.981 15 25.981-15z"/>
    </g>
    <g id="g1662" transform="matrix(.50749 0 0 .50749 -883.46 122.69)" fill="#c0c0c0" stroke-opacity="0">
     <ellipse id="ellipse1564" cx="1745" cy="182.5" rx="1.0788" ry=".62699"/>
     <ellipse id="ellipse1566" cx="1749.4" cy="180" rx="1.0788" ry=".62699"/>
     <ellipse id="ellipse1568" cx="1753.7" cy="177.5" rx="1.0788" ry=".62699"/>
     <ellipse id="ellipse1570" cx="1758" cy="175" rx="1.0788" ry=".62699"/>
     <ellipse id="ellipse1572" cx="1762.4" cy="172.5" rx="1.0788" ry=".62699"/>
     <ellipse id="ellipse1574" cx="1766.7" cy="170" rx="1.0788" ry=".62699"/>
     <ellipse id="ellipse1576" cx="1740.7" cy="180" rx="1.0788" ry=".62699"/>
     <ellipse id="ellipse1578" cx="1745" cy="177.5" rx="1.0788" ry=".62699"/>
     <ellipse id="ellipse1580" cx="1749.4" cy="175" rx="1.0788" ry=".62699"/>
     <ellipse id="ellipse1582" cx="1753.7" cy="172.5" rx="1.0788" ry=".62699"/>
     <ellipse id="ellipse1584" cx="1758" cy="170" rx="1.0788" ry=".62699"/>
     <ellipse id="ellipse1586" cx="1762.4" cy="167.5" rx="1.0788" ry=".62699"/>
     <ellipse id="ellipse1588" cx="1736.4" cy="177.5" rx="1.0788" ry=".62699"/>
     <ellipse id="ellipse1590" cx="1740.7" cy="175" rx="1.0788" ry=".62699"/>
     <ellipse id="ellipse1592" cx="1745" cy="172.5" rx="1.0788" ry=".62699"/>
     <ellipse id="ellipse1594" cx="1749.4" cy="170" rx="1.0788" ry=".62699"/>
     <ellipse id="ellipse1596" cx="1753.7" cy="167.5" rx="1.0788" ry=".62699"/>
     <ellipse id="ellipse1598" cx="1758" cy="165" rx="1.0788" ry=".62699"/>
     <ellipse id="ellipse1600" cx="1732.1" cy="175" rx="1.0788" ry=".62699"/>
     <ellipse id="ellipse1602" cx="1736.4" cy="172.5" rx="1.0788" ry=".62699"/>
     <ellipse id="ellipse1604" cx="1740.7" cy="170" rx="1.0788" ry=".62699"/>
     <ellipse id="ellipse1606" cx="1745" cy="167.5" rx="1.0788" ry=".62699"/>
     <ellipse id="ellipse1608" cx="1749.4" cy="165" rx="1.0788" ry=".62699"/>
     <ellipse id="ellipse1610" cx="1753.7" cy="162.5" rx="1.0788" ry=".62699"/>
     <ellipse id="ellipse1612" cx="1727.7" cy="172.5" rx="1.0788" ry=".62699"/>
     <ellipse id="ellipse1614" cx="1732.1" cy="170" rx="1.0788" ry=".62699"/>
     <ellipse id="ellipse1616" cx="1736.4" cy="167.5" rx="1.0788" ry=".62699"/>
     <ellipse id="ellipse1618" cx="1740.7" cy="165" rx="1.0788" ry=".62699"/>
     <ellipse id="ellipse1620" cx="1745" cy="162.5" rx="1.0788" ry=".62699"/>
     <ellipse id="ellipse1622" cx="1749.4" cy="160" rx="1.0788" ry=".62699"/>
     <ellipse id="ellipse1624" cx="1723.4" cy="170" rx="1.0788" ry=".62699"/>
     <ellipse id="ellipse1626" cx="1727.7" cy="167.5" rx="1.0788" ry=".62699"/>
     <ellipse id="ellipse1628" cx="1732.1" cy="165" rx="1.0788" ry=".62699"/>
     <ellipse id="ellipse1630" cx="1736.4" cy="162.5" rx="1.0788" ry=".62699"/>
     <ellipse id="ellipse1632" cx="1740.7" cy="160" rx="1.0788" ry=".62699"/>
     <ellipse id="ellipse1634" cx="1745" cy="157.5" rx="1.0788" ry=".62699"/>
     <ellipse id="ellipse1636" cx="1771" cy="167.5" rx="1.0788" ry=".62699"/>
     <ellipse id="ellipse1638" cx="1766.7" cy="165" rx="1.0788" ry=".62699"/>
     <ellipse id="ellipse1640" cx="1762.4" cy="162.5" rx="1.0788" ry=".62699"/>
     <ellipse id="ellipse1642" cx="1758" cy="160" rx="1.0788" ry=".62699"/>
     <ellipse id="ellipse1644" cx="1753.7" cy="157.5" rx="1.0788" ry=".62699"/>
     <ellipse id="ellipse1646" cx="1749.4" cy="155" rx="1.0788" ry=".62699"/>
     <ellipse id="ellipse1648" cx="1719.1" cy="167.5" rx="1.0788" ry=".62699"/>
     <ellipse id="ellipse1650" cx="1723.4" cy="165" rx="1.0788" ry=".62699"/>
     <ellipse id="ellipse1652" cx="1727.7" cy="162.5" rx="1.0788" ry=".62699"/>
     <ellipse id="ellipse1654" cx="1732.1" cy="160" rx="1.0788" ry=".62699"/>
     <ellipse id="ellipse1656" cx="1736.4" cy="157.5" rx="1.0788" ry=".62699"/>
     <ellipse id="ellipse1658" cx="1740.7" cy="155" rx="1.0788" ry=".62699"/>
     <ellipse id="ellipse1660" cx="1745" cy="152.5" rx="1.0788" ry=".62699"/>
    </g>
    <path id="path1664" d="m-9.7339 203.38c-0.87898-0.5075-0.87898-1.015 0-1.5225l10.548-6.0899c0.87903-0.50749 1.758-0.50749 2.637 0l10.548 6.0899c0.87903 0.50749 0.87903 1.015 0 1.5225l-10.548 6.09c-0.87903 0.50749-1.758 0.50749-2.637 0z" fill="#98acbd" opacity=".9"/>
    <path id="path1666" d="m-9.7339 198.31c-0.87898-0.50749-0.87898-1.015 0-1.5225l10.548-6.0899c0.87903-0.50749 1.758-0.50749 2.637 0l10.548 6.0899c0.87903 0.50749 0.87903 1.015 0 1.5225l-10.548 6.09c-0.87903 0.50749-1.758 0.50749-2.637 0z" fill="#6aa0cb" opacity=".9"/>
   </g>
   <g id="g1936" transform="matrix(.83792 0 0 .83792 -508.65 -169.87)" font-family="sans-serif" font-size="17.76px" stroke-width=".44401">
    <text id="text1926" x="633.91052" y="451.83093" fill="#333333" style="line-height:1.25" xml:space="preserve"><tspan id="tspan1924" x="633.91052" y="451.83093" fill="#333333" font-family="Raleway" font-weight="300" stroke-width=".44401">Slurm</tspan></text>
    <text id="text1930" x="689.63422" y="451.83093" fill="#6aa0cb" style="line-height:1.25" xml:space="preserve"><tspan id="tspan1928" x="689.63422" y="451.83093" fill="#427aa1" font-family="Raleway" font-weight="600" stroke-width=".44401">web</tspan></text>
    <text id="text1934" x="684.19275" y="452.88593" fill="#6aa0cb" style="line-height:1.25" xml:space="preserve"><tspan id="tspan1932" x="684.19275" y="452.88593" fill="#aaaaaa" font-family="Raleway" font-weight="600" stroke-width=".44401">·</tspan></text>
   </g>
  </g>
 </g>
</svg>
