<?xml version="1.0" encoding="UTF-8"?>
<!-- Created with Inkscape (http://www.inkscape.org/) -->
<svg id="svg82589" width="54.119mm" height="49.877mm" version="1.1" viewBox="0 0 54.119 49.877" xmlns="http://www.w3.org/2000/svg">
 <g id="layer1" transform="translate(243.42 15.75)">
  <g id="logo_dark" transform="translate(15.88 19.417)">
   <g id="g1332" transform="translate(-1916.7 -168.42)" fill="none" stroke="#5d5d5d" stroke-width=".3">
    <path id="path1310" d="m1680.1 180 25.981-15"/>
    <path id="path1312" d="m1675.8 177.5 25.981-15"/>
    <path id="path1314" d="m1671.4 175 25.981-15"/>
    <path id="path1316" d="m1667.1 172.5 25.981-15"/>
    <path id="path1318" d="m1662.8 170 25.981-15"/>
    <path id="path1320" d="m1688.7 180-25.981-15"/>
    <path id="path1322" d="m1693.1 177.5-25.981-15"/>
    <path id="path1324" d="m1697.4 175-25.981-15"/>
    <path id="path1326" d="m1701.7 172.5-25.981-15"/>
    <path id="path1328" d="m1706.1 170-25.981-15"/>
    <path id="path1330" d="m1684.4 152.5-25.981 15 25.981 15 25.981-15z"/>
   </g>
   <g id="g1432" transform="translate(-1977.3 -168.42)" fill="#5d5d5d">
    <ellipse id="ellipse1334" cx="1745" cy="182.5" rx="1.0788" ry=".62699"/>
    <ellipse id="ellipse1336" cx="1749.4" cy="180" rx="1.0788" ry=".62699"/>
    <ellipse id="ellipse1338" cx="1753.7" cy="177.5" rx="1.0788" ry=".62699"/>
    <ellipse id="ellipse1340" cx="1758" cy="175" rx="1.0788" ry=".62699"/>
    <ellipse id="ellipse1342" cx="1762.4" cy="172.5" rx="1.0788" ry=".62699"/>
    <ellipse id="ellipse1344" cx="1766.7" cy="170" rx="1.0788" ry=".62699"/>
    <ellipse id="ellipse1346" cx="1740.7" cy="180" rx="1.0788" ry=".62699"/>
    <ellipse id="ellipse1348" cx="1745" cy="177.5" rx="1.0788" ry=".62699"/>
    <ellipse id="ellipse1350" cx="1749.4" cy="175" rx="1.0788" ry=".62699"/>
    <ellipse id="ellipse1352" cx="1753.7" cy="172.5" rx="1.0788" ry=".62699"/>
    <ellipse id="ellipse1354" cx="1758" cy="170" rx="1.0788" ry=".62699"/>
    <ellipse id="ellipse1356" cx="1762.4" cy="167.5" rx="1.0788" ry=".62699"/>
    <ellipse id="ellipse1358" cx="1736.4" cy="177.5" rx="1.0788" ry=".62699"/>
    <ellipse id="ellipse1360" cx="1740.7" cy="175" rx="1.0788" ry=".62699"/>
    <ellipse id="ellipse1362" cx="1745" cy="172.5" rx="1.0788" ry=".62699"/>
    <ellipse id="ellipse1364" cx="1749.4" cy="170" rx="1.0788" ry=".62699"/>
    <ellipse id="ellipse1366" cx="1753.7" cy="167.5" rx="1.0788" ry=".62699"/>
    <ellipse id="ellipse1368" cx="1758" cy="165" rx="1.0788" ry=".62699"/>
    <ellipse id="ellipse1370" cx="1732.1" cy="175" rx="1.0788" ry=".62699"/>
    <ellipse id="ellipse1372" cx="1736.4" cy="172.5" rx="1.0788" ry=".62699"/>
    <ellipse id="ellipse1374" cx="1740.7" cy="170" rx="1.0788" ry=".62699"/>
    <ellipse id="ellipse1376" cx="1745" cy="167.5" rx="1.0788" ry=".62699"/>
    <ellipse id="ellipse1378" cx="1749.4" cy="165" rx="1.0788" ry=".62699"/>
    <ellipse id="ellipse1380" cx="1753.7" cy="162.5" rx="1.0788" ry=".62699"/>
    <ellipse id="ellipse1382" cx="1727.7" cy="172.5" rx="1.0788" ry=".62699"/>
    <ellipse id="ellipse1384" cx="1732.1" cy="170" rx="1.0788" ry=".62699"/>
    <ellipse id="ellipse1386" cx="1736.4" cy="167.5" rx="1.0788" ry=".62699"/>
    <ellipse id="ellipse1388" cx="1740.7" cy="165" rx="1.0788" ry=".62699"/>
    <ellipse id="ellipse1390" cx="1745" cy="162.5" rx="1.0788" ry=".62699"/>
    <ellipse id="ellipse1392" cx="1749.4" cy="160" rx="1.0788" ry=".62699"/>
    <ellipse id="ellipse1394" cx="1723.4" cy="170" rx="1.0788" ry=".62699"/>
    <ellipse id="ellipse1396" cx="1727.7" cy="167.5" rx="1.0788" ry=".62699"/>
    <ellipse id="ellipse1398" cx="1732.1" cy="165" rx="1.0788" ry=".62699"/>
    <ellipse id="ellipse1400" cx="1736.4" cy="162.5" rx="1.0788" ry=".62699"/>
    <ellipse id="ellipse1402" cx="1740.7" cy="160" rx="1.0788" ry=".62699"/>
    <ellipse id="ellipse1404" cx="1745" cy="157.5" rx="1.0788" ry=".62699"/>
    <ellipse id="ellipse1406" cx="1771" cy="167.5" rx="1.0788" ry=".62699"/>
    <ellipse id="ellipse1408" cx="1766.7" cy="165" rx="1.0788" ry=".62699"/>
    <ellipse id="ellipse1410" cx="1762.4" cy="162.5" rx="1.0788" ry=".62699"/>
    <ellipse id="ellipse1412" cx="1758" cy="160" rx="1.0788" ry=".62699"/>
    <ellipse id="ellipse1414" cx="1753.7" cy="157.5" rx="1.0788" ry=".62699"/>
    <ellipse id="ellipse1416" cx="1749.4" cy="155" rx="1.0788" ry=".62699"/>
    <ellipse id="ellipse1418" cx="1719.1" cy="167.5" rx="1.0788" ry=".62699"/>
    <ellipse id="ellipse1420" cx="1723.4" cy="165" rx="1.0788" ry=".62699"/>
    <ellipse id="ellipse1422" cx="1727.7" cy="162.5" rx="1.0788" ry=".62699"/>
    <ellipse id="ellipse1424" cx="1732.1" cy="160" rx="1.0788" ry=".62699"/>
    <ellipse id="ellipse1426" cx="1736.4" cy="157.5" rx="1.0788" ry=".62699"/>
    <ellipse id="ellipse1428" cx="1740.7" cy="155" rx="1.0788" ry=".62699"/>
    <ellipse id="ellipse1430" cx="1745" cy="152.5" rx="1.0788" ry=".62699"/>
   </g>
   <path id="path1434" d="m-255.62-9.4166c-1.732-1-1.732-2 0-3l20.784-12c1.7321-1 3.4641-1 5.1962 0l20.785 12c1.7321 1 1.7321 2 0 3l-20.785 12c-1.7321 1-3.4641 1-5.1962 0z" fill="#6e7d89" opacity=".9"/>
   <path id="path1436" d="m-255.62-19.417c-1.732-1-1.732-2 0-3l20.784-12c1.7321-1 3.4641-1 5.1962 0l20.785 12c1.7321 1 1.7321 2 0 3l-20.785 12c-1.7321 1-3.4641 1-5.1962 0z" fill="#6aa0cb" opacity=".9"/>
  </g>
 </g>
</svg>
