<?xml version="1.0" encoding="UTF-8"?>
<!-- Created with Inkscape (http://www.inkscape.org/) -->
<svg id="svg82589" width="54.494mm" height="62.54mm" version="1.1" viewBox="0 0 54.494 62.54" xmlns="http://www.w3.org/2000/svg">
 <g id="layer1" transform="translate(-3.0639 -69.75)">
  <g id="logo_full_white" transform="translate(21.651)">
   <g id="g2901">
    <g id="g22362" transform="translate(-1675.8 -63.5)" fill="none" stroke="#c0c0c0" stroke-width=".3">
     <path id="path22340" d="m1680.1 180 25.981-15"/>
     <path id="path22342" d="m1675.8 177.5 25.981-15"/>
     <path id="path22344" d="m1671.4 175 25.981-15"/>
     <path id="path22346" d="m1667.1 172.5 25.981-15"/>
     <path id="path22348" d="m1662.8 170 25.981-15"/>
     <path id="path22350" d="m1688.7 180-25.981-15"/>
     <path id="path22352" d="m1693.1 177.5-25.981-15"/>
     <path id="path22354" d="m1697.4 175-25.981-15"/>
     <path id="path22356" d="m1701.7 172.5-25.981-15"/>
     <path id="path22358" d="m1706.1 170-25.981-15"/>
     <path id="path22360" d="m1684.4 152.5-25.981 15 25.981 15 25.981-15z"/>
    </g>
    <g id="g27180" transform="translate(-1736.4 -63.5)" fill="#c0c0c0" stroke-opacity="0">
     <ellipse id="ellipse27082" cx="1745" cy="182.5" rx="1.0788" ry=".62699"/>
     <ellipse id="ellipse27084" cx="1749.4" cy="180" rx="1.0788" ry=".62699"/>
     <ellipse id="ellipse27086" cx="1753.7" cy="177.5" rx="1.0788" ry=".62699"/>
     <ellipse id="ellipse27088" cx="1758" cy="175" rx="1.0788" ry=".62699"/>
     <ellipse id="ellipse27090" cx="1762.4" cy="172.5" rx="1.0788" ry=".62699"/>
     <ellipse id="ellipse27092" cx="1766.7" cy="170" rx="1.0788" ry=".62699"/>
     <ellipse id="ellipse27094" cx="1740.7" cy="180" rx="1.0788" ry=".62699"/>
     <ellipse id="ellipse27096" cx="1745" cy="177.5" rx="1.0788" ry=".62699"/>
     <ellipse id="ellipse27098" cx="1749.4" cy="175" rx="1.0788" ry=".62699"/>
     <ellipse id="ellipse27100" cx="1753.7" cy="172.5" rx="1.0788" ry=".62699"/>
     <ellipse id="ellipse27102" cx="1758" cy="170" rx="1.0788" ry=".62699"/>
     <ellipse id="ellipse27104" cx="1762.4" cy="167.5" rx="1.0788" ry=".62699"/>
     <ellipse id="ellipse27106" cx="1736.4" cy="177.5" rx="1.0788" ry=".62699"/>
     <ellipse id="ellipse27108" cx="1740.7" cy="175" rx="1.0788" ry=".62699"/>
     <ellipse id="ellipse27110" cx="1745" cy="172.5" rx="1.0788" ry=".62699"/>
     <ellipse id="ellipse27112" cx="1749.4" cy="170" rx="1.0788" ry=".62699"/>
     <ellipse id="ellipse27114" cx="1753.7" cy="167.5" rx="1.0788" ry=".62699"/>
     <ellipse id="ellipse27116" cx="1758" cy="165" rx="1.0788" ry=".62699"/>
     <ellipse id="ellipse27118" cx="1732.1" cy="175" rx="1.0788" ry=".62699"/>
     <ellipse id="ellipse27120" cx="1736.4" cy="172.5" rx="1.0788" ry=".62699"/>
     <ellipse id="ellipse27122" cx="1740.7" cy="170" rx="1.0788" ry=".62699"/>
     <ellipse id="ellipse27124" cx="1745" cy="167.5" rx="1.0788" ry=".62699"/>
     <ellipse id="ellipse27126" cx="1749.4" cy="165" rx="1.0788" ry=".62699"/>
     <ellipse id="ellipse27128" cx="1753.7" cy="162.5" rx="1.0788" ry=".62699"/>
     <ellipse id="ellipse27130" cx="1727.7" cy="172.5" rx="1.0788" ry=".62699"/>
     <ellipse id="ellipse27132" cx="1732.1" cy="170" rx="1.0788" ry=".62699"/>
     <ellipse id="ellipse27134" cx="1736.4" cy="167.5" rx="1.0788" ry=".62699"/>
     <ellipse id="ellipse27136" cx="1740.7" cy="165" rx="1.0788" ry=".62699"/>
     <ellipse id="ellipse27138" cx="1745" cy="162.5" rx="1.0788" ry=".62699"/>
     <ellipse id="ellipse27140" cx="1749.4" cy="160" rx="1.0788" ry=".62699"/>
     <ellipse id="ellipse27142" cx="1723.4" cy="170" rx="1.0788" ry=".62699"/>
     <ellipse id="ellipse27144" cx="1727.7" cy="167.5" rx="1.0788" ry=".62699"/>
     <ellipse id="ellipse27146" cx="1732.1" cy="165" rx="1.0788" ry=".62699"/>
     <ellipse id="ellipse27148" cx="1736.4" cy="162.5" rx="1.0788" ry=".62699"/>
     <ellipse id="ellipse27150" cx="1740.7" cy="160" rx="1.0788" ry=".62699"/>
     <ellipse id="ellipse27152" cx="1745" cy="157.5" rx="1.0788" ry=".62699"/>
     <ellipse id="ellipse27154" cx="1771" cy="167.5" rx="1.0788" ry=".62699"/>
     <ellipse id="ellipse27156" cx="1766.7" cy="165" rx="1.0788" ry=".62699"/>
     <ellipse id="ellipse27158" cx="1762.4" cy="162.5" rx="1.0788" ry=".62699"/>
     <ellipse id="ellipse27160" cx="1758" cy="160" rx="1.0788" ry=".62699"/>
     <ellipse id="ellipse27162" cx="1753.7" cy="157.5" rx="1.0788" ry=".62699"/>
     <ellipse id="ellipse27164" cx="1749.4" cy="155" rx="1.0788" ry=".62699"/>
     <ellipse id="ellipse27166" cx="1719.1" cy="167.5" rx="1.0788" ry=".62699"/>
     <ellipse id="ellipse27168" cx="1723.4" cy="165" rx="1.0788" ry=".62699"/>
     <ellipse id="ellipse27170" cx="1727.7" cy="162.5" rx="1.0788" ry=".62699"/>
     <ellipse id="ellipse27172" cx="1732.1" cy="160" rx="1.0788" ry=".62699"/>
     <ellipse id="ellipse27174" cx="1736.4" cy="157.5" rx="1.0788" ry=".62699"/>
     <ellipse id="ellipse27176" cx="1740.7" cy="155" rx="1.0788" ry=".62699"/>
     <ellipse id="ellipse27178" cx="1745" cy="152.5" rx="1.0788" ry=".62699"/>
    </g>
    <path id="path27182" d="m-14.722 95.5c-1.732-1-1.732-2 0-3l20.785-12c1.7321-1 3.4641-1 5.1962 0l20.785 12c1.7321 1 1.7321 2 0 3l-20.785 12c-1.7321 1-3.4641 1-5.1962 0z" fill="#98acbd" opacity=".9"/>
    <path id="path27184" d="m-14.722 85.5c-1.732-1-1.732-2 0-3l20.785-12c1.7321-1 3.4641-1 5.1962 0l20.785 12c1.7321 1 1.7321 2 0 3l-20.785 12c-1.7321 1-3.4641 1-5.1962 0z" fill="#6aa0cb" opacity=".9"/>
   </g>
   <g id="g38612" transform="matrix(.5979 0 0 .5979 -397.83 -137.97)" font-family="sans-serif" font-size="17.76px" stroke-width=".44401">
    <text id="text38602" x="633.91052" y="451.83093" fill="#333333" style="line-height:1.25" xml:space="preserve"><tspan id="tspan38600" x="633.91052" y="451.83093" fill="#333333" font-family="Raleway" font-weight="300" stroke-width=".44401">Slurm</tspan></text>
    <text id="text38606" x="689.63422" y="451.83093" fill="#6aa0cb" style="line-height:1.25" xml:space="preserve"><tspan id="tspan38604" x="689.63422" y="451.83093" fill="#427aa1" font-family="Raleway" font-weight="600" stroke-width=".44401">web</tspan></text>
    <text id="text38610" x="684.19275" y="452.88593" fill="#6aa0cb" style="line-height:1.25" xml:space="preserve"><tspan id="tspan38608" x="684.19275" y="452.88593" fill="#aaaaaa" font-family="Raleway" font-weight="600" stroke-width=".44401">·</tspan></text>
   </g>
  </g>
 </g>
</svg>
