<?xml version="1.0" encoding="UTF-8"?>
<!-- Created with Inkscape (http://www.inkscape.org/) -->
<svg id="svg82589" width="108.19mm" height="25.312mm" version="1.1" viewBox="0 0 108.19 25.312" xmlns="http://www.w3.org/2000/svg">
 <g id="layer1" transform="translate(146.04 -191.51)">
  <g id="logo_full_horizontal_blue" transform="translate(1.1933)">
   <g id="g2094" transform="translate(-9.9916 1.1948)">
    <g id="g1690" transform="matrix(.50749 0 0 .50749 -978.34 122.69)" fill="none" stroke="#cecece" stroke-width=".3">
     <path id="path1668" d="m1680.1 180 25.981-15"/>
     <path id="path1670" d="m1675.8 177.5 25.981-15"/>
     <path id="path1672" d="m1671.4 175 25.981-15"/>
     <path id="path1674" d="m1667.1 172.5 25.981-15"/>
     <path id="path1676" d="m1662.8 170 25.981-15"/>
     <path id="path1678" d="m1688.7 180-25.981-15"/>
     <path id="path1680" d="m1693.1 177.5-25.981-15"/>
     <path id="path1682" d="m1697.4 175-25.981-15"/>
     <path id="path1684" d="m1701.7 172.5-25.981-15"/>
     <path id="path1686" d="m1706.1 170-25.981-15"/>
     <path id="path1688" d="m1684.4 152.5-25.981 15 25.981 15 25.981-15z"/>
    </g>
    <g id="g1790" transform="matrix(.50749 0 0 .50749 -1009.1 122.69)" fill="#cecece">
     <ellipse id="ellipse1692" cx="1745" cy="182.5" rx="1.0788" ry=".62699"/>
     <ellipse id="ellipse1694" cx="1749.4" cy="180" rx="1.0788" ry=".62699"/>
     <ellipse id="ellipse1696" cx="1753.7" cy="177.5" rx="1.0788" ry=".62699"/>
     <ellipse id="ellipse1698" cx="1758" cy="175" rx="1.0788" ry=".62699"/>
     <ellipse id="ellipse1700" cx="1762.4" cy="172.5" rx="1.0788" ry=".62699"/>
     <ellipse id="ellipse1702" cx="1766.7" cy="170" rx="1.0788" ry=".62699"/>
     <ellipse id="ellipse1704" cx="1740.7" cy="180" rx="1.0788" ry=".62699"/>
     <ellipse id="ellipse1706" cx="1745" cy="177.5" rx="1.0788" ry=".62699"/>
     <ellipse id="ellipse1708" cx="1749.4" cy="175" rx="1.0788" ry=".62699"/>
     <ellipse id="ellipse1710" cx="1753.7" cy="172.5" rx="1.0788" ry=".62699"/>
     <ellipse id="ellipse1712" cx="1758" cy="170" rx="1.0788" ry=".62699"/>
     <ellipse id="ellipse1714" cx="1762.4" cy="167.5" rx="1.0788" ry=".62699"/>
     <ellipse id="ellipse1716" cx="1736.4" cy="177.5" rx="1.0788" ry=".62699"/>
     <ellipse id="ellipse1718" cx="1740.7" cy="175" rx="1.0788" ry=".62699"/>
     <ellipse id="ellipse1720" cx="1745" cy="172.5" rx="1.0788" ry=".62699"/>
     <ellipse id="ellipse1722" cx="1749.4" cy="170" rx="1.0788" ry=".62699"/>
     <ellipse id="ellipse1724" cx="1753.7" cy="167.5" rx="1.0788" ry=".62699"/>
     <ellipse id="ellipse1726" cx="1758" cy="165" rx="1.0788" ry=".62699"/>
     <ellipse id="ellipse1728" cx="1732.1" cy="175" rx="1.0788" ry=".62699"/>
     <ellipse id="ellipse1730" cx="1736.4" cy="172.5" rx="1.0788" ry=".62699"/>
     <ellipse id="ellipse1732" cx="1740.7" cy="170" rx="1.0788" ry=".62699"/>
     <ellipse id="ellipse1734" cx="1745" cy="167.5" rx="1.0788" ry=".62699"/>
     <ellipse id="ellipse1736" cx="1749.4" cy="165" rx="1.0788" ry=".62699"/>
     <ellipse id="ellipse1738" cx="1753.7" cy="162.5" rx="1.0788" ry=".62699"/>
     <ellipse id="ellipse1740" cx="1727.7" cy="172.5" rx="1.0788" ry=".62699"/>
     <ellipse id="ellipse1742" cx="1732.1" cy="170" rx="1.0788" ry=".62699"/>
     <ellipse id="ellipse1744" cx="1736.4" cy="167.5" rx="1.0788" ry=".62699"/>
     <ellipse id="ellipse1746" cx="1740.7" cy="165" rx="1.0788" ry=".62699"/>
     <ellipse id="ellipse1748" cx="1745" cy="162.5" rx="1.0788" ry=".62699"/>
     <ellipse id="ellipse1750" cx="1749.4" cy="160" rx="1.0788" ry=".62699"/>
     <ellipse id="ellipse1752" cx="1723.4" cy="170" rx="1.0788" ry=".62699"/>
     <ellipse id="ellipse1754" cx="1727.7" cy="167.5" rx="1.0788" ry=".62699"/>
     <ellipse id="ellipse1756" cx="1732.1" cy="165" rx="1.0788" ry=".62699"/>
     <ellipse id="ellipse1758" cx="1736.4" cy="162.5" rx="1.0788" ry=".62699"/>
     <ellipse id="ellipse1760" cx="1740.7" cy="160" rx="1.0788" ry=".62699"/>
     <ellipse id="ellipse1762" cx="1745" cy="157.5" rx="1.0788" ry=".62699"/>
     <ellipse id="ellipse1764" cx="1771" cy="167.5" rx="1.0788" ry=".62699"/>
     <ellipse id="ellipse1766" cx="1766.7" cy="165" rx="1.0788" ry=".62699"/>
     <ellipse id="ellipse1768" cx="1762.4" cy="162.5" rx="1.0788" ry=".62699"/>
     <ellipse id="ellipse1770" cx="1758" cy="160" rx="1.0788" ry=".62699"/>
     <ellipse id="ellipse1772" cx="1753.7" cy="157.5" rx="1.0788" ry=".62699"/>
     <ellipse id="ellipse1774" cx="1749.4" cy="155" rx="1.0788" ry=".62699"/>
     <ellipse id="ellipse1776" cx="1719.1" cy="167.5" rx="1.0788" ry=".62699"/>
     <ellipse id="ellipse1778" cx="1723.4" cy="165" rx="1.0788" ry=".62699"/>
     <ellipse id="ellipse1780" cx="1727.7" cy="162.5" rx="1.0788" ry=".62699"/>
     <ellipse id="ellipse1782" cx="1732.1" cy="160" rx="1.0788" ry=".62699"/>
     <ellipse id="ellipse1784" cx="1736.4" cy="157.5" rx="1.0788" ry=".62699"/>
     <ellipse id="ellipse1786" cx="1740.7" cy="155" rx="1.0788" ry=".62699"/>
     <ellipse id="ellipse1788" cx="1745" cy="152.5" rx="1.0788" ry=".62699"/>
    </g>
    <path id="path1792" d="m-135.37 203.38c-0.87898-0.5075-0.87898-1.015 0-1.5225l10.548-6.0899c0.87903-0.50749 1.758-0.50749 2.637 0l10.548 6.0899c0.87903 0.50749 0.87903 1.015 0 1.5225l-10.548 6.09c-0.87903 0.50749-1.758 0.50749-2.637 0z" fill="#90acc4" opacity=".8"/>
    <path id="path1794" d="m-135.37 198.31c-0.87898-0.50749-0.87898-1.015 0-1.5225l10.548-6.0899c0.87903-0.50749 1.758-0.50749 2.637 0l10.548 6.0899c0.87903 0.50749 0.87903 1.015 0 1.5225l-10.548 6.09c-0.87903 0.50749-1.758 0.50749-2.637 0z" fill="#4c7392" opacity=".9"/>
   </g>
   <g id="g2168" transform="matrix(1.4014 0 0 1.4014 30.818 -81.972)" font-family="sans-serif" font-size="10.619px" stroke-width=".26547">
    <text id="text1940" x="-104.42591" y="207.42879" fill="#333333" style="line-height:1.25" xml:space="preserve"><tspan id="tspan1938" x="-104.42591" y="207.42879" fill="#ffffff" font-family="Raleway" font-weight="300" stroke-width=".26547">Slurm</tspan></text>
    <text id="text1944" x="-71.108788" y="207.42879" fill="#6aa0cb" style="line-height:1.25" xml:space="preserve"><tspan id="tspan1942" x="-71.108788" y="207.42879" fill="#486c89" font-family="Raleway" font-weight="600" stroke-width=".26547">web</tspan></text>
    <text id="text1948" x="-74.362221" y="208.05957" fill="#6aa0cb" style="line-height:1.25" xml:space="preserve"><tspan id="tspan1946" x="-74.362221" y="208.05957" fill="#434343" font-family="Raleway" font-weight="600" stroke-width=".26547">·</tspan></text>
   </g>
  </g>
 </g>
</svg>
