<?xml version="1.0" encoding="UTF-8"?>
<!-- Created with Inkscape (http://www.inkscape.org/) -->
<svg id="svg82589" width="113.15mm" height="25.312mm" version="1.1" viewBox="0 0 113.15 25.312" xmlns="http://www.w3.org/2000/svg">
 <g id="layer1" transform="translate(272.93 -191.51)">
  <g id="logo_full_horizontal_dark" transform="translate(7.0544)">
   <g id="g2028" transform="translate(-20.686 3.2248)">
    <g id="g1818" transform="matrix(.50749 0 0 .50749 -1100.4 120.66)" fill="none" stroke="#5d5d5d" stroke-width=".3">
     <path id="path1796" d="m1680.1 180 25.981-15"/>
     <path id="path1798" d="m1675.8 177.5 25.981-15"/>
     <path id="path1800" d="m1671.4 175 25.981-15"/>
     <path id="path1802" d="m1667.1 172.5 25.981-15"/>
     <path id="path1804" d="m1662.8 170 25.981-15"/>
     <path id="path1806" d="m1688.7 180-25.981-15"/>
     <path id="path1808" d="m1693.1 177.5-25.981-15"/>
     <path id="path1810" d="m1697.4 175-25.981-15"/>
     <path id="path1812" d="m1701.7 172.5-25.981-15"/>
     <path id="path1814" d="m1706.1 170-25.981-15"/>
     <path id="path1816" d="m1684.4 152.5-25.981 15 25.981 15 25.981-15z"/>
    </g>
    <g id="g1918" transform="matrix(.50749 0 0 .50749 -1131.2 120.66)" fill="#5d5d5d">
     <ellipse id="ellipse1820" cx="1745" cy="182.5" rx="1.0788" ry=".62699"/>
     <ellipse id="ellipse1822" cx="1749.4" cy="180" rx="1.0788" ry=".62699"/>
     <ellipse id="ellipse1824" cx="1753.7" cy="177.5" rx="1.0788" ry=".62699"/>
     <ellipse id="ellipse1826" cx="1758" cy="175" rx="1.0788" ry=".62699"/>
     <ellipse id="ellipse1828" cx="1762.4" cy="172.5" rx="1.0788" ry=".62699"/>
     <ellipse id="ellipse1830" cx="1766.7" cy="170" rx="1.0788" ry=".62699"/>
     <ellipse id="ellipse1832" cx="1740.7" cy="180" rx="1.0788" ry=".62699"/>
     <ellipse id="ellipse1834" cx="1745" cy="177.5" rx="1.0788" ry=".62699"/>
     <ellipse id="ellipse1836" cx="1749.4" cy="175" rx="1.0788" ry=".62699"/>
     <ellipse id="ellipse1838" cx="1753.7" cy="172.5" rx="1.0788" ry=".62699"/>
     <ellipse id="ellipse1840" cx="1758" cy="170" rx="1.0788" ry=".62699"/>
     <ellipse id="ellipse1842" cx="1762.4" cy="167.5" rx="1.0788" ry=".62699"/>
     <ellipse id="ellipse1844" cx="1736.4" cy="177.5" rx="1.0788" ry=".62699"/>
     <ellipse id="ellipse1846" cx="1740.7" cy="175" rx="1.0788" ry=".62699"/>
     <ellipse id="ellipse1848" cx="1745" cy="172.5" rx="1.0788" ry=".62699"/>
     <ellipse id="ellipse1850" cx="1749.4" cy="170" rx="1.0788" ry=".62699"/>
     <ellipse id="ellipse1852" cx="1753.7" cy="167.5" rx="1.0788" ry=".62699"/>
     <ellipse id="ellipse1854" cx="1758" cy="165" rx="1.0788" ry=".62699"/>
     <ellipse id="ellipse1856" cx="1732.1" cy="175" rx="1.0788" ry=".62699"/>
     <ellipse id="ellipse1858" cx="1736.4" cy="172.5" rx="1.0788" ry=".62699"/>
     <ellipse id="ellipse1860" cx="1740.7" cy="170" rx="1.0788" ry=".62699"/>
     <ellipse id="ellipse1862" cx="1745" cy="167.5" rx="1.0788" ry=".62699"/>
     <ellipse id="ellipse1864" cx="1749.4" cy="165" rx="1.0788" ry=".62699"/>
     <ellipse id="ellipse1866" cx="1753.7" cy="162.5" rx="1.0788" ry=".62699"/>
     <ellipse id="ellipse1868" cx="1727.7" cy="172.5" rx="1.0788" ry=".62699"/>
     <ellipse id="ellipse1870" cx="1732.1" cy="170" rx="1.0788" ry=".62699"/>
     <ellipse id="ellipse1872" cx="1736.4" cy="167.5" rx="1.0788" ry=".62699"/>
     <ellipse id="ellipse1874" cx="1740.7" cy="165" rx="1.0788" ry=".62699"/>
     <ellipse id="ellipse1876" cx="1745" cy="162.5" rx="1.0788" ry=".62699"/>
     <ellipse id="ellipse1878" cx="1749.4" cy="160" rx="1.0788" ry=".62699"/>
     <ellipse id="ellipse1880" cx="1723.4" cy="170" rx="1.0788" ry=".62699"/>
     <ellipse id="ellipse1882" cx="1727.7" cy="167.5" rx="1.0788" ry=".62699"/>
     <ellipse id="ellipse1884" cx="1732.1" cy="165" rx="1.0788" ry=".62699"/>
     <ellipse id="ellipse1886" cx="1736.4" cy="162.5" rx="1.0788" ry=".62699"/>
     <ellipse id="ellipse1888" cx="1740.7" cy="160" rx="1.0788" ry=".62699"/>
     <ellipse id="ellipse1890" cx="1745" cy="157.5" rx="1.0788" ry=".62699"/>
     <ellipse id="ellipse1892" cx="1771" cy="167.5" rx="1.0788" ry=".62699"/>
     <ellipse id="ellipse1894" cx="1766.7" cy="165" rx="1.0788" ry=".62699"/>
     <ellipse id="ellipse1896" cx="1762.4" cy="162.5" rx="1.0788" ry=".62699"/>
     <ellipse id="ellipse1898" cx="1758" cy="160" rx="1.0788" ry=".62699"/>
     <ellipse id="ellipse1900" cx="1753.7" cy="157.5" rx="1.0788" ry=".62699"/>
     <ellipse id="ellipse1902" cx="1749.4" cy="155" rx="1.0788" ry=".62699"/>
     <ellipse id="ellipse1904" cx="1719.1" cy="167.5" rx="1.0788" ry=".62699"/>
     <ellipse id="ellipse1906" cx="1723.4" cy="165" rx="1.0788" ry=".62699"/>
     <ellipse id="ellipse1908" cx="1727.7" cy="162.5" rx="1.0788" ry=".62699"/>
     <ellipse id="ellipse1910" cx="1732.1" cy="160" rx="1.0788" ry=".62699"/>
     <ellipse id="ellipse1912" cx="1736.4" cy="157.5" rx="1.0788" ry=".62699"/>
     <ellipse id="ellipse1914" cx="1740.7" cy="155" rx="1.0788" ry=".62699"/>
     <ellipse id="ellipse1916" cx="1745" cy="152.5" rx="1.0788" ry=".62699"/>
    </g>
    <path id="path1920" d="m-257.43 201.35c-0.87898-0.5075-0.87898-1.015 0-1.5225l10.548-6.0899c0.87903-0.50749 1.758-0.50749 2.637 0l10.548 6.0899c0.87902 0.50749 0.87902 1.015 0 1.5225l-10.548 6.09c-0.87903 0.5075-1.758 0.5075-2.637 0z" fill="#6e7d89" opacity=".9"/>
    <path id="path1922" d="m-257.43 196.28c-0.87898-0.50749-0.87898-1.015 0-1.5225l10.548-6.0899c0.87903-0.50749 1.758-0.50749 2.637 0l10.548 6.0899c0.87902 0.50749 0.87902 1.015 0 1.5225l-10.548 6.09c-0.87903 0.50749-1.758 0.50749-2.637 0z" fill="#6aa0cb" opacity=".9"/>
   </g>
   <g id="g1962" transform="matrix(.89264 0 0 .89264 -814.17 -194.24)" font-family="sans-serif" font-size="17.76px" stroke-width=".44401">
    <text id="text1952" x="633.91052" y="451.83093" fill="#333333" style="line-height:1.25" xml:space="preserve"><tspan id="tspan1950" x="633.91052" y="451.83093" fill="#f5f5f5" font-family="Raleway" font-weight="300" stroke-width=".44401">Slurm</tspan></text>
    <text id="text1956" x="689.63422" y="451.83093" fill="#6aa0cb" style="line-height:1.25" xml:space="preserve"><tspan id="tspan1954" x="689.63422" y="451.83093" fill="#4884ae" font-family="Raleway" font-weight="600" stroke-width=".44401">web</tspan></text>
    <text id="text1960" x="684.19275" y="452.88593" fill="#6aa0cb" style="line-height:1.25" xml:space="preserve"><tspan id="tspan1958" x="684.19275" y="452.88593" fill="#aaaaaa" font-family="Raleway" font-weight="600" stroke-width=".44401">·</tspan></text>
   </g>
  </g>
 </g>
</svg>
