<?xml version="1.0" encoding="UTF-8"?>
<!-- Created with Inkscape (http://www.inkscape.org/) -->
<svg id="svg82589" width="57.744mm" height="62.627mm" version="1.1" viewBox="0 0 57.744 62.627" xmlns="http://www.w3.org/2000/svg">
 <g id="layer1" transform="translate(245.45 -65.75)">
  <g id="logo_full_dark" transform="translate(15.733 -2.9e-5)">
   <g id="g3467">
    <g id="g33146" transform="translate(-1916.7 -67.5)" fill="none" stroke="#5d5d5d" stroke-width=".3">
     <path id="path33124" d="m1680.1 180 25.981-15"/>
     <path id="path33126" d="m1675.8 177.5 25.981-15"/>
     <path id="path33128" d="m1671.4 175 25.981-15"/>
     <path id="path33130" d="m1667.1 172.5 25.981-15"/>
     <path id="path33132" d="m1662.8 170 25.981-15"/>
     <path id="path33134" d="m1688.7 180-25.981-15"/>
     <path id="path33136" d="m1693.1 177.5-25.981-15"/>
     <path id="path33138" d="m1697.4 175-25.981-15"/>
     <path id="path33140" d="m1701.7 172.5-25.981-15"/>
     <path id="path33142" d="m1706.1 170-25.981-15"/>
     <path id="path33144" d="m1684.4 152.5-25.981 15 25.981 15 25.981-15z"/>
    </g>
    <g id="g33246" transform="translate(-1977.3 -67.5)" fill="#5d5d5d">
     <ellipse id="ellipse33148" cx="1745" cy="182.5" rx="1.0788" ry=".62699"/>
     <ellipse id="ellipse33150" cx="1749.4" cy="180" rx="1.0788" ry=".62699"/>
     <ellipse id="ellipse33152" cx="1753.7" cy="177.5" rx="1.0788" ry=".62699"/>
     <ellipse id="ellipse33154" cx="1758" cy="175" rx="1.0788" ry=".62699"/>
     <ellipse id="ellipse33156" cx="1762.4" cy="172.5" rx="1.0788" ry=".62699"/>
     <ellipse id="ellipse33158" cx="1766.7" cy="170" rx="1.0788" ry=".62699"/>
     <ellipse id="ellipse33160" cx="1740.7" cy="180" rx="1.0788" ry=".62699"/>
     <ellipse id="ellipse33162" cx="1745" cy="177.5" rx="1.0788" ry=".62699"/>
     <ellipse id="ellipse33164" cx="1749.4" cy="175" rx="1.0788" ry=".62699"/>
     <ellipse id="ellipse33166" cx="1753.7" cy="172.5" rx="1.0788" ry=".62699"/>
     <ellipse id="ellipse33168" cx="1758" cy="170" rx="1.0788" ry=".62699"/>
     <ellipse id="ellipse33170" cx="1762.4" cy="167.5" rx="1.0788" ry=".62699"/>
     <ellipse id="ellipse33172" cx="1736.4" cy="177.5" rx="1.0788" ry=".62699"/>
     <ellipse id="ellipse33174" cx="1740.7" cy="175" rx="1.0788" ry=".62699"/>
     <ellipse id="ellipse33176" cx="1745" cy="172.5" rx="1.0788" ry=".62699"/>
     <ellipse id="ellipse33178" cx="1749.4" cy="170" rx="1.0788" ry=".62699"/>
     <ellipse id="ellipse33180" cx="1753.7" cy="167.5" rx="1.0788" ry=".62699"/>
     <ellipse id="ellipse33182" cx="1758" cy="165" rx="1.0788" ry=".62699"/>
     <ellipse id="ellipse33184" cx="1732.1" cy="175" rx="1.0788" ry=".62699"/>
     <ellipse id="ellipse33186" cx="1736.4" cy="172.5" rx="1.0788" ry=".62699"/>
     <ellipse id="ellipse33188" cx="1740.7" cy="170" rx="1.0788" ry=".62699"/>
     <ellipse id="ellipse33190" cx="1745" cy="167.5" rx="1.0788" ry=".62699"/>
     <ellipse id="ellipse33192" cx="1749.4" cy="165" rx="1.0788" ry=".62699"/>
     <ellipse id="ellipse33194" cx="1753.7" cy="162.5" rx="1.0788" ry=".62699"/>
     <ellipse id="ellipse33196" cx="1727.7" cy="172.5" rx="1.0788" ry=".62699"/>
     <ellipse id="ellipse33198" cx="1732.1" cy="170" rx="1.0788" ry=".62699"/>
     <ellipse id="ellipse33200" cx="1736.4" cy="167.5" rx="1.0788" ry=".62699"/>
     <ellipse id="ellipse33202" cx="1740.7" cy="165" rx="1.0788" ry=".62699"/>
     <ellipse id="ellipse33204" cx="1745" cy="162.5" rx="1.0788" ry=".62699"/>
     <ellipse id="ellipse33206" cx="1749.4" cy="160" rx="1.0788" ry=".62699"/>
     <ellipse id="ellipse33208" cx="1723.4" cy="170" rx="1.0788" ry=".62699"/>
     <ellipse id="ellipse33210" cx="1727.7" cy="167.5" rx="1.0788" ry=".62699"/>
     <ellipse id="ellipse33212" cx="1732.1" cy="165" rx="1.0788" ry=".62699"/>
     <ellipse id="ellipse33214" cx="1736.4" cy="162.5" rx="1.0788" ry=".62699"/>
     <ellipse id="ellipse33216" cx="1740.7" cy="160" rx="1.0788" ry=".62699"/>
     <ellipse id="ellipse33218" cx="1745" cy="157.5" rx="1.0788" ry=".62699"/>
     <ellipse id="ellipse33220" cx="1771" cy="167.5" rx="1.0788" ry=".62699"/>
     <ellipse id="ellipse33222" cx="1766.7" cy="165" rx="1.0788" ry=".62699"/>
     <ellipse id="ellipse33224" cx="1762.4" cy="162.5" rx="1.0788" ry=".62699"/>
     <ellipse id="ellipse33226" cx="1758" cy="160" rx="1.0788" ry=".62699"/>
     <ellipse id="ellipse33228" cx="1753.7" cy="157.5" rx="1.0788" ry=".62699"/>
     <ellipse id="ellipse33230" cx="1749.4" cy="155" rx="1.0788" ry=".62699"/>
     <ellipse id="ellipse33232" cx="1719.1" cy="167.5" rx="1.0788" ry=".62699"/>
     <ellipse id="ellipse33234" cx="1723.4" cy="165" rx="1.0788" ry=".62699"/>
     <ellipse id="ellipse33236" cx="1727.7" cy="162.5" rx="1.0788" ry=".62699"/>
     <ellipse id="ellipse33238" cx="1732.1" cy="160" rx="1.0788" ry=".62699"/>
     <ellipse id="ellipse33240" cx="1736.4" cy="157.5" rx="1.0788" ry=".62699"/>
     <ellipse id="ellipse33242" cx="1740.7" cy="155" rx="1.0788" ry=".62699"/>
     <ellipse id="ellipse33244" cx="1745" cy="152.5" rx="1.0788" ry=".62699"/>
    </g>
    <path id="path33248" d="m-255.62 91.5c-1.732-1-1.732-2 0-3l20.784-12c1.7321-1 3.4641-1 5.1962 0l20.785 12c1.7321 1 1.7321 2 0 3l-20.785 12c-1.7321 1-3.4641 1-5.1962 0z" fill="#6e7d89" opacity=".9"/>
    <path id="path33250" d="m-255.62 81.5c-1.732-1-1.732-2 0-3l20.784-12c1.7321-1 3.4641-1 5.1962 0l20.785 12c1.7321 1 1.7321 2 0 3l-20.785 12c-1.7321 1-3.4641 1-5.1962 0z" fill="#6aa0cb" opacity=".9"/>
   </g>
   <g id="g33534" transform="matrix(.63694 0 0 .63694 -665.34 -159.53)" font-family="sans-serif" font-size="17.76px" stroke-width=".44401">
    <text id="text33524" x="633.91052" y="451.83093" fill="#333333" style="line-height:1.25" xml:space="preserve"><tspan id="tspan33522" x="633.91052" y="451.83093" fill="#f5f5f5" font-family="Raleway" font-weight="300" stroke-width=".44401">Slurm</tspan></text>
    <text id="text33528" x="689.63422" y="451.83093" fill="#6aa0cb" style="line-height:1.25" xml:space="preserve"><tspan id="tspan33526" x="689.63422" y="451.83093" fill="#4884ae" font-family="Raleway" font-weight="600" stroke-width=".44401">web</tspan></text>
    <text id="text33532" x="684.19275" y="452.88593" fill="#6aa0cb" style="line-height:1.25" xml:space="preserve"><tspan id="tspan33530" x="684.19275" y="452.88593" fill="#aaaaaa" font-family="Raleway" font-weight="600" stroke-width=".44401">·</tspan></text>
   </g>
  </g>
 </g>
</svg>
