<?xml version="1.0" encoding="UTF-8"?>
<!-- Created with Inkscape (http://www.inkscape.org/) -->
<svg id="svg82589" width="54.119mm" height="49.877mm" version="1.1" viewBox="0 0 54.119 49.877" xmlns="http://www.w3.org/2000/svg">
 <g id="layer1" transform="translate(119.01 11.75)">
  <g id="logo_blue" transform="translate(1.5853 19.417)">
   <g id="g1200" transform="translate(-1778 -164.42)" fill="none" stroke="#cecece" stroke-width=".3">
    <path id="path1178" d="m1680.1 180 25.981-15"/>
    <path id="path1180" d="m1675.8 177.5 25.981-15"/>
    <path id="path1182" d="m1671.4 175 25.981-15"/>
    <path id="path1184" d="m1667.1 172.5 25.981-15"/>
    <path id="path1186" d="m1662.8 170 25.981-15"/>
    <path id="path1188" d="m1688.7 180-25.981-15"/>
    <path id="path1190" d="m1693.1 177.5-25.981-15"/>
    <path id="path1192" d="m1697.4 175-25.981-15"/>
    <path id="path1194" d="m1701.7 172.5-25.981-15"/>
    <path id="path1196" d="m1706.1 170-25.981-15"/>
    <path id="path1198" d="m1684.4 152.5-25.981 15 25.981 15 25.981-15z"/>
   </g>
   <g id="g1300" transform="translate(-1838.6 -164.42)" fill="#cecece">
    <ellipse id="ellipse1202" cx="1745" cy="182.5" rx="1.0788" ry=".62699"/>
    <ellipse id="ellipse1204" cx="1749.4" cy="180" rx="1.0788" ry=".62699"/>
    <ellipse id="ellipse1206" cx="1753.7" cy="177.5" rx="1.0788" ry=".62699"/>
    <ellipse id="ellipse1208" cx="1758" cy="175" rx="1.0788" ry=".62699"/>
    <ellipse id="ellipse1210" cx="1762.4" cy="172.5" rx="1.0788" ry=".62699"/>
    <ellipse id="ellipse1212" cx="1766.7" cy="170" rx="1.0788" ry=".62699"/>
    <ellipse id="ellipse1214" cx="1740.7" cy="180" rx="1.0788" ry=".62699"/>
    <ellipse id="ellipse1216" cx="1745" cy="177.5" rx="1.0788" ry=".62699"/>
    <ellipse id="ellipse1218" cx="1749.4" cy="175" rx="1.0788" ry=".62699"/>
    <ellipse id="ellipse1220" cx="1753.7" cy="172.5" rx="1.0788" ry=".62699"/>
    <ellipse id="ellipse1222" cx="1758" cy="170" rx="1.0788" ry=".62699"/>
    <ellipse id="ellipse1224" cx="1762.4" cy="167.5" rx="1.0788" ry=".62699"/>
    <ellipse id="ellipse1226" cx="1736.4" cy="177.5" rx="1.0788" ry=".62699"/>
    <ellipse id="ellipse1228" cx="1740.7" cy="175" rx="1.0788" ry=".62699"/>
    <ellipse id="ellipse1230" cx="1745" cy="172.5" rx="1.0788" ry=".62699"/>
    <ellipse id="ellipse1232" cx="1749.4" cy="170" rx="1.0788" ry=".62699"/>
    <ellipse id="ellipse1234" cx="1753.7" cy="167.5" rx="1.0788" ry=".62699"/>
    <ellipse id="ellipse1236" cx="1758" cy="165" rx="1.0788" ry=".62699"/>
    <ellipse id="ellipse1238" cx="1732.1" cy="175" rx="1.0788" ry=".62699"/>
    <ellipse id="ellipse1240" cx="1736.4" cy="172.5" rx="1.0788" ry=".62699"/>
    <ellipse id="ellipse1242" cx="1740.7" cy="170" rx="1.0788" ry=".62699"/>
    <ellipse id="ellipse1244" cx="1745" cy="167.5" rx="1.0788" ry=".62699"/>
    <ellipse id="ellipse1246" cx="1749.4" cy="165" rx="1.0788" ry=".62699"/>
    <ellipse id="ellipse1248" cx="1753.7" cy="162.5" rx="1.0788" ry=".62699"/>
    <ellipse id="ellipse1250" cx="1727.7" cy="172.5" rx="1.0788" ry=".62699"/>
    <ellipse id="ellipse1252" cx="1732.1" cy="170" rx="1.0788" ry=".62699"/>
    <ellipse id="ellipse1254" cx="1736.4" cy="167.5" rx="1.0788" ry=".62699"/>
    <ellipse id="ellipse1256" cx="1740.7" cy="165" rx="1.0788" ry=".62699"/>
    <ellipse id="ellipse1258" cx="1745" cy="162.5" rx="1.0788" ry=".62699"/>
    <ellipse id="ellipse1260" cx="1749.4" cy="160" rx="1.0788" ry=".62699"/>
    <ellipse id="ellipse1262" cx="1723.4" cy="170" rx="1.0788" ry=".62699"/>
    <ellipse id="ellipse1264" cx="1727.7" cy="167.5" rx="1.0788" ry=".62699"/>
    <ellipse id="ellipse1266" cx="1732.1" cy="165" rx="1.0788" ry=".62699"/>
    <ellipse id="ellipse1268" cx="1736.4" cy="162.5" rx="1.0788" ry=".62699"/>
    <ellipse id="ellipse1270" cx="1740.7" cy="160" rx="1.0788" ry=".62699"/>
    <ellipse id="ellipse1272" cx="1745" cy="157.5" rx="1.0788" ry=".62699"/>
    <ellipse id="ellipse1274" cx="1771" cy="167.5" rx="1.0788" ry=".62699"/>
    <ellipse id="ellipse1276" cx="1766.7" cy="165" rx="1.0788" ry=".62699"/>
    <ellipse id="ellipse1278" cx="1762.4" cy="162.5" rx="1.0788" ry=".62699"/>
    <ellipse id="ellipse1280" cx="1758" cy="160" rx="1.0788" ry=".62699"/>
    <ellipse id="ellipse1282" cx="1753.7" cy="157.5" rx="1.0788" ry=".62699"/>
    <ellipse id="ellipse1284" cx="1749.4" cy="155" rx="1.0788" ry=".62699"/>
    <ellipse id="ellipse1286" cx="1719.1" cy="167.5" rx="1.0788" ry=".62699"/>
    <ellipse id="ellipse1288" cx="1723.4" cy="165" rx="1.0788" ry=".62699"/>
    <ellipse id="ellipse1290" cx="1727.7" cy="162.5" rx="1.0788" ry=".62699"/>
    <ellipse id="ellipse1292" cx="1732.1" cy="160" rx="1.0788" ry=".62699"/>
    <ellipse id="ellipse1294" cx="1736.4" cy="157.5" rx="1.0788" ry=".62699"/>
    <ellipse id="ellipse1296" cx="1740.7" cy="155" rx="1.0788" ry=".62699"/>
    <ellipse id="ellipse1298" cx="1745" cy="152.5" rx="1.0788" ry=".62699"/>
   </g>
   <path id="path1302" d="m-116.91-5.4166c-1.732-1-1.732-2 0-3l20.784-12c1.7321-1 3.4641-1 5.1962 0l20.785 12c1.7321 1 1.7321 2 0 3l-20.785 12c-1.7321 1-3.4641 1-5.1962 0z" fill="#90acc4" opacity=".8"/>
   <path id="path1304" d="m-116.91-15.417c-1.732-1-1.732-2 0-3l20.784-12c1.7321-1 3.4641-1 5.1962 0l20.785 12c1.7321 1 1.7321 2 0 3l-20.785 12c-1.7321 1-3.4641 1-5.1962 0z" fill="#4c7392" opacity=".9"/>
  </g>
 </g>
</svg>
