<?xml version="1.0" encoding="UTF-8"?>
<!-- Created with Inkscape (http://www.inkscape.org/) -->
<svg id="svg82589" width="54.204mm" height="62.54mm" version="1.1" viewBox="0 0 54.204 62.54" xmlns="http://www.w3.org/2000/svg">
 <g id="layer1" transform="translate(119.05 -69.75)">
  <g id="logo_full_blue" transform="translate(1.5852)">
   <g id="g2473">
    <g id="g87052" transform="translate(-1778 -63.5)" fill="none" stroke="#cecece" stroke-width=".3">
     <path id="path87030" d="m1680.1 180 25.981-15"/>
     <path id="path87032" d="m1675.8 177.5 25.981-15"/>
     <path id="path87034" d="m1671.4 175 25.981-15"/>
     <path id="path87036" d="m1667.1 172.5 25.981-15"/>
     <path id="path87038" d="m1662.8 170 25.981-15"/>
     <path id="path87040" d="m1688.7 180-25.981-15"/>
     <path id="path87042" d="m1693.1 177.5-25.981-15"/>
     <path id="path87044" d="m1697.4 175-25.981-15"/>
     <path id="path87046" d="m1701.7 172.5-25.981-15"/>
     <path id="path87048" d="m1706.1 170-25.981-15"/>
     <path id="path87050" d="m1684.4 152.5-25.981 15 25.981 15 25.981-15z"/>
    </g>
    <g id="g87152" transform="translate(-1838.6 -63.5)" fill="#cecece">
     <ellipse id="ellipse87054" cx="1745" cy="182.5" rx="1.0788" ry=".62699"/>
     <ellipse id="ellipse87056" cx="1749.4" cy="180" rx="1.0788" ry=".62699"/>
     <ellipse id="ellipse87058" cx="1753.7" cy="177.5" rx="1.0788" ry=".62699"/>
     <ellipse id="ellipse87060" cx="1758" cy="175" rx="1.0788" ry=".62699"/>
     <ellipse id="ellipse87062" cx="1762.4" cy="172.5" rx="1.0788" ry=".62699"/>
     <ellipse id="ellipse87064" cx="1766.7" cy="170" rx="1.0788" ry=".62699"/>
     <ellipse id="ellipse87066" cx="1740.7" cy="180" rx="1.0788" ry=".62699"/>
     <ellipse id="ellipse87068" cx="1745" cy="177.5" rx="1.0788" ry=".62699"/>
     <ellipse id="ellipse87070" cx="1749.4" cy="175" rx="1.0788" ry=".62699"/>
     <ellipse id="ellipse87072" cx="1753.7" cy="172.5" rx="1.0788" ry=".62699"/>
     <ellipse id="ellipse87074" cx="1758" cy="170" rx="1.0788" ry=".62699"/>
     <ellipse id="ellipse87076" cx="1762.4" cy="167.5" rx="1.0788" ry=".62699"/>
     <ellipse id="ellipse87078" cx="1736.4" cy="177.5" rx="1.0788" ry=".62699"/>
     <ellipse id="ellipse87080" cx="1740.7" cy="175" rx="1.0788" ry=".62699"/>
     <ellipse id="ellipse87082" cx="1745" cy="172.5" rx="1.0788" ry=".62699"/>
     <ellipse id="ellipse87084" cx="1749.4" cy="170" rx="1.0788" ry=".62699"/>
     <ellipse id="ellipse87086" cx="1753.7" cy="167.5" rx="1.0788" ry=".62699"/>
     <ellipse id="ellipse87088" cx="1758" cy="165" rx="1.0788" ry=".62699"/>
     <ellipse id="ellipse87090" cx="1732.1" cy="175" rx="1.0788" ry=".62699"/>
     <ellipse id="ellipse87092" cx="1736.4" cy="172.5" rx="1.0788" ry=".62699"/>
     <ellipse id="ellipse87094" cx="1740.7" cy="170" rx="1.0788" ry=".62699"/>
     <ellipse id="ellipse87096" cx="1745" cy="167.5" rx="1.0788" ry=".62699"/>
     <ellipse id="ellipse87098" cx="1749.4" cy="165" rx="1.0788" ry=".62699"/>
     <ellipse id="ellipse87100" cx="1753.7" cy="162.5" rx="1.0788" ry=".62699"/>
     <ellipse id="ellipse87102" cx="1727.7" cy="172.5" rx="1.0788" ry=".62699"/>
     <ellipse id="ellipse87104" cx="1732.1" cy="170" rx="1.0788" ry=".62699"/>
     <ellipse id="ellipse87106" cx="1736.4" cy="167.5" rx="1.0788" ry=".62699"/>
     <ellipse id="ellipse87108" cx="1740.7" cy="165" rx="1.0788" ry=".62699"/>
     <ellipse id="ellipse87110" cx="1745" cy="162.5" rx="1.0788" ry=".62699"/>
     <ellipse id="ellipse87112" cx="1749.4" cy="160" rx="1.0788" ry=".62699"/>
     <ellipse id="ellipse87114" cx="1723.4" cy="170" rx="1.0788" ry=".62699"/>
     <ellipse id="ellipse87116" cx="1727.7" cy="167.5" rx="1.0788" ry=".62699"/>
     <ellipse id="ellipse87118" cx="1732.1" cy="165" rx="1.0788" ry=".62699"/>
     <ellipse id="ellipse87120" cx="1736.4" cy="162.5" rx="1.0788" ry=".62699"/>
     <ellipse id="ellipse87122" cx="1740.7" cy="160" rx="1.0788" ry=".62699"/>
     <ellipse id="ellipse87124" cx="1745" cy="157.5" rx="1.0788" ry=".62699"/>
     <ellipse id="ellipse87126" cx="1771" cy="167.5" rx="1.0788" ry=".62699"/>
     <ellipse id="ellipse87128" cx="1766.7" cy="165" rx="1.0788" ry=".62699"/>
     <ellipse id="ellipse87130" cx="1762.4" cy="162.5" rx="1.0788" ry=".62699"/>
     <ellipse id="ellipse87132" cx="1758" cy="160" rx="1.0788" ry=".62699"/>
     <ellipse id="ellipse87134" cx="1753.7" cy="157.5" rx="1.0788" ry=".62699"/>
     <ellipse id="ellipse87136" cx="1749.4" cy="155" rx="1.0788" ry=".62699"/>
     <ellipse id="ellipse87138" cx="1719.1" cy="167.5" rx="1.0788" ry=".62699"/>
     <ellipse id="ellipse87140" cx="1723.4" cy="165" rx="1.0788" ry=".62699"/>
     <ellipse id="ellipse87142" cx="1727.7" cy="162.5" rx="1.0788" ry=".62699"/>
     <ellipse id="ellipse87144" cx="1732.1" cy="160" rx="1.0788" ry=".62699"/>
     <ellipse id="ellipse87146" cx="1736.4" cy="157.5" rx="1.0788" ry=".62699"/>
     <ellipse id="ellipse87148" cx="1740.7" cy="155" rx="1.0788" ry=".62699"/>
     <ellipse id="ellipse87150" cx="1745" cy="152.5" rx="1.0788" ry=".62699"/>
    </g>
    <path id="path87154" d="m-116.91 95.5c-1.732-1-1.732-2 0-3l20.784-12c1.7321-1 3.4641-1 5.1962 0l20.785 12c1.7321 1 1.7321 2 0 3l-20.785 12c-1.7321 1-3.4641 1-5.1962 0z" fill="#90acc4" opacity=".8"/>
    <path id="path87156" d="m-116.91 85.5c-1.732-1-1.732-2 0-3l20.784-12c1.7321-1 3.4641-1 5.1962 0l20.785 12c1.7321 1 1.7321 2 0 3l-20.785 12c-1.7321 1-3.4641 1-5.1962 0z" fill="#4c7392" opacity=".9"/>
   </g>
   <g id="g2687" font-family="sans-serif" font-size="10.619px" stroke-width=".26547">
    <text id="text87160" x="-121.00333" y="132.18341" fill="#333333" style="line-height:1.25" xml:space="preserve"><tspan id="tspan87158" x="-121.00333" y="132.18341" fill="#ffffff" font-family="Raleway" font-weight="300" stroke-width=".26547">Slurm</tspan></text>
    <text id="text87164" x="-87.686211" y="132.18341" fill="#6aa0cb" style="line-height:1.25" xml:space="preserve"><tspan id="tspan87162" x="-87.686211" y="132.18341" fill="#486c89" font-family="Raleway" font-weight="600" stroke-width=".26547">web</tspan></text>
    <text id="text87168" x="-90.939644" y="132.81419" fill="#6aa0cb" style="line-height:1.25" xml:space="preserve"><tspan id="tspan87166" x="-90.939644" y="132.81419" fill="#434343" font-family="Raleway" font-weight="600" stroke-width=".26547">·</tspan></text>
   </g>
  </g>
 </g>
</svg>
